<svg width="80px" height="80px" viewBox="0 0 80 80" xmlns="http://www.w3.org/2000/svg">
 	<style>
		.fr-artwork-decorative {
			fill: #ECECFF;
		}
		.fr-artwork-minor {
			fill: #E1000F;
		}
		.fr-artwork-major {
			fill: #000091;
		}
	</style>
	<g class="fr-artwork-decorative" id="artwork-decorative">
    <path d="M17,8c-0.5514,0-1-0.4486-1-1c0-0.55145,0.4486-1,1-1s1,0.44855,1,1C18,7.5514,17.5514,8,17,8z M7,64
	c-0.5514,0-1-0.4486-1-1s0.4486-1,1-1s1,0.4486,1,1S7.5514,64,7,64z M77,58c-0.5514,0-1-0.4486-1-1s0.4486-1,1-1s1,0.4486,1,1
	S77.5514,58,77,58z M61,6c-0.5514,0-1-0.4486-1-1c0-0.55145,0.4486-1,1-1s1,0.44855,1,1C62,5.5514,61.5514,6,61,6z"/>
  </g>
  <g class="fr-artwork-minor" id="artwork-minor">
    <path d="M39,42c-3.3137,0-6,2.6863-6,6c0,2.2208,1.2066,4.1599,3,5.1973V57c0,1.6569,1.3431,3,3,3s3-1.3431,3-3v-3.8027
	c1.7934-1.0374,3-2.9765,3-5.1973C45,44.6863,42.3137,42,39,42z M39,52c2.2091,0,4-1.7909,4-4s-1.7909-4-4-4s-4,1.7909-4,4
	S36.7909,52,39,52z M38,54v3c0,0.5128,0.386,0.9355,0.8834,0.9933L39,58c0.5523,0,1-0.4477,1-1v-3H38z"/>
  </g>
  <g class="fr-artwork-major" id="artwork-major">
    <path d="M61.5,59.72791c0,1.53436-1.15582,2.51801-2.76617,2.7934l-0.09094,0.97052h-1.22076l-0.20782-2.16394
	c1.50653-0.15741,2.49353-0.48529,2.49353-1.59998c0-0.68201-0.51953-1.15411-1.19482-1.15411
	c-0.68829,0-1.11688,0.36719-1.59741,1.0885L55.5,58.78357C56.22729,57.61639,57.21429,57,58.59088,57
	C60.12341,57,61.5,58.06232,61.5,59.72791z M58.04553,64.31799c-0.62341,0-1.14294,0.5246-1.14294,1.14099
	s0.51953,1.14099,1.14294,1.14099c0.59735,0,1.12976-0.5246,1.12976-1.14099S58.64288,64.31799,58.04553,64.31799z M61,48
	c-0.55231,0-1,0.44769-1,1s0.44769,1,1,1s1-0.44769,1-1S61.55231,48,61,48z M26,49c0,0.55231,0.44769,1,1,1s1-0.44769,1-1
	s-0.44769-1-1-1S26,48.44769,26,49z M68,62c0,5.52289-4.47711,10-10,10c-3.27161,0-6.17627-1.57111-8.00067-4H17.95709
	c-2.1582,0-3.85168-1.922-3.95239-4.26959L14,63.50909V38.49091c0-2.37268,1.62811-4.36664,3.75623-4.48529L17.95709,34h2.21362
	C20.06018,33.68719,20,33.35059,20,33v-2c0-1.31128,0.84143-2.42621,2.01367-2.83411
	c-0.00269-0.0163-0.00494-0.03271-0.00696-0.04932L22,28v-3.80872C22,15.65662,29.2287,10,39,10s17,5.65662,17,14.19128
	c0,0.55219-0.44769,1-1,1s-1-0.44781-1-1C54,16.88348,47.75928,12,39,12c-8.63757,0-14.82617,4.74878-14.9964,11.88818L24,24.19128
	V28h4c1.65692,0,3,1.34308,3,3v2c0,0.35059-0.06018,0.68719-0.17072,1h16.34143C47.06018,33.68719,47,33.35059,47,33v-2
	c0-1.65692,1.34308-3,3-3v-3.3772C50,19.46777,45.40308,16,38.89288,16c-5.67426,0-9.99536,2.68011-10.91656,6.83429
	c-0.11963,0.53918-0.65363,0.87933-1.19281,0.7597c-0.53918-0.11951-0.87939-0.65363-0.75983-1.19269
	C27.17291,17.21912,32.3631,14,38.89288,14c7.39624,0,12.93451,4.0921,13.10309,10.32892L52,24.6228V28h3c1.65692,0,3,1.34308,3,3v2
	c0,0.35059-0.06018,0.68719-0.17072,1h0.21362c2.1582,0,3.85168,1.922,3.95239,4.26959L62,38.49091V45c0,0.55231-0.44769,1-1,1
	c-0.51282,0-0.93549-0.38599-0.99329-0.88342L60,45v-6.50909c0-1.34778-0.8385-2.39618-1.8222-2.4848L58.04291,36H17.95709
	c-0.99536,0-1.8772,0.98981-1.95197,2.30902L16,38.49091V48h7c0.55231,0,1,0.44769,1,1c0,0.51282-0.38599,0.93549-0.88342,0.99329
	L23,50h-7v6h6l0.17633,0.00513C23.7511,56.09631,25,57.40228,25,59v7h23.83209C48.29688,64.77509,48,63.42218,48,62
	c0-5.52283,4.47717-10,10-10C63.52289,52,68,56.47717,68,62z M49,33c0,0.55231,0.44769,1,1,1h5c0.55231,0,1-0.44769,1-1v-2
	c0-0.55231-0.44769-1-1-1h-5c-0.55231,0-1,0.44769-1,1V33z M22,33c0,0.55231,0.44769,1,1,1h5c0.55231,0,1-0.44769,1-1v-2
	c0-0.55231-0.44769-1-1-1h-5c-0.55231,0-1,0.44769-1,1V33z M23,59l-0.00671-0.11658C22.93549,58.38599,22.51282,58,22,58h-6v5.50909
	c0,1.34778,0.8385,2.39618,1.8222,2.4848L17.95709,66H23V59z M66,62c0-4.41827-3.58173-8-8-8s-8,3.58173-8,8s3.58173,8,8,8
	S66,66.41827,66,62z"/>
  </g>
</svg>
