<svg width="109" height="123" viewBox="0 0 109 123" xmlns="http://www.w3.org/2000/svg" xmlns:xlink="http://www.w3.org/1999/xlink">
    <style>
        .fr-artwork-decorative {
            fill: #ECECFF;
        }
        .fr-artwork-minor {
            fill: #E1000F;
        }
        .fr-artwork-major {
            fill: #000091;
        }
    </style>
    <g class="fr-artwork-decorative" id="artwork-decorative">
        <path d="M101.4 9.4c-.993 0-1.8-.807-1.8-1.8s.807-1.8 1.8-1.8 1.8.807 1.8 1.8-.807 1.8-1.8 1.8ZM52.8 122.8c-.993 0-1.8-.807-1.8-1.8s.807-1.8 1.8-1.8 1.8.807 1.8 1.8-.807 1.8-1.8 1.8ZM6 4c-.993 0-1.8-.807-1.8-1.8S5.007.4 6 .4s1.8.807 1.8 1.8S6.993 4 6 4Z"/>
    </g>
    <g class="fr-artwork-minor" id="artwork-minor">
        <path d="M9.6 25.6c-.993 0-1.8-.807-1.8-1.8S8.607 22 9.6 22s1.8.807 1.8 1.8-.807 1.8-1.8 1.8Zm7.2 0c-.993 0-1.8-.807-1.8-1.8s.807-1.8 1.8-1.8 1.8.807 1.8 1.8-.807 1.8-1.8 1.8Zm7.2 0c-.993 0-1.8-.807-1.8-1.8S23.007 22 24 22s1.8.807 1.8 1.8-.807 1.8-1.8 1.8ZM92.4 22a1.8 1.8 0 0 1 .21 3.588l-.21.012h-54a1.8 1.8 0 0 1-.21-3.588L38.4 22h54Zm-2.52 39.96a1.8 1.8 0 0 1 .484 2.331l-.124.189-7.745 10.327a5.4 5.4 0 1 1-9.409.75l.041-.084-3.6-3.6a1.8 1.8 0 0 1 2.376-2.696l.17.15 3.6 3.6.084-.04A5.38 5.38 0 0 1 78 72.4c.563 0 1.106.086 1.616.246L87.36 62.32a1.8 1.8 0 0 1 2.52-.36ZM78 76a1.8 1.8 0 1 0 0 3.6 1.8 1.8 0 0 0 0-3.6Z"/>
    </g>
    <g class="fr-artwork-major" id="artwork-major">
        <path d="M78 47.2c16.9 0 30.6 13.7 30.6 30.6a30.476 30.476 0 0 1-6.865 19.315 1.8 1.8 0 0 1-2.791-2.274A26.876 26.876 0 0 0 105 77.8c0-14.912-12.088-27-27-27s-27 12.088-27 27c0 13.286 9.596 24.33 22.236 26.581l-.109-.108a1.8 1.8 0 0 1-.15-2.376l.15-.17a1.8 1.8 0 0 1 2.376-.15l.17.15 3.6 3.6c.037.038.073.077.107.117l-.107-.117a1.819 1.819 0 0 1 .471.826 2.028 2.028 0 0 1 .035.172l.004.028c.011.08.017.163.017.247v.033l-.002.051.002-.084a1.82 1.82 0 0 1-.138.694 1.796 1.796 0 0 1-.24.41l-.016.02a1.81 1.81 0 0 1-.04.047l-.093.102-3.6 3.6a1.8 1.8 0 0 1-2.696-2.376l.15-.17.798-.796C58.95 106.138 47.4 93.318 47.4 77.8c0-16.9 13.7-30.6 30.6-30.6Zm19.406 51.956a1.8 1.8 0 0 1-.279 2.53 30.663 30.663 0 0 1-3.81 2.61 1.8 1.8 0 1 1-1.805-3.115 27.063 27.063 0 0 0 3.363-2.303 1.8 1.8 0 0 1 2.53.278ZM99.6 14.8a1.8 1.8 0 0 1 1.788 1.59l.012.21v28.8a1.8 1.8 0 0 1-3.588.21l-.012-.21v-27H4.2l-.001 10.8H70.8a1.8 1.8 0 0 1 .21 3.588l-.21.012H4.199L4.2 97.6h41.4a1.8 1.8 0 0 1 1.788 1.59l.012.21a1.8 1.8 0 0 1-1.59 1.788l-.21.012H2.4a1.8 1.8 0 0 1-1.788-1.59L.6 99.4V16.6a1.8 1.8 0 0 1 1.59-1.788l.21-.012h97.2ZM78 58c1.355 0 2.693.136 4 .405a1.8 1.8 0 1 1-.723 3.526A16.28 16.28 0 0 0 78 61.6c-8.947 0-16.2 7.253-16.2 16.2S69.053 94 78 94s16.2-7.253 16.2-16.2a16.14 16.14 0 0 0-1.318-6.411 1.8 1.8 0 1 1 3.306-1.426A19.74 19.74 0 0 1 97.8 77.8c0 10.935-8.865 19.8-19.8 19.8s-19.8-8.865-19.8-19.8S67.065 58 78 58Zm-39.6 7.2a1.8 1.8 0 0 1 .21 3.588l-.21.012H16.8a1.8 1.8 0 0 1-.21-3.588l.21-.012h21.6ZM42 54.4a1.8 1.8 0 0 1 .21 3.588L42 58H16.8a1.8 1.8 0 0 1-.21-3.588l.21-.012H42Zm7.2-10.8a1.8 1.8 0 0 1 .21 3.588l-.21.012H16.8a1.8 1.8 0 0 1-.21-3.588l.21-.012h32.4Z"/>
    </g>
</svg>