<?xml version="1.0" encoding="UTF-8" standalone="no"?>
<svg
   xmlns:dc="http://purl.org/dc/elements/1.1/"
   xmlns:cc="http://creativecommons.org/ns#"
   xmlns:rdf="http://www.w3.org/1999/02/22-rdf-syntax-ns#"
   xmlns:svg="http://www.w3.org/2000/svg"
   xmlns="http://www.w3.org/2000/svg"
   xmlns:sodipodi="http://sodipodi.sourceforge.net/DTD/sodipodi-0.dtd"
   xmlns:inkscape="http://www.inkscape.org/namespaces/inkscape"
   width="44"
   height="16"
   viewBox="0 0 44 16"
   version="1.1"
   id="svg144"
   sodipodi:docname="marianne.svg"
   inkscape:version="1.0.1 (c497b03c, 2020-09-10)">
  <metadata
     id="metadata150">
    <rdf:RDF>
      <cc:Work
         rdf:about="">
        <dc:format>image/svg+xml</dc:format>
        <dc:type
           rdf:resource="http://purl.org/dc/dcmitype/StillImage" />
      </cc:Work>
    </rdf:RDF>
  </metadata>
  <defs
     id="defs148" />
  <sodipodi:namedview
     pagecolor="#ffffff"
     bordercolor="#666666"
     borderopacity="1"
     objecttolerance="10"
     gridtolerance="10"
     guidetolerance="10"
     inkscape:pageopacity="0"
     inkscape:pageshadow="2"
     inkscape:window-width="1680"
     inkscape:window-height="867"
     id="namedview146"
     showgrid="false"
     inkscape:zoom="24.909091"
     inkscape:cx="22"
     inkscape:cy="8"
     inkscape:window-x="0"
     inkscape:window-y="23"
     inkscape:window-maximized="0"
     inkscape:current-layer="svg144" />
  <rect
     width="44"
     height="16"
     fill="#fff"
     id="rect132" />
  <path
     d="M14.271,14.066c.005,0,.011-.008.011-.008a.645.645,0,0,0,.123-.118.016.016,0,0,1-.016-.008c-.037.039-.08.087-.117.134"
     fill="#1f356c"
     id="path134" />
  <path
     d="M20.181,12.084l-.093.08c.053-.013.093-.027.093-.08"
     fill="#1f356c"
     id="path136" />
  <path
     d="m 18.27,14.112939 c 0.171,-0.171097 0.342,-0.353199 0.514,-0.540304 h -0.005 a 9.9,9.9055719 0 0 1 1.006,-1.02958 3.332,3.3338753 0 0 1 0.327,-0.265149 c 0.031,-0.03102 0.031,-0.09405 0.062,-0.119067 -0.15,0.05703 -0.239,0.182103 -0.394,0.239135 -0.031,0 -0.062,-0.03102 -0.031,-0.06203 0.109,-0.07804 0.218,-0.161091 0.322,-0.244137 H 20.05 c -0.031,0 -0.031,-0.03102 -0.031,-0.06203 a 1.223,1.2236883 0 0 0 -0.965,0.452254 c -0.062,0.03102 -0.119,-0.03102 -0.15,-0.03102 -0.451,0.151085 -0.783,0.545306 -1.235,0.722406 v -0.06203 a 5.372,5.3750235 0 0 1 -0.545,0.21312 3.105,3.1067475 0 0 1 -0.752,0.03102 9.868,9.8735539 0 0 0 -1.095,0.200113 c -0.01,0.005 -0.021,0.005 -0.031,0.01001 a 2.271,2.2722782 0 0 0 -0.56,0.229129 l -0.021,0.01 c -0.016,0.02101 -0.031,0.03602 -0.041,0.05203 a 0.7,0.70039397 0 0 1 -0.207,0.182103 3,3.0016884 0 0 0 -0.5,0.390219 0.072,0.07204052 0 0 1 -0.047,0.01601 c -0.161,0.156088 -0.322,0.312176 -0.488,0.46226 a 0.158,0.15808893 0 0 1 -0.093,0.01001 0.00851571,0.00852051 0 0 0 0.011,-0.01301 l 0.016,-0.03102 0.078,-0.12507 c 0.031,-0.04703 0.057,-0.09405 0.088,-0.140079 0.041,-0.06203 0.083,-0.12507 0.13,-0.182102 a 0.031,0.03101745 0 0 0 0,-0.04202 0.059,0.05903321 0 0 0 -0.041,-0.01601 2.816,2.8175849 0 0 1 0.508,-0.379213 v -0.005 c -0.021,0.005 -0.052,-0.01001 -0.036,-0.03102 a 0.728,0.72840973 0 0 0 0.052,-0.08305 c 0.005,-0.01001 0.005,-0.01601 0.01,-0.02601 0.005,-0.01001 -0.016,-0.01601 -0.021,-0.02602 a 1.354,1.3547621 0 0 0 -0.14,0.100057 c -0.073,0.06203 -0.13,0.200112 -0.239,0.200112 a 0.178,0.17810018 0 0 1 -0.047,-0.005 0.044,0.04402476 0 0 1 -0.031,-0.01001 c 0,-0.005 0,-0.005 0.005,-0.005 a 0.018,0.01801013 0 0 0 0.005,-0.01001 0.005,0.00500281 0 0 1 0.005,-0.005 c 0.005,-0.01001 0.01,-0.01601 0.016,-0.02601 0.006,-0.01001 0.01,-0.01601 0.016,-0.02602 0.006,-0.01 0.005,-0.01601 0.01,-0.02101 a 0.309,0.30917391 0 0 0 0.021,-0.04202 c 0.005,-0.01001 0.01,-0.01601 0.016,-0.02602 0.006,-0.01 0.026,-0.04703 0.041,-0.06804 a 0.109,0.10906135 0 0 1 0.021,-0.03102 c 0.01,-0.02101 0.021,-0.03602 0.031,-0.05703 A 0.033,0.03301857 0 0 0 13.793,13.733725 0.7,0.70039397 0 0 1 14,13.551623 h -0.01 c 0.114,-0.05703 0.233,-0.130073 0.348,-0.192108 a 0.2,0.20011256 0 0 1 0.052,-0.04202 1.868,1.8690513 0 0 0 -0.477,0.239135 0.235,0.23513226 0 0 0 -0.052,0.02601 0.08,0.08004503 0 0 1 -0.073,-0.02601 c -0.005,-0.005 -0.005,-0.01001 -0.005,-0.02101 0.031,-0.06203 0.119,-0.08805 0.182,-0.151085 0.031,0 0.057,0 0.057,0.03102 0.965,-0.753424 2.293,-0.571321 3.408,-0.966543 0.088,-0.06203 0.182,-0.119067 0.27,-0.182103 0.15,-0.06203 0.27,-0.21312 0.451,-0.300169 a 1.342,1.3427553 0 0 0 0.514,-0.700394 0.109,0.10906135 0 0 0 -0.031,-0.06203 4.77,4.7726846 0 0 1 -1.328,1.000563 5.6,5.6031518 0 0 1 -1.987,0.364205 c 0.031,-0.06203 0.093,-0.06203 0.15,-0.06203 0,-0.09405 0.057,-0.119067 0.119,-0.182102 h 0.088 c 0.031,0 0.031,-0.06203 0.062,-0.06203 0.062,0 0.15,-0.03102 0.119,-0.03102 -0.093,-0.119067 -0.27,0.08805 -0.42,0 0.057,-0.06203 0.031,-0.151085 0.088,-0.182102 h 0.119 a 0.2,0.20011256 0 0 1 0.062,-0.119067 c 0.451,-0.270152 0.877,-0.483272 1.3,-0.722406 -0.088,0 -0.15,0.09405 -0.239,0.03102 0.062,0 0,-0.08805 0.062,-0.08805 0.332,-0.08805 0.6,-0.270152 0.934,-0.395223 -0.119,0 -0.213,0.09405 -0.332,0 0.062,-0.03102 0.088,-0.08805 0.182,-0.08805 v -0.08805 c 0,-0.03102 0.031,-0.03102 0.062,-0.03102 a 0.109,0.10906135 0 0 1 -0.062,-0.03102 c 0.031,-0.06203 0.119,-0.03102 0.182,-0.08805 -0.031,0 -0.088,0 -0.088,-0.03102 a 0.6,0.60033769 0 0 1 0.389,-0.182102 c -0.031,-0.06203 -0.119,0 -0.119,-0.06203 0,-0.03102 0.031,-0.03102 0.062,-0.03102 h -0.062 c -0.062,-0.03102 -0.031,-0.09405 -0.031,-0.119067 a 2.069,2.0701645 0 0 0 0.27,-0.7224068 c -0.031,0 -0.062,0 -0.062,-0.031017 a 2.452,2.45338 0 0 1 -1.235,0.5713214 h -0.15 a 0.6,0.60033769 0 0 1 -0.514,-0.031017 2.421,2.4223626 0 0 1 -0.3,-0.2391345 3.721,3.7230942 0 0 0 -0.752,-0.3642049 6.78,6.7838159 0 0 0 -2.319,-0.3321868 4.889,4.8917516 0 0 1 1.053,-0.3001689 4.484,4.4865237 0 0 1 1.535,-0.3001688 0.974,0.97454818 0 0 0 -0.3,0 4.817,4.8197111 0 0 0 -1.3,0.1821024 c -0.3,0.062035 -0.571,0.1821025 -0.877,0.2391345 -0.182,0.062035 -0.27,0.2391346 -0.482,0.2131199 v -0.099056 a 1.732,1.7329748 0 0 1 1.146,-0.7534238 5.689,5.6922019 0 0 1 1.6,0.062035 7.521,7.5252329 0 0 1 1.146,0.2131199 c 0.15,0 0.182,0.2391345 0.3,0.2701519 0.182,0.062035 0.363,0 0.545,0.119067 0,-0.062035 -0.031,-0.119067 0,-0.1821024 0.119,-0.119067 0.27,0.031017 0.389,-0.031018 C 17.883,8.33769 17.426,8.067538 17.307,7.8544181 a 0.109,0.10906135 0 0 1 0.031,-0.062035 3.371,3.3728973 0 0 0 0.721,0.6003377 c 0.15,0.062035 0.514,0.151085 0.451,-0.031017 A 4.675,4.6776312 0 0 0 17.81,7.4611969 V 7.3401288 c -0.062,0 -0.062,-0.031017 -0.088,-0.062035 V 7.1580264 C 17.603,7.0959915 17.629,6.975924 17.572,6.8878744 17.479,6.7367894 17.541,6.5236696 17.479,6.3425677 A 3.07,3.0717278 0 0 1 17.36,5.8282784 C 17.267,5.3139891 17.147,4.8617347 17.09,4.3784629 17.028,3.8071415 17.422,3.3488837 17.69,2.8395973 A 2.592,2.5934588 0 0 1 18.536,1.8730536 2.633,2.6344819 0 0 1 19.107,0.90650991 2.506,2.5074104 0 0 1 20.036,0.30617222 7.734,7.7383528 0 0 1 20.836,0 H 0 v 16 h 14.784 a 13.507,13.514602 0 0 1 1.95,-1.008567 8.119,8.1235695 0 0 0 1.535,-0.878494 m -4.638,-2.162217 c -0.062,0 -0.182,0.03102 -0.15,-0.03102 0.031,-0.151085 0.239,-0.151085 0.363,-0.21312 0.062,-0.03102 0.15,-0.08805 0.213,-0.06203 0.062,0.08805 0.15,0.06203 0.213,0.119067 -0.187,0.187105 -0.425,0.09405 -0.638,0.187105 M 9.02,11.285348 a 0.109,0.10906135 0 0 1 -0.031,-0.06204 9.23,9.2351948 0 0 0 0.965,-1.5388655 4.216,4.2183728 0 0 0 1.027,-0.8474767 5.835,5.838284 0 0 1 1.686,-1.3307485 1.131,1.1316365 0 0 1 0.783,0.031017 c -0.088,0.119067 -0.239,0.08805 -0.363,0.1821024 a 0.114,0.11406416 0 0 1 -0.093,-0.031017 0.115,0.11506472 0 0 0 0.031,-0.094053 c -0.3,0.3321868 -0.721,0.4832718 -0.965,0.8784941 -0.182,0.3001689 -0.3,0.700394 -0.69,0.7844413 -0.119,0.031017 0.031,-0.08805 -0.031,-0.062035 A 10.317,10.322807 0 0 0 9.02,11.284347 m 2.5,-1.9961224 c -0.031,0.062035 -0.062,0.068038 -0.088,0.119067 a 0.243,0.24313676 0 0 1 -0.119,0.119067 c -0.031,0 -0.062,0 -0.062,-0.031018 A 0.371,0.3712088 0 0 1 11.49,9.2251892 c 0.031,0.005 0.031,0.03602 0.031,0.062035 m 1.4,4.5275468 a 0.387,0.38721781 0 0 1 -0.073,0.08805 c 0.036,0.005 0.062,0.02601 0.041,0.04703 a 0.651,0.65136639 0 0 1 -0.228,0.16109 0.4,0.40022513 0 0 1 -0.047,0.005 1.084,1.0846101 0 0 1 -0.114,0.100056 c -0.036,0.03102 -0.2,0.01001 -0.15,-0.03602 0.078,-0.06804 0.15,-0.140079 0.223,-0.21312 0.041,-0.04202 0.088,-0.07804 0.124,-0.119067 a 0.385,0.38521668 0 0 1 0.062,-0.06804 c 0.026,-0.01601 0.187,-0.03102 0.161,0.03102 m -0.539,-0.249141 c -0.005,0 -0.005,0 -0.005,0.005 -0.114,0.07804 -0.223,0.161091 -0.342,0.229129 -0.119,0.06804 -0.265,0.130073 -0.4,0.200113 a 0.005,0.00500281 0 0 0 -0.005,-0.005 0.039,0.03902195 0 0 0 -0.052,-0.01001 1.335,1.3357514 0 0 0 -0.3,0.234132 0.158,0.15808893 0 0 0 -0.041,0.04202 v 0 l -0.041,0.04202 -0.005,0.005 v 0.005 c -0.021,0.02101 -0.041,0.04202 -0.067,0.07304 -0.016,0.01601 -0.021,0.03102 -0.041,0.04202 -0.02,0.01101 -0.073,0.01001 -0.067,-0.02101 v -0.005 a 0.242,0.2421362 0 0 1 -0.052,0.02601 c -0.016,0.01001 -0.031,0.01601 -0.047,0.02601 a 0.044,0.04402476 0 0 0 -0.041,0 c -0.036,0.03102 -0.073,0.05703 -0.109,0.09405 a 2.023,2.0241386 0 0 0 -0.176,0.187105 0.005,0.00500281 0 0 1 -0.005,0.005 c 0,0.005 -0.005,0.005 -0.005,0.01001 l -0.01,0.01 c -0.005,0.005 -0.005,0.01001 -0.01,0.01001 l -0.005,0.005 a 0.109,0.10906135 0 0 1 -0.021,0.03102 v 0 a 0.04,0.04002251 0 0 1 -0.026,0.01001 c -0.005,-0.005 -0.01,-0.01001 -0.01,-0.01601 0,-0.006 -0.005,-0.01001 -0.01,-0.01601 -0.005,-0.006 -0.016,-0.03102 -0.026,-0.04703 v -0.005 c 0,-0.005 -0.005,-0.01001 -0.005,-0.01601 l 0.093,-0.109062 0.005,-0.005 c 0.01,-0.01 0.021,-0.02601 0.031,-0.03602 0.01,-0.01 0.036,-0.04202 0.052,-0.06203 0.016,-0.02001 0.01,-0.01601 0.016,-0.02601 0.031,-0.04202 0.062,-0.08305 0.093,-0.130073 v -0.005 a 0.027,0.0270152 0 0 0 0.01,-0.02101 0.433,0.4332437 0 0 0 0.041,-0.06203 l 0.031,-0.06203 v -0.005 l 0.005,-0.005 c 0,-0.005 0.005,-0.005 0.005,-0.01 0.01,-0.02602 0.021,-0.04703 0.031,-0.07304 v -0.005 l 0.005,-0.02101 c 0.005,-0.01 0.005,-0.02101 0.01,-0.03102 v -0.005 c 0.005,-0.01601 0.005,-0.03102 0.01,-0.04703 a 0.031,0.03101745 0 0 0 -0.005,-0.02101 0.861,0.86148459 0 0 1 0.119,-0.161091 c -0.005,0 -0.01,0.005 -0.016,0.005 -0.041,0.02601 -0.073,0.06804 -0.114,0.100056 -0.041,0.03202 -0.093,-0.01601 -0.052,-0.04703 a 0.8,0.80045025 0 0 0 0.067,-0.06203 0.005,0.00500281 0 0 1 0.006,-0.002 2.132,2.1331999 0 0 1 0.156,-0.151085 c 0.036,-0.02602 0.062,-0.04703 0.093,-0.07304 0.005,-0.005 0.01,-0.01001 0.016,-0.01001 a 0.9,0.90050653 0 0 1 0.067,-0.07804 0.005,0.00500281 0 0 0 0.005,-0.005 c 0.29,-0.281158 0.773,-0.265149 1.157,-0.442249 0.15,-0.06203 0.332,0.03102 0.482,0 a 0.431,0.43124257 0 0 1 0.27,0.06203 c -0.265,0.140079 -0.514,0.306173 -0.763,0.46226 M 13,11.46745 c -0.031,-0.03102 0.093,0 0.119,-0.06203 H 12.88 c -0.031,0 -0.031,-0.03102 -0.031,-0.06203 -0.15,0.03102 -0.332,0.08805 -0.482,0.119067 -0.213,0.06203 -0.394,0.21312 -0.633,0.270152 -0.332,0.119067 -0.6,0.395222 -0.965,0.514289 -0.031,0 -0.031,-0.03102 -0.031,-0.06203 0.031,-0.08805 0.15,-0.119067 0.213,-0.21312 0,-0.03102 0,-0.06203 -0.031,-0.06203 a 5.063,5.0658495 0 0 1 0.877,-0.784441 v -0.09405 c 0.088,-0.119067 0.239,-0.182102 0.3,-0.332187 a 0.541,0.54130448 0 0 1 0.3,-0.270152 c -0.031,-0.03102 -0.088,-0.03102 -0.088,-0.08805 -0.119,0 -0.244,0.06203 -0.363,-0.03102 a 0.432,0.43224314 0 0 1 0.187,-0.109061 0.106,0.10605966 0 0 1 -0.067,-0.04202 c -0.031,-0.06203 0.057,-0.130073 0.15,-0.151085 a 0.792,0.79244575 0 0 0 0.363,-0.1190667 c -0.213,-0.031017 -0.451,0.062035 -0.664,-0.062035 a 1.631,1.631918 0 0 1 0.752,-0.9005065 c 0.031,0 0.093,0 0.093,0.031017 a 0.3,0.30016884 0 0 1 -0.244,0.3001689 3.263,3.2648365 0 0 1 0.721,0.1821024 c -0.031,0.062035 -0.088,0.031018 -0.119,0.031018 0.15,0.08805 0.332,0.031017 0.482,0.1510849 -0.093,0.08805 -0.182,0 -0.27,0 a 7.876,7.8804327 0 0 1 2.715,1.080608 8.308,8.3126759 0 0 1 -2.08,0.634357 0.63,0.63035457 0 0 1 -0.239,-0.03102 c 0,0.03102 0,0.08805 -0.031,0.08805 a 0.479,0.47926959 0 0 0 -0.3,0.06203 c -0.124,0.06804 -0.306,0.100056 -0.394,0.01"
     fill="#000091"
     id="path138"
     style="stroke-width:1.00028" />
  <path
     d="m 44.004845,0 h -17.16 a 0.793,0.79414158 0 0 1 0.16,0.07310509 c 0.14,0.07310509 0.322,0.17124616 0.431,0.22932966 a 1.4,1.4020154 0 0 1 0.576,0.48369531 c 0.062,0.0881267 0.15,0.27038864 0.093,0.39056144 -0.062,0.1512174 -0.093,0.3955686 -0.244,0.4526507 a 1.084,1.0855605 0 0 1 -0.633,0.062089 1.521,1.5231896 0 0 1 -0.363,-0.062089 2.477,2.4805658 0 0 1 1.178,0.8171747 c 0.031,0.062089 0.15,0.088127 0.27,0.088127 0.031,0 0.031,0.062089 0.031,0.088127 -0.062,0.062089 -0.119,0.094135 -0.088,0.182262 h 0.088 c 0.15,-0.062089 0.119,-0.364524 0.332,-0.2703886 a 0.337,0.33748513 0 0 1 0.119,0.4486449 2.722,2.7259185 0 0 1 -0.363,0.3004318 0.255,0.25536709 0 0 0 0,0.2133067 0.953,0.95437191 0 0 1 0.15,0.364524 c 0.093,0.2133066 0.119,0.4526507 0.213,0.6659573 a 4.41,4.4163485 0 0 1 0.21,1.3659629 c 0,0.239344 -0.119,0.4526507 -0.031,0.7010077 a 2.737,2.7409401 0 0 0 0.332,0.6349127 5.361,5.3687175 0 0 1 0.332,0.4836953 c 0.182,0.3004318 0.514,0.6008637 0.363,0.9673906 -0.088,0.2133066 -0.42,0.182262 -0.633,0.3004319 -0.182,0.1512173 -0.031,0.3955686 0.062,0.5457845 0.15,0.2703887 -0.182,0.4526504 -0.394,0.5457844 0.062,0.09414 0.182,0.06209 0.213,0.119171 0.031,0.151218 0.182,0.239345 0.088,0.395569 -0.119,0.182262 -0.482,0.270389 -0.3,0.545785 a 0.807,0.80816173 0 0 1 -0.032,0.662953 0.741,0.74206672 0 0 1 -0.545,0.45265 1.187,1.1887088 0 0 1 -0.571,0.03104 0.422,0.4226075 0 0 0 -0.182,-0.06209 13.114,13.132879 0 0 0 -1.535,-0.2083 1.657,1.6593854 0 0 0 -0.42,0.119172 2.435,2.4385054 0 0 0 -0.363,0.322463 l -0.005,0.005 c -0.021,0.02604 -0.047,0.04707 -0.067,0.0731 -0.02,0.02604 -0.026,0.03104 -0.036,0.04707 -0.01,0.01602 -0.016,0.02103 -0.026,0.03105 a 3.176,3.1805721 0 0 0 -0.239,0.348501 0.072,0.07210365 0 0 1 -0.016,0.02103 0.182,0.182262 0 0 1 -0.026,0.04206 2.989,2.9933029 0 0 0 -0.228,0.556801 1.8,1.8025912 0 0 0 0.031,1.431057 c 0.041,0.04206 1,0.338487 1.66,0.634913 A 5.918,5.9265194 0 0 1 27.147845,16 h 16.852 V 0 Z"
     fill="#e1000f"
     id="path140"
     style="stroke-width:1.00072" />
  <path
     d="M27.862,5.844c.119.031.3.031.3.094-.062.239-.42.3-.6.545h-.093c-.088.062-.062.213-.15.213a.408.408,0,0,0-.27.031.515.515,0,0,0,.451.182c.031,0,.088.062.088.119A.1.1,0,0,0,27.649,7c.031,0,.062,0,.062.031v.119c-.088.119-.244.062-.363.088a1.314,1.314,0,0,0,.7,0c.182-.062,0-.364.119-.514-.062,0,0-.094-.062-.094.062-.062.119-.151.182-.182a.213.213,0,0,0,.182-.094c0-.062-.119-.088-.093-.151.182-.119.332-.3.27-.483-.031-.094-.27-.094-.42-.151a1.036,1.036,0,0,0-.514.031,2.9,2.9,0,0,0-.451.119,2.069,2.069,0,0,0-.571.3,4.751,4.751,0,0,1,.664-.182,2.425,2.425,0,0,1,.514.005"
     fill="gray"
     id="path142" />
</svg>
