<?xml version="1.0" encoding="utf-8"?>
<!-- Generator: Adobe Illustrator 21.0.2, SVG Export Plug-In . SVG Version: 6.00 Build 0)  -->
<svg version="1.1" xmlns="http://www.w3.org/2000/svg" xmlns:xlink="http://www.w3.org/1999/xlink" x="0px" y="0px"
	 viewBox="0 0 44 18" style="enable-background:new 0 0 44 18;" xml:space="preserve">
<style type="text/css">
	.st0{fill:#FFFFFF;}
	.st1{fill:#808080;}
</style>
<g id="Layer_2">
</g>
<g id="svg144" inkscape:version="1.0.1 (c497b03c, 2020-09-10)" sodipodi:docname="marianne.svg" xmlns:cc="http://creativecommons.org/ns#" xmlns:dc="http://purl.org/dc/elements/1.1/" xmlns:inkscape="http://www.inkscape.org/namespaces/inkscape" xmlns:rdf="http://www.w3.org/1999/02/22-rdf-syntax-ns#" xmlns:sodipodi="http://sodipodi.sourceforge.net/DTD/sodipodi-0.dtd" xmlns:svg="http://www.w3.org/2000/svg">
	<path class="st0" d="M11.3,10.2c-0.9,0.6-1.7,1.3-2.3,2.1v0c0,0,0,0,0-0.1c0.4-0.5,0.7-1,1-1.5c0.4-0.2,0.7-0.5,1-0.8
		c0.5-0.5,1-1,1.7-1.3c0.3-0.1,0.5-0.1,0.8,0c-0.1,0.1-0.2,0.1-0.4,0.2c0,0-0.1,0-0.1,0c0,0,0-0.1,0-0.1c-0.3,0.3-0.7,0.5-1,0.9
		C11.9,9.8,11.8,10.2,11.3,10.2C11.3,10.3,11.4,10.2,11.3,10.2z M12.9,14.8c0-0.1-0.1,0-0.2,0c0,0,0,0-0.1,0.1c0,0-0.1,0.1-0.1,0.1
		c-0.1,0.1-0.1,0.1-0.2,0.2c0,0,0.1,0.1,0.2,0c0,0,0.1-0.1,0.1-0.1c0,0,0,0,0,0c0.1,0,0.2-0.1,0.2-0.2
		C12.9,14.9,12.9,14.9,12.9,14.8C12.9,14.9,12.9,14.8,12.9,14.8L12.9,14.8z M11.3,10.5C11.3,10.5,11.3,10.5,11.3,10.5
		c0.1,0,0.2,0,0.2-0.1c0-0.1,0.1-0.1,0.1-0.1l0,0c0,0,0-0.1,0-0.1C11.4,10.3,11.3,10.4,11.3,10.5z M13.7,12.4
		C13.7,12.4,13.7,12.3,13.7,12.4c0.1-0.1,0.2-0.1,0.3-0.1c0.7-0.1,1.4-0.3,2.1-0.6c-0.8-0.5-1.7-0.9-2.6-1c0,0,0.1,0,0.1,0
		c-0.1-0.1-0.3-0.1-0.5-0.2c0,0,0.1,0,0.1,0c-0.2-0.1-0.5-0.1-0.7-0.2c0.1,0,0.2-0.2,0.2-0.3c0,0-0.1,0-0.1,0
		c-0.4,0.2-0.6,0.5-0.8,0.9c0.2,0.1,0.5,0,0.7,0.1C12.5,11,12.3,11,12.2,11c-0.1,0-0.2,0.1-0.2,0.2c0,0,0,0,0.1,0
		c-0.1,0-0.1,0.1-0.2,0.1c0.1,0.1,0.2,0,0.4,0c0,0.1,0.1,0.1,0.1,0.1c-0.1,0-0.2,0.1-0.3,0.3c-0.1,0.2-0.2,0.2-0.3,0.3v0.1
		c-0.3,0.2-0.6,0.5-0.9,0.8c0,0,0,0,0,0.1c-0.1,0.1-0.2,0.1-0.2,0.2c0,0,0,0.1,0,0.1c0.4-0.1,0.6-0.4,1-0.5c0.2-0.1,0.4-0.2,0.6-0.3
		c0.2,0,0.3-0.1,0.5-0.1c0,0,0,0.1,0,0.1h0.2c0,0.1-0.2,0-0.1,0.1l0,0c0.1,0.1,0.3,0.1,0.4,0C13.5,12.4,13.6,12.4,13.7,12.4z
		 M12.4,14c-0.4,0.2-0.9,0.2-1.2,0.4c0,0,0,0,0,0c0,0,0,0.1-0.1,0.1c0,0,0,0,0,0c0,0-0.1,0-0.1,0.1c-0.1,0-0.1,0.1-0.2,0.2
		c0,0,0,0,0,0c0,0,0,0-0.1,0.1c0,0,0,0.1,0.1,0c0,0,0.1-0.1,0.1-0.1c0,0,0,0,0,0c0,0-0.1,0.1-0.1,0.2c0,0,0,0,0,0c0,0,0,0,0,0v0
		c0,0,0,0,0,0l0,0v0c0,0,0,0,0,0.1c0,0,0,0,0,0l0,0v0l0,0.1c0,0,0,0,0,0.1c0,0,0,0,0,0v0c0,0-0.1,0.1-0.1,0.1c0,0,0,0,0,0
		s0,0.1-0.1,0.1c0,0,0,0,0,0l0,0l-0.1,0.1c0,0,0,0,0,0v0c0,0,0,0,0,0c0,0,0,0,0,0c0,0,0,0,0,0c0,0,0,0,0,0c0,0,0,0,0,0l0,0
		c0,0,0,0,0,0l0,0c0,0,0,0,0,0c0,0,0,0,0,0c0.1-0.1,0.1-0.1,0.2-0.2c0,0,0.1-0.1,0.1-0.1c0,0,0,0,0,0c0,0,0,0,0,0c0,0,0,0,0.1,0v0
		c0,0,0,0,0.1,0c0,0,0,0,0,0c0,0,0-0.1,0.1-0.1v0l0,0l0,0c0,0,0,0,0,0c0.1-0.1,0.2-0.2,0.3-0.2c0,0,0,0,0.1,0c0,0,0,0,0,0
		c0.1-0.1,0.3-0.1,0.4-0.2c0.1-0.1,0.2-0.2,0.3-0.2c0,0,0,0,0,0l0,0c0.2-0.2,0.5-0.3,0.8-0.5c-0.1,0-0.2-0.1-0.3-0.1
		C12.7,14.1,12.5,14,12.4,14z M30,9.7c-0.1,0.2-0.4,0.2-0.6,0.3c-0.2,0.2,0,0.4,0.1,0.5c0.1,0.3-0.2,0.5-0.4,0.5
		c0.1,0.1,0.2,0.1,0.2,0.1c0,0.2,0.2,0.2,0.1,0.4c-0.1,0.2-0.5,0.3-0.3,0.5c0.1,0.2,0.1,0.5,0,0.7c-0.1,0.2-0.3,0.4-0.5,0.5
		c-0.2,0.1-0.4,0.1-0.6,0c-0.1,0-0.1-0.1-0.2-0.1c-0.5-0.1-1-0.2-1.5-0.2c-0.1,0-0.3,0.1-0.4,0.1c-0.1,0.1-0.3,0.2-0.4,0.3l0,0
		c0,0,0,0-0.1,0.1c0,0,0,0,0,0c0,0,0,0,0,0c-0.1,0.1-0.2,0.2-0.2,0.3c0,0,0,0,0,0c0,0,0,0,0,0c-0.1,0.2-0.2,0.4-0.2,0.6
		c-0.2,0.5-0.2,1,0,1.4c0,0,1,0.3,1.7,0.6c0.2,0.1,0.5,0.2,0.7,0.4l1.7,1H13.2l1.6-1c0.6-0.4,1.3-0.7,2-1c0.5-0.2,1.1-0.5,1.5-0.9h0
		c0.2-0.2,0.3-0.4,0.5-0.5h0c0.3-0.4,0.6-0.7,1-1c0.1-0.1,0.2-0.2,0.3-0.3c0,0,0-0.1,0.1-0.1c-0.2,0.1-0.2,0.2-0.4,0.2
		c0,0-0.1,0,0-0.1c0.1-0.1,0.2-0.2,0.3-0.2h0c0,0,0,0,0-0.1c-0.4,0-0.7,0.2-1,0.5c-0.1,0-0.1,0-0.2,0c-0.5,0.2-0.8,0.5-1.2,0.7v-0.1
		c-0.2,0.1-0.4,0.2-0.5,0.2c-0.2,0-0.5,0.1-0.8,0c-0.4,0-0.7,0.1-1.1,0.2c0,0,0,0,0,0c-0.2,0.1-0.4,0.1-0.6,0.2l0,0c0,0,0,0,0,0.1
		c-0.1,0.1-0.1,0.1-0.2,0.2c-0.2,0.1-0.3,0.2-0.5,0.4c0,0,0,0,0,0c-0.2,0.2-0.3,0.3-0.5,0.5c0,0-0.1,0-0.1,0c0,0,0,0,0,0l0,0
		l0.1-0.1c0,0,0.1-0.1,0.1-0.1c0-0.1,0.1-0.1,0.1-0.2c0,0,0,0,0,0c0,0,0,0,0,0c0.2-0.1,0.3-0.3,0.5-0.4v0c0,0-0.1,0,0,0
		c0,0,0-0.1,0.1-0.1c0,0,0,0,0,0s0,0,0,0c0,0-0.1,0.1-0.1,0.1c-0.1,0.1-0.1,0.2-0.2,0.2c0,0,0,0,0,0c0,0,0,0,0,0c0,0,0,0,0,0
		c0,0,0,0,0,0c0,0,0,0,0,0c0,0,0,0,0,0c0,0,0,0,0,0c0,0,0,0,0,0c0,0,0,0,0,0c0,0,0,0,0,0c0,0,0,0,0-0.1c0,0,0,0,0,0c0,0,0,0,0-0.1
		c0,0,0,0,0,0c0,0,0,0,0,0c0.1-0.1,0.1-0.1,0.2-0.2h0c0.1-0.1,0.2-0.1,0.3-0.2c0,0,0,0,0.1,0c-0.2,0.1-0.3,0.1-0.5,0.2
		c0,0,0,0-0.1,0c0,0-0.1,0-0.1,0c0,0,0,0,0,0c0-0.1,0.1-0.1,0.2-0.2c0,0,0.1,0,0.1,0c1-0.8,2.3-0.6,3.4-1c0.1-0.1,0.2-0.1,0.3-0.2
		c0.1-0.1,0.3-0.2,0.5-0.3c0.2-0.2,0.4-0.4,0.5-0.7c0,0,0,0,0-0.1c-0.4,0.4-0.8,0.7-1.3,1c-0.6,0.2-1.3,0.4-2,0.4
		c0-0.1,0.1-0.1,0.1-0.1c0-0.1,0.1-0.1,0.1-0.2h0.1c0,0,0-0.1,0.1-0.1c0.1,0,0.2,0,0.1,0c-0.1-0.1-0.3,0.1-0.4,0
		c0.1-0.1,0-0.2,0.1-0.2h0.1c0,0,0-0.1,0.1-0.1c0.5-0.3,0.9-0.5,1.3-0.7c-0.1,0-0.1,0.1-0.2,0c0.1,0,0-0.1,0.1-0.1
		c0.3-0.1,0.6-0.3,0.9-0.4c-0.1,0-0.2,0.1-0.3,0c0.1,0,0.1-0.1,0.2-0.1v-0.1c0,0,0,0,0.1,0c0,0,0,0-0.1,0c0-0.1,0.1,0,0.2-0.1
		c0,0-0.1,0-0.1,0c0.1-0.1,0.2-0.2,0.4-0.2c0-0.1-0.1,0-0.1-0.1c0,0,0,0,0.1,0H18c-0.1,0,0-0.1,0-0.1c0.1-0.2,0.2-0.5,0.3-0.7
		c0,0-0.1,0-0.1,0c-0.3,0.3-0.8,0.5-1.2,0.6h-0.2c-0.2,0.1-0.4,0.1-0.5,0c-0.1-0.1-0.2-0.2-0.3-0.2c-0.2-0.1-0.5-0.3-0.8-0.4
		c-0.7-0.2-1.5-0.4-2.3-0.3c0.3-0.1,0.7-0.2,1.1-0.3c0.5-0.2,1-0.3,1.5-0.3c-0.1,0-0.2,0-0.3,0c-0.4,0-0.9,0.1-1.3,0.2
		c-0.3,0.1-0.6,0.2-0.9,0.2c-0.2,0.1-0.3,0.2-0.5,0.2V9.8c0.3-0.4,0.7-0.7,1.1-0.8c0.5-0.1,1.1,0,1.6,0.1c0.4,0,0.8,0.1,1.1,0.2
		c0.1,0,0.2,0.2,0.3,0.3c0.2,0.1,0.4,0,0.5,0.1c0-0.1,0-0.1,0-0.2c0.1-0.1,0.3,0,0.4,0c0.2-0.2-0.2-0.4-0.3-0.6c0,0,0,0,0-0.1
		c0.2,0.2,0.5,0.4,0.7,0.6c0.1,0.1,0.5,0.2,0.5,0c-0.2-0.3-0.4-0.6-0.7-0.9V8.3c-0.1,0-0.1,0-0.1-0.1V8.2c-0.1-0.1-0.1-0.2-0.1-0.3
		c-0.1-0.2,0-0.4-0.1-0.5c-0.1-0.2-0.1-0.3-0.1-0.5c-0.1-0.5-0.2-1-0.3-1.4c-0.1-0.6,0.3-1,0.6-1.5c0.2-0.4,0.5-0.7,0.8-1
		c0.1-0.4,0.3-0.7,0.6-1c0.3-0.3,0.6-0.5,0.9-0.6c0.3-0.1,0.5-0.2,0.8-0.3l2.5-0.4l1.8,0L26.8,1C26.9,1,27,1,27,1.1
		c0.1,0.1,0.3,0.2,0.4,0.2c0.2,0.1,0.4,0.3,0.6,0.5c0.1,0.1,0.2,0.3,0.1,0.4C28,2.3,28,2.6,27.9,2.6c-0.2,0.1-0.4,0.1-0.6,0.1
		c-0.1,0-0.2,0-0.4-0.1c0.5,0.2,0.9,0.4,1.2,0.8c0,0.1,0.2,0.1,0.3,0.1c0,0,0,0.1,0,0.1c-0.1,0.1-0.1,0.1-0.1,0.2h0.1
		c0.1-0.1,0.1-0.4,0.3-0.3c0.2,0.1,0.2,0.3,0.1,0.4c-0.1,0.1-0.2,0.2-0.4,0.3c0,0.1,0,0.1,0,0.2c0.1,0.1,0.1,0.2,0.2,0.4
		c0.1,0.2,0.1,0.5,0.2,0.7C28.9,6,29,6.4,29,6.9c0,0.2-0.1,0.5,0,0.7c0.1,0.2,0.2,0.4,0.3,0.6c0.1,0.2,0.2,0.3,0.3,0.5
		C29.8,9,30.2,9.3,30,9.7z M14.4,14.9C14.4,14.9,14.4,14.9,14.4,14.9c-0.1,0-0.1,0.1-0.1,0.1c0,0,0,0,0,0h0c0,0,0,0,0,0c0,0,0,0,0,0
		C14.3,15,14.4,15,14.4,14.9z M20.2,13.1L20.2,13.1C20.1,13.2,20.2,13.1,20.2,13.1z M13.5,12.9c0,0.1,0.1,0,0.1,0h0
		c0.2-0.1,0.5,0,0.6-0.2c-0.1-0.1-0.2,0-0.2-0.1c-0.1,0-0.2,0-0.2,0.1C13.7,12.8,13.5,12.8,13.5,12.9z"/>
	<path id="path142" class="st1" d="M27.9,6.8c0.1,0,0.3,0,0.3,0.1c-0.1,0.2-0.4,0.3-0.6,0.5h-0.1c-0.1,0.1-0.1,0.2-0.1,0.2
		c-0.1,0-0.2,0-0.3,0c0.1,0.1,0.3,0.2,0.5,0.2c0,0,0.1,0.1,0.1,0.1c0,0,0,0,0.1,0c0,0,0.1,0,0.1,0v0.1c-0.1,0.1-0.2,0.1-0.4,0.1
		c0.2,0.1,0.5,0.1,0.7,0c0.2-0.1,0-0.4,0.1-0.5c-0.1,0,0-0.1-0.1-0.1c0.1-0.1,0.1-0.2,0.2-0.2c0.1,0,0.1,0,0.2-0.1
		c0-0.1-0.1-0.1-0.1-0.2c0.2-0.1,0.3-0.3,0.3-0.5c0-0.1-0.3-0.1-0.4-0.2c-0.2,0-0.3,0-0.5,0c-0.2,0-0.3,0.1-0.5,0.1
		c-0.2,0.1-0.4,0.2-0.6,0.3c0.2-0.1,0.4-0.1,0.7-0.2C27.5,6.8,27.7,6.8,27.9,6.8"/>
</g>
</svg>
