<svg xmlns="http://www.w3.org/2000/svg" width="44" height="16" viewBox="0 0 44 16"><rect width="44" height="16" fill="#fff"/><path d="M14.271,14.066c.005,0,.011-.008.011-.008a.645.645,0,0,0,.123-.118.016.016,0,0,1-.016-.008c-.037.039-.08.087-.117.134" fill="#1f356c"/><path d="M20.181,12.084l-.093.08c.053-.013.093-.027.093-.08" fill="#1f356c"/><path d="M18.27,14.109c.171-.171.342-.353.514-.54h-.005a9.9,9.9,0,0,1,1.006-1.029,3.332,3.332,0,0,1,.327-.265c.031-.031.031-.094.062-.119-.15.057-.239.182-.394.239-.031,0-.062-.031-.031-.062.109-.078.218-.161.322-.244H20.05c-.031,0-.031-.031-.031-.062a1.223,1.223,0,0,0-.965.452c-.062.031-.119-.031-.15-.031-.451.151-.783.545-1.235.722v-.062a5.372,5.372,0,0,1-.545.213,3.105,3.105,0,0,1-.752.031,9.868,9.868,0,0,0-1.095.2c-.01.005-.021.005-.031.01a2.271,2.271,0,0,0-.56.229l-.021.01c-.016.021-.031.036-.041.052a.7.7,0,0,1-.207.182,3,3,0,0,0-.5.39.072.072,0,0,1-.047.016c-.161.156-.322.312-.488.462a.158.158,0,0,1-.093.01A.005.005,0,0,0,13.3,14.9l.016-.031.078-.125c.031-.047.057-.094.088-.14.041-.062.083-.125.13-.182a.031.031,0,0,0,0-.042.059.059,0,0,0-.041-.016,2.816,2.816,0,0,1,.508-.379v-.005c-.021.005-.052-.01-.036-.031a.728.728,0,0,0,.052-.083c.005-.01.005-.016.01-.026s-.016-.016-.021-.026a1.354,1.354,0,0,0-.14.1c-.073.062-.13.2-.239.2a.178.178,0,0,1-.047-.005.044.044,0,0,1-.031-.01c0-.005,0-.005.005-.005a.018.018,0,0,0,.005-.01.005.005,0,0,1,.005-.005c.005-.01.01-.016.016-.026s.01-.016.016-.026.005-.016.01-.021a.309.309,0,0,0,.021-.042c.005-.01.01-.016.016-.026s.026-.047.041-.068a.109.109,0,0,1,.021-.031c.01-.021.021-.036.031-.057a.033.033,0,0,0-.021-.052A.7.7,0,0,1,14,13.548h-.01c.114-.057.233-.13.348-.192a.2.2,0,0,1,.052-.042,1.868,1.868,0,0,0-.477.239.235.235,0,0,0-.052.026.08.08,0,0,1-.073-.026c-.005-.005-.005-.01-.005-.021.031-.062.119-.088.182-.151.031,0,.057,0,.057.031.965-.753,2.293-.571,3.408-.966.088-.062.182-.119.27-.182.15-.062.27-.213.451-.3a1.342,1.342,0,0,0,.514-.7.109.109,0,0,0-.031-.062,4.77,4.77,0,0,1-1.328,1,5.6,5.6,0,0,1-1.987.364c.031-.062.093-.062.15-.062,0-.094.057-.119.119-.182h.088c.031,0,.031-.062.062-.062.062,0,.15-.031.119-.031-.093-.119-.27.088-.42,0,.057-.062.031-.151.088-.182h.119a.2.2,0,0,1,.062-.119c.451-.27.877-.483,1.3-.722-.088,0-.15.094-.239.031.062,0,0-.088.062-.088.332-.088.6-.27.934-.395-.119,0-.213.094-.332,0,.062-.031.088-.088.182-.088v-.088c0-.031.031-.031.062-.031a.109.109,0,0,1-.062-.031c.031-.062.119-.031.182-.088-.031,0-.088,0-.088-.031a.6.6,0,0,1,.389-.182c-.031-.062-.119,0-.119-.062,0-.031.031-.031.062-.031h-.062c-.062-.031-.031-.094-.031-.119a2.069,2.069,0,0,0,.27-.722c-.031,0-.062,0-.062-.031a2.452,2.452,0,0,1-1.235.571h-.15a.6.6,0,0,1-.514-.031,2.421,2.421,0,0,1-.3-.239,3.721,3.721,0,0,0-.752-.364,6.78,6.78,0,0,0-2.319-.332,4.889,4.889,0,0,1,1.053-.3,4.484,4.484,0,0,1,1.535-.3.974.974,0,0,0-.3,0,4.817,4.817,0,0,0-1.3.182c-.3.062-.571.182-.877.239-.182.062-.27.239-.482.213V8.79a1.732,1.732,0,0,1,1.146-.753,5.689,5.689,0,0,1,1.6.062,7.521,7.521,0,0,1,1.146.213c.15,0,.182.239.3.27.182.062.363,0,.545.119,0-.062-.031-.119,0-.182.119-.119.27.031.389-.031.244-.151-.213-.421-.332-.634a.109.109,0,0,1,.031-.062,3.371,3.371,0,0,0,.721.6c.15.062.514.151.451-.031a4.675,4.675,0,0,0-.7-.9V7.34c-.062,0-.062-.031-.088-.062V7.158c-.119-.062-.093-.182-.15-.27-.093-.151-.031-.364-.093-.545a3.07,3.07,0,0,1-.119-.514c-.093-.514-.213-.966-.27-1.449-.062-.571.332-1.029.6-1.538a2.592,2.592,0,0,1,.846-.966,2.633,2.633,0,0,1,.571-.966,2.506,2.506,0,0,1,.929-.6,7.734,7.734,0,0,1,.8-.306H0V15.995H14.784a13.507,13.507,0,0,1,1.95-1.008,8.119,8.119,0,0,0,1.535-.878m-4.638-2.161c-.062,0-.182.031-.15-.031.031-.151.239-.151.363-.213.062-.031.15-.088.213-.062.062.088.15.062.213.119-.187.187-.425.094-.638.187m-4.612-.665a.109.109,0,0,1-.031-.062,9.23,9.23,0,0,0,.965-1.538,4.216,4.216,0,0,0,1.027-.847,5.835,5.835,0,0,1,1.686-1.33,1.131,1.131,0,0,1,.783.031c-.088.119-.239.088-.363.182a.114.114,0,0,1-.093-.031.115.115,0,0,0,.031-.094c-.3.332-.721.483-.965.878-.182.3-.3.7-.69.784-.119.031.031-.088-.031-.062a10.317,10.317,0,0,0-2.319,2.088m2.5-1.995c-.031.062-.062.068-.088.119a.243.243,0,0,1-.119.119c-.031,0-.062,0-.062-.031a.371.371,0,0,1,.239-.27c.031.005.031.036.031.062m1.4,4.525a.387.387,0,0,1-.073.088c.036.005.062.026.041.047a.651.651,0,0,1-.228.161.4.4,0,0,1-.047.005,1.084,1.084,0,0,1-.114.1c-.036.031-.2.01-.15-.036.078-.068.15-.14.223-.213.041-.042.088-.078.124-.119a.385.385,0,0,1,.062-.068c.026-.016.187-.031.161.031m-.539-.249c-.005,0-.005,0-.005.005-.114.078-.223.161-.342.229s-.265.13-.4.2a.005.005,0,0,0-.005-.005.039.039,0,0,0-.052-.01,1.335,1.335,0,0,0-.3.234.158.158,0,0,0-.041.042h0l-.041.042-.005.005v.005c-.021.021-.041.042-.067.073-.016.016-.021.031-.041.042s-.073.01-.067-.021v-.005a.242.242,0,0,1-.052.026c-.016.01-.031.016-.047.026a.044.044,0,0,0-.041,0c-.036.031-.073.057-.109.094a2.023,2.023,0,0,0-.176.187.005.005,0,0,1-.005.005c0,.005-.005.005-.005.01l-.01.01c-.005.005-.005.01-.01.01l-.005.005a.109.109,0,0,1-.021.031h0a.04.04,0,0,1-.026.01c-.005-.005-.01-.01-.01-.016s-.005-.01-.01-.016-.016-.031-.026-.047v-.005c0-.005-.005-.01-.005-.016l.093-.109.005-.005c.01-.01.021-.026.031-.036s.036-.042.052-.062.01-.016.016-.026c.031-.042.062-.083.093-.13v-.005a.027.027,0,0,0,.01-.021.433.433,0,0,0,.041-.062l.031-.062v-.005l.005-.005c0-.005.005-.005.005-.01.01-.026.021-.047.031-.073v-.005l.005-.021c.005-.01.005-.021.01-.031v-.005c.005-.016.005-.031.01-.047a.031.031,0,0,0-.005-.021.861.861,0,0,1,.119-.161c-.005,0-.01.005-.016.005-.041.026-.073.068-.114.1s-.093-.016-.052-.047a.8.8,0,0,0,.067-.062A.005.005,0,0,1,10.9,13.8a2.132,2.132,0,0,1,.156-.151c.036-.026.062-.047.093-.073.005-.005.01-.01.016-.01a.9.9,0,0,1,.067-.078.005.005,0,0,0,.005-.005c.29-.281.773-.265,1.157-.442.15-.062.332.031.482,0a.431.431,0,0,1,.27.062c-.265.14-.514.306-.763.462m.617-2.1c-.031-.031.093,0,.119-.062H12.88c-.031,0-.031-.031-.031-.062-.15.031-.332.088-.482.119-.213.062-.394.213-.633.27-.332.119-.6.395-.965.514-.031,0-.031-.031-.031-.062.031-.088.15-.119.213-.213,0-.031,0-.062-.031-.062a5.063,5.063,0,0,1,.877-.784v-.094c.088-.119.239-.182.3-.332a.541.541,0,0,1,.3-.27c-.031-.031-.088-.031-.088-.088-.119,0-.244.062-.363-.031a.432.432,0,0,1,.187-.109.106.106,0,0,1-.067-.042c-.031-.062.057-.13.15-.151a.792.792,0,0,0,.363-.119c-.213-.031-.451.062-.664-.062a1.631,1.631,0,0,1,.752-.9c.031,0,.093,0,.093.031a.3.3,0,0,1-.244.3,3.263,3.263,0,0,1,.721.182c-.031.062-.088.031-.119.031.15.088.332.031.482.151-.093.088-.182,0-.27,0A7.876,7.876,0,0,1,16.045,10.7a8.308,8.308,0,0,1-2.08.634.63.63,0,0,1-.239-.031c0,.031,0,.088-.031.088a.479.479,0,0,0-.3.062c-.124.068-.306.1-.394.01" fill="#000091"/><path d="M44,.021H26.84A.793.793,0,0,1,27,.094c.14.073.322.171.431.229a1.4,1.4,0,0,1,.576.483c.062.088.15.27.093.39-.062.151-.093.395-.244.452a1.084,1.084,0,0,1-.633.062,1.521,1.521,0,0,1-.363-.062,2.477,2.477,0,0,1,1.178.816c.031.062.15.088.27.088.031,0,.031.062.031.088-.062.062-.119.094-.088.182h.088c.15-.062.119-.364.332-.27A.337.337,0,0,1,28.79,3a2.722,2.722,0,0,1-.363.3.255.255,0,0,0,0,.213.953.953,0,0,1,.15.364c.093.213.119.452.213.665A4.41,4.41,0,0,1,29,5.906c0,.239-.119.452-.031.7a2.737,2.737,0,0,0,.332.634,5.361,5.361,0,0,1,.332.483c.182.3.514.6.363.966-.088.213-.42.182-.633.3-.182.151-.031.395.062.545.15.27-.182.452-.394.545.062.094.182.062.213.119.031.151.182.239.088.395-.119.182-.482.27-.3.545A.807.807,0,0,1,29,11.8a.741.741,0,0,1-.545.452,1.187,1.187,0,0,1-.571.031.422.422,0,0,0-.182-.062,13.114,13.114,0,0,0-1.535-.208,1.657,1.657,0,0,0-.42.119,2.435,2.435,0,0,0-.363.322l-.005.005c-.021.026-.047.047-.067.073s-.026.031-.036.047-.016.021-.026.031a3.176,3.176,0,0,0-.239.348.072.072,0,0,1-.016.021.182.182,0,0,1-.026.042,2.989,2.989,0,0,0-.228.556,1.8,1.8,0,0,0,.031,1.429c.041.042,1,.338,1.66.634a5.918,5.918,0,0,1,.711.358H43.995V.021Z" fill="#e1000f"/><path d="M27.862,5.844c.119.031.3.031.3.094-.062.239-.42.3-.6.545h-.093c-.088.062-.062.213-.15.213a.408.408,0,0,0-.27.031.515.515,0,0,0,.451.182c.031,0,.088.062.088.119A.1.1,0,0,0,27.649,7c.031,0,.062,0,.062.031v.119c-.088.119-.244.062-.363.088a1.314,1.314,0,0,0,.7,0c.182-.062,0-.364.119-.514-.062,0,0-.094-.062-.094.062-.062.119-.151.182-.182a.213.213,0,0,0,.182-.094c0-.062-.119-.088-.093-.151.182-.119.332-.3.27-.483-.031-.094-.27-.094-.42-.151a1.036,1.036,0,0,0-.514.031,2.9,2.9,0,0,0-.451.119,2.069,2.069,0,0,0-.571.3,4.751,4.751,0,0,1,.664-.182,2.425,2.425,0,0,1,.514.005" fill="gray"/></svg>