<svg width="24" height="24" viewBox="0 0 24 24" fill="none" xmlns="http://www.w3.org/2000/svg">
<path d="M4 15H14V17H4V15Z" fill="#000091"/>
<path d="M20 10L10 10V8L20 8V10Z" fill="#000091"/>
<path d="M6 6C7.65685 6 9 7.34315 9 9C9 10.6569 7.65685 12 6 12C4.34315 12 3 10.6569 3 9C3 7.34315 4.34315 6 6 6ZM6 8C5.44772 8 5 8.44772 5 9C5 9.55228 5.44772 10 6 10C6.55228 10 7 9.55228 7 9C7 8.44772 6.55228 8 6 8Z" fill="#000091"/>
<path d="M18 13C19.6569 13 21 14.3431 21 16C21 17.6569 19.6569 19 18 19C16.3431 19 15 17.6569 15 16C15 14.3431 16.3431 13 18 13ZM18 15C17.4477 15 17 15.4477 17 16C17 16.5523 17.4477 17 18 17C18.5523 17 19 16.5523 19 16C19 15.4477 18.5523 15 18 15Z" fill="#000091"/>
</svg>
