<svg width="24" height="24" viewBox="0 0 24 24" fill="none" xmlns="http://www.w3.org/2000/svg">
<path d="M21 8.54396C21 6.07268 18.99 4.05979 16.5 4.05979C14.01 4.05979 12 6.06272 12 8.54396V16.5158C12 17.891 10.88 19.007 9.5 19.007C8.12 19.007 7 17.891 7 16.5158V15.0211H10L6 10.0387L2 15.0211H5V16.5158C5 18.9971 7.01 21 9.5 21C11.99 21 14 18.9971 14 16.5158V8.54396C14 7.16882 15.12 6.05275 16.5 6.05275C17.88 6.05275 19 7.16882 19 8.54396V15.0211C19 15.5692 19.45 16.0176 20 16.0176C20.55 16.0176 21 15.5692 21 15.0211V8.54396Z" fill="#000091"/>
<path d="M6 9.9789C7.65685 9.9789 9 8.64048 9 6.98945C9 5.33842 7.65685 4 6 4C4.34315 4 3 5.33842 3 6.98945C3 8.64048 4.34315 9.9789 6 9.9789Z" fill="#000091"/>
</svg>
