<svg width="24" height="24" viewBox="0 0 24 24" fill="none" xmlns="http://www.w3.org/2000/svg">
<path d="M19.04 7.22H16.99V4.12C16.99 2.45 15.48 1 13.75 1H6.24C4.51 1 3 2.46 3 4.12V13.87C3 15.54 4.51 16.99 6.24 16.99H8.29V20.09C8.29 21.76 9.8 23.21 11.53 23.21H18.91C20.63 23.21 22.08 21.92 22.28 20.2V10.33C22.28 8.66 20.77 7.21 19.04 7.21V7.22ZM6.24 15C5.6 15 5 14.45 5 13.88V4.12C5 3.55 5.62 3 6.24 3H13.76C14.39 3 15 3.56 15 4.12V7.22H11.53C9.8 7.22 8.29 8.68 8.29 10.34V14.99H6.24V15ZM20.29 20.03C20.2 20.63 19.71 21.22 18.92 21.22H11.54C10.91 21.22 10.3 20.66 10.3 20.1V17H13.64C15.36 17 16.81 15.71 17.01 13.99V9.22H19.06C19.69 9.22 20.3 9.78 20.3 10.34V20.02L20.29 20.03Z" fill="#000091"/>
</svg>
