<svg width="24" height="24" viewBox="0 0 24 24" fill="none" xmlns="http://www.w3.org/2000/svg">
<path d="M10.9995 9H20.9995C21.5517 9 21.9995 9.44772 21.9995 10V20C21.9995 20.5523 21.5517 21 20.9995 21H10.9995C10.4472 21 9.99947 20.5523 9.99947 20V10C9.99947 9.44772 10.4472 9 10.9995 9ZM11.9995 11V19H19.9995V11H11.9995ZM5.99947 10.5858L7.8279 8.75736L9.24212 10.1716L4.99947 14.4142L0.756836 10.1716L2.17105 8.75736L3.99947 10.5858V8C3.99947 5.23858 6.23805 3 8.99947 3H12.9995V5H8.99947C7.34262 5 5.99947 6.34315 5.99947 8V10.5858Z" fill="#000091"/>
</svg>
