<svg width="24" height="24" viewBox="0 0 24 24" fill="none" xmlns="http://www.w3.org/2000/svg">
<path d="M9.37263 11.4764C11.5705 11.4764 13.5916 11.0932 15.1958 10.4419C15.7263 10.046 16.32 9.73946 16.9642 9.50958C18.0884 8.73052 18.7453 7.77267 18.7453 6.73819C18.7453 4.12005 14.5516 2 9.37263 2C4.19368 2 0 4.12005 0 6.73819C0 9.35632 4.19368 11.4764 9.37263 11.4764Z" fill="#000091"/>
<path d="M18.72 9.13921H18.7453V8.84547C18.7453 8.94764 18.7326 9.03704 18.72 9.13921Z" fill="#000091"/>
<path d="M12.7453 18.5262C11.6968 18.7305 10.56 18.8455 9.37263 18.8455C4.19368 18.8455 0 16.7254 0 14.1073V17.2618C0 19.8799 4.19368 22 9.37263 22C11.2674 22 13.0232 21.719 14.5011 21.2209C13.7179 20.4802 13.1116 19.5479 12.7453 18.5134V18.5262Z" fill="#000091"/>
<path d="M9.37263 16.7382C10.4084 16.7382 11.4063 16.6488 12.3411 16.4955C12.3411 16.3678 12.3284 16.2529 12.3284 16.1252C12.3284 15.0907 12.5558 14.1073 12.96 13.2133C11.8611 13.4432 10.6484 13.5709 9.38526 13.5709C4.20632 13.5709 0.0126316 11.4508 0.0126316 8.83269V11.9872C0.0126316 14.6054 4.20632 16.7254 9.38526 16.7254L9.37263 16.7382Z" fill="#000091"/>
<path d="M19.2632 11.3487C19.9453 11.3487 20.5011 11.9106 20.5011 12.6003V14.8863H22.7621C23.4442 14.8863 24 15.4483 24 16.1379C24 16.8276 23.4442 17.3895 22.7621 17.3895H20.5011V19.6756C20.5011 20.3653 19.9453 20.9272 19.2632 20.9272C18.5811 20.9272 18.0253 20.3653 18.0253 19.6756V17.3895H15.7642C15.0821 17.3895 14.5263 16.8276 14.5263 16.1379C14.5263 15.4483 15.0821 14.8863 15.7642 14.8863H18.0253V12.6003C18.0253 11.9106 18.5811 11.3487 19.2632 11.3487Z" fill="#000091"/>
</svg>
