<svg width="24" height="24" viewBox="0 0 24 24" fill="none" xmlns="http://www.w3.org/2000/svg">
<path d="M17.87 3C16.56 3 15.46 3.84 15.05 5.02H14C12.34 5.02 11 6.36 11 8.02V16.02C11 16.57 10.55 17.02 10 17.02H7.83C7.42 15.85 6.31 15.02 5 15.02C3.34 15.02 2 16.36 2 18.02C2 19.68 3.34 21.02 5 21.02C6.31 21.02 7.42 20.19 7.83 19.02H10C11.66 19.02 13 17.68 13 16.02V8.02C13 7.47 13.45 7.02 14 7.02H15.06C15.48 8.17 16.57 9 17.87 9C19.53 9 20.87 7.66 20.87 6C20.87 4.34 19.53 3 17.87 3Z" fill="#000091"/>
</svg>
