<svg width="24" height="24" viewBox="0 0 24 24" fill="none" xmlns="http://www.w3.org/2000/svg">
<path d="M17 12C14.51 12 12.5 9.99 12.5 7.5C12.5 5.01 14.51 3 17 3C19.49 3 21.5 5.01 21.5 7.5C21.5 9.99 19.49 12 17 12ZM17 10C18.38 10 19.5 8.88 19.5 7.5C19.5 6.12 18.38 5 17 5C15.62 5 14.5 6.12 14.5 7.5C14.5 8.88 15.62 10 17 10ZM3 8.5C3 5.74 5.24 3.5 8 3.5H11V5.5H8C6.34 5.5 5 6.84 5 8.5V11.5H3V8.5ZM21 13.5H19V16.5C19 18.16 17.66 19.5 16 19.5H13V21.5H16C18.76 21.5 21 19.26 21 16.5V13.5Z" fill="#000091"/>
<path d="M5 19.5H9V15.5H5V19.5ZM3 14.5C3 13.95 3.45 13.5 4 13.5H10C10.55 13.5 11 13.95 11 14.5V20.5C11 21.05 10.55 21.5 10 21.5H4C3.45 21.5 3 21.05 3 20.5V14.5Z" fill="#000091"/>
</svg>
