<svg width="24" height="24" viewBox="0 0 24 24" fill="none" xmlns="http://www.w3.org/2000/svg">
<path d="M18.1531 17.5564L23 22.4032L21.4032 24L16.5564 19.1531C14.7558 20.6027 12.5022 21.384 10.192 21.384C4.56376 21.384 0 16.8203 0 11.192C0 5.56376 4.56376 1 10.192 1C15.8203 1 20.384 5.56376 20.384 11.192C20.384 13.5022 19.6027 15.7445 18.1531 17.5564ZM15.8769 16.7184C17.3151 15.2349 18.1192 13.2644 18.1192 11.192C18.1192 6.80945 14.5746 3.26489 10.192 3.26489C5.80945 3.26489 2.26489 6.80945 2.26489 11.192C2.26489 15.5746 5.80945 19.1192 10.192 19.1192C12.2531 19.1192 14.2349 18.3151 15.7184 16.8769L15.8882 16.707L15.8769 16.7184Z" fill="#000091"/>
<path d="M6.79468 13.2078C6.79468 11.9508 7.72329 10.9769 9.45593 10.6937L12.1172 10.2747V9.85574C12.1172 8.88183 11.3131 8.17972 10.3845 8.17972C9.32004 8.17972 8.6519 8.59872 8.25554 9.28951L6.91925 8.31561C7.5874 7.3417 8.78779 6.63959 10.2486 6.63959C12.3776 6.63959 13.578 8.0325 13.578 9.84441V15.4161H11.9813V14.4421C11.449 15.1443 10.3845 15.6992 9.44461 15.6992C7.84786 15.6992 6.78336 14.7253 6.78336 13.1851L6.79468 13.2078ZM9.72772 14.3289C10.7922 14.3289 11.4604 13.774 11.9926 13.0719V11.679L9.86361 12.098C8.79911 12.098 8.40276 12.517 8.40276 13.2078C8.40276 13.7627 8.93501 14.3176 9.73905 14.3176L9.72772 14.3289Z" fill="#000091"/>
</svg>
