<svg width="24" height="24" viewBox="0 0 24 24" fill="none" xmlns="http://www.w3.org/2000/svg">
<g clip-path="url(#clip0_138_877)">
<path d="M21.16 13.08C20.61 13.08 20.16 12.63 20.16 12.08V10.28C20.16 9.75999 19.76 9.35999 19.22 9.35999H17.28C16.73 9.35999 16.28 8.90999 16.28 8.35999C16.28 7.80999 16.73 7.35999 17.28 7.35999H19.22C20.87 7.35999 22.16 8.63999 22.16 10.28V12.08C22.16 12.63 21.71 13.08 21.16 13.08Z" fill="#000091"/>
<path d="M9.78003 13.2C9.23003 13.2 8.78003 12.75 8.78003 12.2V10.28C8.78003 8.64999 10.07 7.35999 11.72 7.35999H13.54C14.09 7.35999 14.54 7.80999 14.54 8.35999C14.54 8.90999 14.09 9.35999 13.54 9.35999H11.72C11.19 9.35999 10.78 9.74999 10.78 10.28V12.2C10.78 12.75 10.33 13.2 9.78003 13.2Z" fill="#000091"/>
<path d="M13.65 20.75H11.71C10.06 20.75 8.77002 19.47 8.77002 17.83V15.91C8.77002 15.36 9.22002 14.91 9.77002 14.91C10.32 14.91 10.77 15.36 10.77 15.91V17.83C10.77 18.35 11.17 18.75 11.71 18.75H13.65C14.2 18.75 14.65 19.2 14.65 19.75C14.65 20.3 14.2 20.75 13.65 20.75Z" fill="#000091"/>
<path d="M23.0001 17.75H21.1601V15.91C21.1601 15.36 20.7101 14.91 20.1601 14.91C19.6101 14.91 19.1601 15.36 19.1601 15.91V17.75H17.3201C16.7701 17.75 16.3201 18.2 16.3201 18.75C16.3201 19.3 16.7701 19.75 17.3201 19.75H19.1601V21.59C19.1601 22.14 19.6101 22.59 20.1601 22.59C20.7101 22.59 21.1601 22.14 21.1601 21.59V19.75H23.0001C23.5501 19.75 24.0001 19.3 24.0001 18.75C24.0001 18.2 23.5501 17.75 23.0001 17.75Z" fill="#000091"/>
<path d="M6.14 15.38C4.44 15.38 3 14.14 3 12.67V4.71C3 3.24 4.44 2 6.14 2H13.24C14.94 2 16.38 3.24 16.38 4.71C16.38 5.26 15.93 5.71 15.38 5.71C14.83 5.71 14.38 5.26 14.38 4.71C14.38 4.43 13.87 4 13.24 4H6.14C5.51 4 5 4.43 5 4.71V12.67C5 12.95 5.51 13.38 6.14 13.38C6.69 13.38 7.14 13.83 7.14 14.38C7.14 14.93 6.69 15.38 6.14 15.38Z" fill="#000091"/>
</g>
<defs>
<clipPath id="clip0_138_877">
<rect width="24" height="24" fill="white"/>
</clipPath>
</defs>
</svg>
