<svg width="24" height="24" viewBox="0 0 24 24" fill="none" xmlns="http://www.w3.org/2000/svg">
<path d="M9 4L9 14L7 14L7 4L9 4Z" fill="#000091"/>
<path d="M14 20L14 10L16 10L16 20L14 20Z" fill="#000091"/>
<path d="M18 6C18 7.65685 16.6569 9 15 9C13.3431 9 12 7.65685 12 6C12 4.34315 13.3431 3 15 3C16.6569 3 18 4.34315 18 6ZM16 6C16 5.44772 15.5523 5 15 5C14.4477 5 14 5.44772 14 6C14 6.55228 14.4477 7 15 7C15.5523 7 16 6.55228 16 6Z" fill="#000091"/>
<path d="M11 18C11 19.6569 9.65685 21 8 21C6.34314 21 5 19.6569 5 18C5 16.3431 6.34315 15 8 15C9.65685 15 11 16.3431 11 18ZM9 18C9 17.4477 8.55228 17 8 17C7.44772 17 7 17.4477 7 18C7 18.5523 7.44772 19 8 19C8.55228 19 9 18.5523 9 18Z" fill="#000091"/>
</svg>
