<svg width="24" height="24" viewBox="0 0 24 24" fill="none" xmlns="http://www.w3.org/2000/svg">
<path fill-rule="evenodd" clip-rule="evenodd" d="M20 10.82V16.19H20.01C21.17 16.61 22.01 17.71 22.01 19.01C22.01 20.67 20.67 22.01 19.01 22.01C17.7 22.01 16.6 21.17 16.19 20.01H7.82C7.4 21.17 6.3 22.01 5 22.01C3.34 22.01 2 20.67 2 19.01C2 17.68 2.87 16.56 4.08 16.17L4.63 7.75C3.58 7.28 2.85 6.23 2.85 5.01C2.85 3.35 4.19 2.01 5.84 2C7.38 2 8.64 3.17 8.81 4.66L16.47 6.4C17 5.56 17.93 5 19 5C20.66 5 22 6.34 22 8C22 9.31 21.16 10.41 20 10.82ZM16 13C16 15.2091 14.2091 17 12 17C9.79086 17 8 15.2091 8 13C8 10.7909 9.79086 9 12 9C14.2091 9 16 10.7909 16 13Z" fill="#000091"/>
</svg>
