<svg width="24" height="24" viewBox="0 0 24 24" fill="none" xmlns="http://www.w3.org/2000/svg">
<path d="M12.17 14.0025C12.3766 13.4169 12.7597 12.9099 13.2666 12.5512C13.7735 12.1926 14.3791 12 15 12C15.6209 12 16.2265 12.1926 16.7334 12.5512C17.2403 12.9099 17.6234 13.4169 17.83 14.0025H22V16.0025H17.83C17.6234 16.588 17.2403 17.095 16.7334 17.4537C16.2265 17.8123 15.6209 18.0049 15 18.0049C14.3791 18.0049 13.7735 17.8123 13.2666 17.4537C12.7597 17.095 12.3766 16.588 12.17 16.0025H2V14.0025H12.17ZM6.17 7.00245C6.3766 6.41692 6.75974 5.90988 7.2666 5.55124C7.77346 5.1926 8.37909 5 9 5C9.62091 5 10.2265 5.1926 10.7334 5.55124C11.2403 5.90988 11.6234 6.41692 11.83 7.00245H22V9.00245H11.83C11.6234 9.58798 11.2403 10.095 10.7334 10.4537C10.2265 10.8123 9.62091 11.0049 9 11.0049C8.37909 11.0049 7.77346 10.8123 7.2666 10.4537C6.75974 10.095 6.3766 9.58798 6.17 9.00245H2V7.00245H6.17Z" fill="#000091"/>
</svg>
