<svg width="24" height="24" viewBox="0 0 24 24" fill="none" xmlns="http://www.w3.org/2000/svg">
<path d="M12.5007 2C12.2246 2 12.0007 2.22386 12.0007 2.5V12H10.0007V4.5C10.0007 4.22386 9.77683 4 9.50069 4C9.22454 4 9.00069 4.22386 9.00069 4.5V14C8.64702 14 7.00073 14 7.00073 14C6.6196 12.3792 5.64285 11.4407 4.59589 11.3216C4.87975 12.0664 5.36166 13.2592 6.16683 15.0995C7.0256 17.0622 7.89177 18.5218 9.00423 19.4986C10.0788 20.442 11.4591 21 13.5007 21C16.5383 21 19.0007 18.5377 19.0007 15.5002V7C19.0007 6.72386 18.7768 6.5 18.5007 6.5C18.2246 6.5 18.0007 6.72386 18.0007 7V12H16.0007V4C16.0007 3.72386 15.7768 3.5 15.5007 3.5C15.2246 3.5 15.0007 3.72386 15.0007 4V12H13.0007V2.5C13.0007 2.22386 12.7768 2 12.5007 2ZM21.0007 15.5002C21.0007 19.6424 17.6428 23 13.5007 23C11.0422 23 9.17263 22.308 7.68465 21.0015C6.2346 19.7283 5.22577 17.9381 4.33454 15.9012C3.40442 13.7753 2.89053 12.4804 2.6104 11.7235C2.25367 10.7597 2.74665 9.41212 4.08632 9.31846C5.24125 9.23771 6.2211 9.61249 7.00069 10.2587V4.5C7.00069 3.11929 8.11998 2 9.50069 2C9.68571 2 9.86603 2.0201 10.0396 2.05823C10.2482 0.888227 11.2707 0 12.5007 0C13.5607 0 14.4666 0.659694 14.8303 1.59091C15.0436 1.53167 15.2685 1.5 15.5007 1.5C16.8814 1.5 18.0007 2.61929 18.0007 4V4.55001C18.1623 4.51722 18.3295 4.5 18.5007 4.5C19.8814 4.5 21.0007 5.61929 21.0007 7V15.5002Z" fill="#000091"/>
</svg>
