<svg width="24" height="24" viewBox="0 0 24 24" fill="none" xmlns="http://www.w3.org/2000/svg">
<path d="M13.2 14.62C12.81 15.01 12.81 15.64 13.2 16.03C13.4 16.23 13.65 16.32 13.91 16.32C14.17 16.32 14.42 16.22 14.62 16.03L17.62 13.03C18.01 12.64 18.01 12.01 17.62 11.62C17.23 11.23 16.6 11.23 16.21 11.62L13.21 14.62H13.2Z" fill="#000091"/>
<path d="M15.07 7.49L9.07 13.49C8.68 13.88 8.68 14.51 9.07 14.9C9.27 15.1 9.52 15.19 9.78 15.19C10.04 15.19 10.29 15.09 10.49 14.9L16.49 8.9C16.88 8.51 16.88 7.88 16.49 7.49C16.1 7.1 15.47 7.1 15.08 7.49H15.07Z" fill="#000091"/>
<path d="M10.94 6.37L7.94 9.37C7.55 9.76 7.55 10.39 7.94 10.78C8.14 10.98 8.39 11.07 8.65 11.07C8.91 11.07 9.16 10.97 9.36 10.78L12.36 7.78C12.75 7.39 12.75 6.76 12.36 6.37C11.97 5.98 11.34 5.98 10.95 6.37H10.94Z" fill="#000091"/>
<path d="M16.74 2H11.53C10.98 2 10.53 2.45 10.53 3C10.53 3.55 10.98 4 11.53 4H16.74C18.4 4 19.74 5.34 19.74 7V12H19.76C19.8 12.51 20.22 12.92 20.74 12.92C21.26 12.92 21.68 12.51 21.72 12H21.74V7C21.74 4.24 19.5 2 16.74 2Z" fill="#000091"/>
<path d="M18.03 15.19L16.62 16.6L18.01 17.99H8.74C7.08 17.99 5.74 16.65 5.74 14.99V5.86L7 7.12L8.41 5.71L4.7 2L3.99 2.71L1 5.71L2.41 7.12L3.73 5.8V15C3.73 17.76 5.97 20 8.73 20H17.8L16.61 21.19L18.02 22.6L21.73 18.89L18.02 15.18L18.03 15.19ZM4.71 4.83L4.88 5H4.54L4.71 4.83ZM18.74 19.07V18.73L18.91 18.9L18.74 19.07Z" fill="#000091"/>
</svg>
