<svg width="24" height="24" viewBox="0 0 24 24" fill="none" xmlns="http://www.w3.org/2000/svg">
<path d="M17.22 8.37C17.75 8.37 18.16 8.76 18.16 9.29V11.09C18.16 11.64 18.61 12.09 19.16 12.09C19.71 12.09 20.16 11.64 20.16 11.09V9.29C20.16 7.66 18.87 6.37 17.22 6.37H15.28C14.73 6.37 14.28 6.82 14.28 7.37C14.28 7.92 14.73 8.37 15.28 8.37H17.22Z" fill="#000091"/>
<path d="M7.78003 12.2C8.33003 12.2 8.78003 11.75 8.78003 11.2V9.28C8.78003 8.76 9.18003 8.36 9.72003 8.36H11.54C12.09 8.36 12.54 7.91 12.54 7.36C12.54 6.81 12.09 6.36 11.54 6.36H9.72003C8.07003 6.36 6.78003 7.64 6.78003 9.28V11.2C6.78003 11.75 7.23003 12.2 7.78003 12.2Z" fill="#000091"/>
<path d="M11.65 17.75H9.71002C9.18002 17.75 8.77002 17.36 8.77002 16.83V14.91C8.77002 14.36 8.32002 13.91 7.77002 13.91C7.22002 13.91 6.77002 14.36 6.77002 14.91V16.83C6.77002 18.46 8.06002 19.75 9.71002 19.75H11.65C12.2 19.75 12.65 19.3 12.65 18.75C12.65 18.2 12.2 17.75 11.65 17.75Z" fill="#000091"/>
<path d="M11.24 1H4.14C2.44 1 1 2.24 1 3.71V11.67C1 13.14 2.44 14.38 4.14 14.38C4.69 14.38 5.14 13.93 5.14 13.38C5.14 12.83 4.69 12.38 4.14 12.38C3.51 12.38 3 11.95 3 11.67V3.71C3 3.43 3.51 3 4.14 3H11.24C11.87 3 12.38 3.43 12.38 3.71C12.38 4.26 12.83 4.71 13.38 4.71C13.93 4.71 14.38 4.26 14.38 3.71C14.38 2.24 12.94 1 11.24 1Z" fill="#000091"/>
<path d="M17 20.09H15V22.59H17V20.09Z" fill="#000091"/>
<path d="M23 20.09H21V22.59H23V20.09Z" fill="#000091"/>
<path d="M19 13.59C16.79 13.59 15 15.38 15 17.59V19.59H17V17.59C17 16.49 17.9 15.59 19 15.59C20.1 15.59 21 16.49 21 17.59V19.59H23V17.59C23 15.38 21.21 13.59 19 13.59Z" fill="#000091"/>
</svg>
