<svg width="24" height="24" viewBox="0 0 24 24" fill="none" xmlns="http://www.w3.org/2000/svg">
<path d="M20 16.19V10.82C21.16 10.41 22 9.31 22 8C22 6.34 20.66 5 19 5C17.93 5 17 5.56 16.47 6.4L8.81 4.66C8.64 3.17 7.38 2 5.84 2C4.19 2.01 2.85 3.35 2.85 5.01C2.85 6.23 3.58 7.28 4.63 7.75L4.08 16.17C2.87 16.56 2 17.68 2 19.01C2 20.67 3.34 22.01 5 22.01C6.3 22.01 7.4 21.17 7.82 20.01H16.19C16.6 21.17 17.7 22.01 19.01 22.01C20.67 22.01 22.01 20.67 22.01 19.01C22.01 17.71 21.17 16.61 20.01 16.19H20ZM16.18 18.01H7.82C7.53 17.19 6.9 16.54 6.09 16.22L6.63 7.9C7.36 7.7 7.98 7.24 8.38 6.62L16.04 8.36C16.18 9.51 16.95 10.45 18 10.83V16.2C17.15 16.5 16.49 17.17 16.18 18.02V18.01ZM19 7.01C19.55 7.01 20 7.46 20 8.01C20 8.56 19.55 9.01 19 9.01C18.45 9.01 18 8.56 18 8.01C18 7.46 18.45 7.01 19 7.01ZM5.85 4.01C6.4 4.01 6.85 4.46 6.85 5.01C6.85 5.56 6.4 6.01 5.85 6.01C5.3 6.01 4.85 5.56 4.85 5.01C4.85 4.46 5.3 4.01 5.85 4.01ZM5 20.01C4.45 20.01 4 19.56 4 19.01C4 18.46 4.45 18.01 5 18.01C5.55 18.01 6 18.46 6 19.01C6 19.56 5.55 20.01 5 20.01ZM19 20.01C18.45 20.01 18 19.56 18 19.01C18 18.46 18.45 18.01 19 18.01C19.55 18.01 20 18.46 20 19.01C20 19.56 19.55 20.01 19 20.01Z" fill="#000091"/>
<path d="M12 10C13.6569 10 15 11.3431 15 13C15 14.6569 13.6569 16 12 16C10.3431 16 9 14.6569 9 13C9 11.3431 10.3431 10 12 10Z" stroke="#000091" stroke-width="2"/>
</svg>
