<svg width="24" height="24" viewBox="0 0 24 24" fill="none" xmlns="http://www.w3.org/2000/svg">
<path d="M4 5.77V18.59L9.07 16.42L15.07 19.42L20.01 17.3V4.49L21.31 3.93C21.39 3.9 21.47 3.88 21.55 3.89C21.63 3.89 21.71 3.93 21.78 3.97C21.85 4.01 21.91 4.08 21.94 4.15C21.98 4.22 22 4.3 22 4.39V18.63L15 21.63L9 18.63L2.7 21.33C2.62 21.36 2.54 21.38 2.46 21.37C2.38 21.37 2.3 21.33 2.23 21.29C2.16 21.24 2.1 21.18 2.07 21.11C2.02 21.04 2 20.96 2 20.87V6.63L4 5.77Z" fill="#000091"/>
<path d="M15.44 10.05C16.06 9.19 16.4 8.14 16.4 7.08C16.4 4.28 14.12 2 11.32 2C8.52 2 6.24 4.28 6.24 7.08C6.24 9.88 8.52 12.16 11.32 12.16C12.38 12.16 13.43 11.82 14.29 11.2L16.6 13.51L17.74 12.37L15.43 10.06L15.44 10.05Z" fill="#000091"/>
</svg>
