<svg width="20" height="24" viewBox="0 0 20 24" fill="none" xmlns="http://www.w3.org/2000/svg">
<path d="M16.114 16.4176L9.75 22.9073L3.386 16.4176C2.12734 15.1341 1.27019 13.4987 0.922928 11.7184C0.57567 9.93808 0.753907 8.09274 1.4351 6.41572C2.11629 4.7387 3.26984 3.30532 4.74988 2.29686C6.22992 1.28839 7.96998 0.750122 9.75 0.750122C11.53 0.750122 13.2701 1.28839 14.7501 2.29686C16.2302 3.30532 17.3837 4.7387 18.0649 6.41572C18.7461 8.09274 18.9243 9.93808 18.5771 11.7184C18.2298 13.4987 17.3727 15.1341 16.114 16.4176ZM9.75 11.9674C10.2804 11.9674 10.7891 11.7525 11.1642 11.37C11.5393 10.9875 11.75 10.4688 11.75 9.92786C11.75 9.38695 11.5393 8.86819 11.1642 8.48571C10.7891 8.10322 10.2804 7.88835 9.75 7.88835C9.21957 7.88835 8.71086 8.10322 8.33579 8.48571C7.96072 8.86819 7.75 9.38695 7.75 9.92786C7.75 10.4688 7.96072 10.9875 8.33579 11.37C8.71086 11.7525 9.21957 11.9674 9.75 11.9674Z" fill="#000091"/>
<path d="M9.75028 24L2.85778 16.9713C1.49278 15.5793 0.570279 13.8126 0.187779 11.8776C-0.187221 9.95029 0.000278711 7.96176 0.742779 6.13384C1.48528 4.31358 2.72278 2.76864 4.33528 1.67495C5.94028 0.581262 7.81528 0 9.75028 0C11.6853 0 13.5603 0.581262 15.1653 1.67495C16.7778 2.76864 18.0153 4.31358 18.7578 6.13384C19.5003 7.96176 19.6878 9.94264 19.3128 11.8776C18.9378 13.8126 18.0153 15.5717 16.6428 16.9713L9.75028 24ZM9.75028 1.52964C8.11528 1.52964 6.52528 2.01912 5.16778 2.94455C3.80278 3.86998 2.75278 5.17782 2.13028 6.72275C1.50778 8.26769 1.34278 9.94264 1.65778 11.587C1.98028 13.2237 2.76028 14.7151 3.91528 15.8929L9.75028 21.8432L15.5853 15.8929C16.7403 14.7151 17.5203 13.2237 17.8428 11.587C18.1653 9.95029 18.0003 8.26769 17.3703 6.72275C16.7478 5.17782 15.6903 3.87763 14.3328 2.94455C12.9753 2.01912 11.3853 1.52964 9.75028 1.52964ZM9.75028 12.7495C9.01528 12.7495 8.32528 12.4589 7.80778 11.9312C7.29028 11.4034 7.00528 10.6922 7.00528 9.95029C7.00528 9.20841 7.29028 8.49713 7.80778 7.96941C8.84278 6.91396 10.6578 6.90631 11.6928 7.96941C12.2103 8.49713 12.4953 9.20076 12.4953 9.95029C12.4953 10.6998 12.2103 11.4034 11.6928 11.9312C11.1753 12.4589 10.4853 12.7495 9.75028 12.7495ZM9.75028 8.66539C9.41278 8.66539 9.10528 8.79541 8.86528 9.04015C8.63278 9.28489 8.49778 9.59847 8.49778 9.94264C8.49778 10.2868 8.62528 10.6004 8.86528 10.8451C9.33778 11.327 10.1628 11.327 10.6353 10.8451C10.8678 10.6004 11.0028 10.2868 11.0028 9.94264C11.0028 9.59847 10.8753 9.28489 10.6353 9.04015C10.3953 8.79541 10.0878 8.66539 9.75028 8.66539Z" fill="white"/>
</svg>
