<svg width="24" height="24" viewBox="0 0 24 24" fill="none" xmlns="http://www.w3.org/2000/svg">
<path fill-rule="evenodd" clip-rule="evenodd" d="M12 2C6.48 2 2 6.48 2 12C2 17.52 6.48 22 12 22C17.52 22 22 17.52 22 12C22 6.48 17.52 2 12 2ZM12 20C7.58 20 4 16.42 4 12C4 7.58 7.58 4 12 4C16.42 4 20 7.58 20 12C20 16.42 16.42 20 12 20Z" fill="#000091"/>
<path fill-rule="evenodd" clip-rule="evenodd" d="M12 10.83C11.36 10.83 10.83 11.36 10.83 12C10.83 12.64 11.36 13.17 12 13.17C12.64 13.17 13.17 12.64 13.17 12C13.17 11.36 12.65 10.83 12 10.83Z" fill="#000091"/>
<path fill-rule="evenodd" clip-rule="evenodd" d="M7.81 10.83C7.17 10.83 6.64 11.36 6.64 12C6.64 12.64 7.17 13.17 7.81 13.17C8.45 13.17 8.98 12.64 8.98 12C8.98 11.36 8.46 10.83 7.81 10.83Z" fill="#000091"/>
<path fill-rule="evenodd" clip-rule="evenodd" d="M16.19 10.83C15.55 10.83 15.02 11.36 15.02 12C15.02 12.64 15.55 13.17 16.19 13.17C16.83 13.17 17.36 12.64 17.36 12C17.36 11.36 16.84 10.83 16.19 10.83Z" fill="#000091"/>
</svg>
