<svg width="24" height="24" viewBox="0 0 24 24" fill="none" xmlns="http://www.w3.org/2000/svg">
<path d="M16.2041 6.02156L13.0241 2.84157C10.5441 0.351565 6.45407 0.391565 3.92407 2.93156C1.39407 5.47156 1.35407 9.55157 3.83407 12.0316L7.01407 15.2116C7.15407 15.3516 7.33407 15.4216 7.51407 15.4216C7.69407 15.4216 7.87407 15.3516 8.01407 15.2116L9.42407 13.8016C9.69407 13.5316 9.69407 13.0816 9.42407 12.8116L6.24407 9.63157C5.06407 8.45157 5.08407 6.51157 6.29407 5.30157C6.87407 4.72157 7.65407 4.39157 8.47407 4.38157C9.28407 4.35157 10.0541 4.68157 10.6241 5.25156L13.8041 8.43156C14.0741 8.70156 14.5241 8.70156 14.7941 8.43156L16.2041 7.01157C16.4741 6.74157 16.4741 6.29156 16.2041 6.02156Z" fill="#000091"/>
<path d="M11.3641 14.7516C11.1041 14.4916 10.6341 14.4916 10.3741 14.7516L8.96407 16.1616C8.83407 16.2916 8.75407 16.4716 8.75407 16.6616C8.75407 16.8516 8.82407 17.0216 8.96407 17.1616L10.3441 18.5416C10.4741 18.6716 10.6541 18.7516 10.8341 18.7516C11.0141 18.7516 11.1941 18.6816 11.3341 18.5416L12.7441 17.1316C13.0141 16.8616 13.0141 16.4116 12.7441 16.1416L11.3641 14.7616V14.7516Z" fill="#000091"/>
<path d="M15.5441 9.87156C15.5441 10.0616 15.6141 10.2316 15.7541 10.3716L17.1341 11.7516C17.2641 11.8816 17.4441 11.9616 17.6241 11.9616C17.8041 11.9616 17.9841 11.8916 18.1241 11.7516L19.5441 10.3416C19.6741 10.2116 19.7541 10.0316 19.7541 9.84157C19.7541 9.65157 19.6841 9.48157 19.5441 9.34157L18.1641 7.96157C17.9041 7.70156 17.4341 7.70156 17.1741 7.96157L15.7641 9.37156C15.6341 9.50156 15.5541 9.68157 15.5541 9.87156H15.5441Z" fill="#000091"/>
<path d="M20.1441 13.6716L18.2641 15.5416L14.9441 12.2216L16.3841 20.8916L18.2641 19.0116L21.5841 22.3416L20.1441 13.6716Z" fill="#000091"/>
</svg>
