<svg width="24" height="24" viewBox="0 0 24 24" fill="none" xmlns="http://www.w3.org/2000/svg">
<path d="M13.1368 19.4185C12.0126 19.7125 10.7368 19.8914 9.37263 19.8914C7.16211 19.8914 5.11579 19.4569 3.67579 18.7284C2.56421 18.1661 2.08421 17.5911 2.08421 17.2588V14.9712C3.80211 16.0447 6.42947 16.7348 9.37263 16.7348C10.4084 16.7348 11.4063 16.6454 12.3411 16.492C12.3411 16.377 12.3284 16.2492 12.3284 16.1342C12.3284 15.508 12.4168 14.8946 12.5684 14.3195C11.5832 14.524 10.5095 14.639 9.37263 14.639C7.16211 14.639 5.11579 14.2045 3.67579 13.476C2.56421 12.9137 2.08421 12.3387 2.08421 12.0064V9.71885C3.80211 10.7923 6.42947 11.4824 9.37263 11.4824C11.5705 11.4824 13.5916 11.099 15.1832 10.4601C16.1937 9.71885 17.4189 9.23323 18.7453 9.14377V6.74121C18.7453 4.12141 14.5516 2 9.37263 2C4.19368 2 0 4.10863 0 6.72843V17.2588C0 19.8786 4.19368 22 9.37263 22C11.2674 22 13.0232 21.7188 14.5011 21.2204C13.9579 20.6965 13.4905 20.0958 13.1368 19.4185ZM3.67579 5.25879C5.11579 4.53035 7.16211 4.09585 9.37263 4.09585C11.5832 4.09585 13.6295 4.53035 15.0695 5.25879C16.1811 5.82109 16.6611 6.39617 16.6611 6.72843C16.6611 7.0607 16.1811 7.63578 15.0695 8.19808C13.6295 8.92652 11.5832 9.36102 9.37263 9.36102C7.16211 9.36102 5.11579 8.92652 3.67579 8.19808C2.56421 7.63578 2.08421 7.0607 2.08421 6.72843C2.08421 6.39617 2.56421 5.82109 3.67579 5.25879Z" fill="#000091"/>
<path d="M19.2632 11.3419C19.9453 11.3419 20.5011 11.9042 20.5011 12.5942V14.8818H22.7621C23.4442 14.8818 24 15.4441 24 16.1342C24 16.8243 23.4442 17.3866 22.7621 17.3866H20.5011V19.6741C20.5011 20.3642 19.9453 20.9265 19.2632 20.9265C18.5811 20.9265 18.0253 20.3642 18.0253 19.6741V17.3866H15.7642C15.0821 17.3866 14.5263 16.8243 14.5263 16.1342C14.5263 15.4441 15.0821 14.8818 15.7642 14.8818H18.0253V12.5942C18.0253 11.9042 18.5811 11.3419 19.2632 11.3419Z" fill="#000091"/>
</svg>
