<svg width="24" height="24" viewBox="0 0 24 24" fill="none" xmlns="http://www.w3.org/2000/svg">
<path d="M12 2H10V4H12V2Z" fill="#000091"/>
<path d="M16 2H14V4H16V2Z" fill="#000091"/>
<path d="M4 14H2V16H4V14Z" fill="#000091"/>
<path d="M8 2H6V4H8V2Z" fill="#000091"/>
<path d="M4 10H2V12H4V10Z" fill="#000091"/>
<path d="M4 2H2V4H4V2Z" fill="#000091"/>
<path d="M4 6H2V8H4V6Z" fill="#000091"/>
<path d="M12.37 17.41C12.37 14.1 15.06 11.41 18.37 11.41C19.74 11.41 20.99 11.87 22 12.64V9C22 8.45 21.55 8 21 8H16V6H14V8H9C8.45 8 8 8.45 8 9V14H6V16H8V21C8 21.55 8.45 22 9 22H14.51C13.2 20.9 12.37 19.25 12.37 17.41Z" fill="#000091"/>
<path d="M22.25 17.2L21.53 16.88C20.52 16.43 19.71 15.6 19.28 14.55L19.03 13.94C18.85 13.51 18.27 13.51 18.09 13.94L17.84 14.55C17.41 15.59 16.6 16.43 15.59 16.88L14.87 17.2C14.46 17.38 14.46 17.98 14.87 18.16L15.63 18.5C16.62 18.94 17.41 19.74 17.85 20.75L18.1 21.32C18.28 21.73 18.85 21.73 19.03 21.32L19.28 20.75C19.72 19.74 20.51 18.94 21.5 18.5L22.26 18.16C22.67 17.98 22.67 17.38 22.26 17.2H22.25Z" fill="#000091"/>
</svg>
