<svg width="24" height="24" viewBox="0 0 24 24" fill="none" xmlns="http://www.w3.org/2000/svg">
<path d="M8.39143 13.2078C8.39143 13.7627 8.92368 14.3176 9.72772 14.3176C10.7922 14.3176 11.4604 13.7627 11.9926 13.0606V11.6677L9.86361 12.0867C8.79911 12.0867 8.40276 12.5057 8.40276 13.1965L8.39143 13.2078Z" fill="#000091"/>
<path d="M18.1531 17.5564C19.6027 15.7558 20.384 13.5135 20.384 11.192C20.384 5.56376 15.8203 1 10.192 1C4.56376 1 0 5.56376 0 11.192C0 16.8203 4.56376 21.384 10.192 21.384C12.5022 21.384 14.7445 20.6027 16.5564 19.1531L21.4032 24L23 22.4032L18.1531 17.5564ZM13.5894 15.4387H11.9926V14.4648C11.4604 15.1669 10.3959 15.7218 9.45593 15.7218C7.85918 15.7218 6.79468 14.7479 6.79468 13.2078C6.79468 11.9508 7.72329 10.9769 9.45593 10.6937L12.1172 10.2747V9.85574C12.1172 8.88183 11.3131 8.17971 10.3845 8.17971C9.32004 8.17971 8.6519 8.59872 8.25554 9.28951L6.91925 8.31561C7.5874 7.3417 8.78779 6.63959 10.2486 6.63959C12.3776 6.63959 13.578 8.0325 13.578 9.84441V15.416L13.5894 15.4387Z" fill="#000091"/>
</svg>
