<svg width="24" height="24" viewBox="0 0 24 24" fill="none" xmlns="http://www.w3.org/2000/svg">
<path d="M18.1531 17.5564L23 22.4032L21.4032 24L16.5564 19.1531C14.7558 20.6027 12.5022 21.384 10.192 21.384C4.56376 21.384 0 16.8203 0 11.192C0 5.56376 4.56376 1 10.192 1C15.8203 1 20.384 5.56376 20.384 11.192C20.384 13.5022 19.6027 15.7445 18.1531 17.5564ZM15.8769 16.7184C17.3151 15.2349 18.1192 13.2644 18.1192 11.192C18.1192 6.80945 14.5746 3.26489 10.192 3.26489C5.80945 3.26489 2.26489 6.80945 2.26489 11.192C2.26489 15.5746 5.80945 19.1192 10.192 19.1192C12.2531 19.1192 14.2349 18.3151 15.7184 16.8769L15.8882 16.707L15.8769 16.7184Z" fill="#000091"/>
<path d="M14.1556 9.93501H11.449V5.14476L6.22846 12.449H8.93501V17.2393L14.1556 9.93501Z" fill="#000091"/>
</svg>
