<svg width="24" height="24" viewBox="0 0 24 24" fill="none" xmlns="http://www.w3.org/2000/svg">
<path d="M4 14H2V16H4V14Z" fill="#000091"/>
<path d="M4 10H2V12H4V10Z" fill="#000091"/>
<path d="M12 2H10V4H12V2Z" fill="#000091"/>
<path d="M16 2H14V4H16V2Z" fill="#000091"/>
<path d="M8 2H6V4H8V2Z" fill="#000091"/>
<path d="M10 10H20V12.78H22V9C22 8.45 21.55 8 21 8H16V6H14V8H9C8.45 8 8 8.45 8 9V14H6V16H8V21C8 21.55 8.45 22 9 22H14V20H10V10Z" fill="#000091"/>
<path d="M4 2H2V4H4V2Z" fill="#000091"/>
<path d="M4 6H2V8H4V6Z" fill="#000091"/>
<path d="M19.37 16.59V13.59H17.37V16.59H14.37V18.59H17.37V21.59H19.37V18.59H22.37V16.59H19.37Z" fill="#000091"/>
</svg>
