<svg width="24" height="24" viewBox="0 0 24 24" fill="none" xmlns="http://www.w3.org/2000/svg">
<path fill-rule="evenodd" clip-rule="evenodd" d="M12 22C6.48 22 2 17.52 2 12C2 6.48 6.48 2 12 2C17.52 2 22 6.48 22 12C22 17.52 17.52 22 12 22Z" fill="#000091"/>
<path d="M12 10.58C11.22 10.58 10.58 11.21 10.58 12C10.58 12.79 11.21 13.42 12 13.42C12.79 13.42 13.42 12.78 13.42 12C13.42 11.22 12.78 10.58 12 10.58Z" fill="white"/>
<path d="M7.73 10.58C6.95 10.58 6.31 11.21 6.31 12C6.31 12.79 6.95 13.42 7.73 13.42C8.51 13.42 9.15 12.78 9.15 12C9.15 11.22 8.52 10.58 7.73 10.58Z" fill="white"/>
<path d="M16.27 10.58C15.49 10.58 14.85 11.21 14.85 12C14.85 12.79 15.49 13.42 16.27 13.42C17.05 13.42 17.69 12.78 17.69 12C17.69 11.22 17.05 10.58 16.27 10.58Z" fill="white"/>
</svg>
