<svg width="24" height="24" viewBox="0 0 24 24" fill="none" xmlns="http://www.w3.org/2000/svg">
<path d="M17.2391 12.7981C16.899 12.7981 16.6227 12.6599 16.4208 12.373C16.2083 12.0967 16.102 11.6929 16.102 11.1615C16.102 10.5877 16.1977 10.0563 16.3889 9.54623C16.5802 9.03613 16.8459 8.5898 17.1753 8.18597C17.5048 7.78215 17.8767 7.48459 18.2806 7.26142C18.6844 7.03826 19.1095 6.93199 19.5345 6.93199C19.7471 6.93199 19.949 6.96387 20.1509 7.017C20.3422 7.07014 20.5122 7.14453 20.6504 7.22954L21.203 6.98512H21.4793L20.7354 11.1403C20.6716 11.5547 20.7354 11.7566 20.9479 11.7566C21.0755 11.7566 21.203 11.6823 21.3518 11.5441C21.5005 11.406 21.6493 11.1722 21.7981 10.8533L22 10.9277C21.5324 12.1711 20.9479 12.7981 20.2253 12.7981C19.8746 12.7981 19.6089 12.6706 19.4495 12.4261C19.2901 12.1817 19.237 11.8204 19.3114 11.3634H19.2901C18.9394 11.8417 18.61 12.203 18.2912 12.4368C17.9724 12.6812 17.6217 12.7981 17.2391 12.7981ZM17.5367 10.5452C17.5367 10.9596 17.5792 11.2678 17.6642 11.4591C17.7492 11.661 17.9086 11.7566 18.1318 11.7566C18.3549 11.7566 18.5887 11.6504 18.8119 11.4378C19.0351 11.2253 19.237 10.9915 19.4176 10.7258L19.9277 7.86716C19.8215 7.73964 19.7046 7.63337 19.577 7.55898C19.4495 7.48459 19.3007 7.45271 19.1307 7.45271C18.8119 7.45271 18.525 7.60149 18.2912 7.88842C18.0468 8.18597 17.8661 8.55792 17.7386 9.03613C17.6111 9.51435 17.5367 10.0032 17.5367 10.5345V10.5452Z" fill="#000091"/>
<path d="M20.0765 16.4963H15.3475C15.2625 13.7651 14.051 11.3103 12.17 9.58874L16.8353 4.25399L15.4006 3L10.6397 8.45165C9.16259 7.55898 7.44102 7.02763 5.59192 7.02763H4.63549V8.92986H5.59192C6.96281 8.92986 8.24867 9.28055 9.37513 9.89692L6.39958 13.3082C6.14453 13.2444 5.86823 13.2125 5.59192 13.2125C3.60468 13.2125 2 14.8278 2 16.8045C2 18.7811 3.6153 20.3964 5.59192 20.3964C6.99469 20.3964 8.20616 19.5781 8.79065 18.3985H20.0765V16.4963ZM10.916 11.0234C12.4038 12.3943 13.3603 14.339 13.4453 16.4963H9.15197C9.07758 15.6142 8.69501 14.8278 8.09989 14.2434L10.916 11.0234ZM5.5813 18.4942C4.64612 18.4942 3.8916 17.7396 3.8916 16.8045C3.8916 15.8693 4.64612 15.1148 5.5813 15.1148C6.51647 15.1148 7.27099 15.8693 7.27099 16.8045C7.27099 17.7396 6.51647 18.4942 5.5813 18.4942Z" fill="#000091"/>
</svg>
