<svg width="24" height="24" viewBox="0 0 24 24" fill="none" xmlns="http://www.w3.org/2000/svg">
<path d="M11 18.43C11 18.21 11.01 18 11.03 17.78L10 17.26V4.74L14 6.74V12.69C14.6 12.27 15.28 11.94 16 11.72V6.75L20 5.04V11.73C20.72 11.95 21.4 12.27 22 12.7V2.76C22 2.69 21.99 2.63 21.96 2.56C21.85 2.31 21.56 2.19 21.3 2.3L15 5L9 2L2 5V21.24C2 21.31 2.01 21.37 2.04 21.44C2.15 21.69 2.44 21.81 2.7 21.7L9 19L11.21 20.11C11.08 19.57 11 19.01 11 18.43ZM8 17.25L4 18.96V6.32L8 4.61V17.26V17.25Z" fill="#000091"/>
<path d="M21.83 17.79L15.45 13.27C15.23 13.12 14.93 13.27 14.93 13.57L15.67 21.36C15.67 21.66 16.11 21.73 16.26 21.51L17.45 19.43L18.64 21.51C18.79 21.81 19.16 21.95 19.46 21.95C19.61 21.95 19.76 21.88 19.9 21.8C20.34 21.5 20.49 20.98 20.27 20.54L19.08 18.46H21.53C21.9 18.39 22.05 18.02 21.83 17.79Z" fill="#000091"/>
</svg>
