<svg xmlns="http://www.w3.org/2000/svg" width="24" height="24" viewBox="0 0 24 24"><path fill="currentColor" fill-rule="evenodd" d="M17.88 19.3A11 11 0 0 1 1.18 12c.43-2.33 1.6-4.46 3.34-6.07L1.4 2.81l1.42-1.42 19.8 19.8-1.42 1.42-3.3-3.31zM5.93 7.35A8.97 8.97 0 0 0 3.23 12a9 9 0 0 0 13.2 5.84L14.4 15.8a4.5 4.5 0 0 1-6.21-6.2L5.93 7.34zm6.98 6.98l-3.24-3.24a2.5 2.5 0 0 0 3.24 3.24zm7.9 2.26l-1.43-1.43a8.93 8.93 0 0 0 1.4-3.16A9 9 0 0 0 9.55 5.34L7.97 3.76A10.99 10.99 0 0 1 22.82 12c-.3 1.67-1 3.24-2.01 4.6zm-9.09-9.08a4.5 4.5 0 0 1 4.77 4.77L11.72 7.5z"/></svg>
