<svg xmlns="http://www.w3.org/2000/svg" viewBox="0 0 24 24" width="24" height="24"><path d="M10 3h4a8 8 0 0 1 0 16v3.5c-5-2-12-5-12-11.5a8 8 0 0 1 8-8Zm2 14h2a6 6 0 0 0 0-12h-4a6 6 0 0 0-6 6c0 3.61 2.462 5.966 8 8.48V17Z"/><path d="M11.143 14.4a.2.2 0 0 0 .17-.305L9.61 11.318a.8.8 0 0 1 0-.836l1.704-2.777a.2.2 0 0 0-.17-.305H9.626a.8.8 0 0 0-.68.377l-1.682 2.7a.8.8 0 0 0 0 .846l1.683 2.7a.8.8 0 0 0 .679.377h1.517Zm4.5 0a.2.2 0 0 0 .17-.305l-1.704-2.777a.8.8 0 0 1 0-.836l1.704-2.777a.2.2 0 0 0-.17-.305h-1.517a.8.8 0 0 0-.68.377l-1.682 2.7a.8.8 0 0 0 0 .846l1.683 2.7a.8.8 0 0 0 .679.377h1.517Z"/></svg>