<?xml version="1.0" encoding="UTF-8"?>
<svg width="144px" height="24px" viewBox="0 0 144 24" version="1.1" xmlns="http://www.w3.org/2000/svg" xmlns:xlink="http://www.w3.org/1999/xlink">
    <title>logo_parcoursup_long</title>
    <g id="header-V2" stroke="none" stroke-width="1" fill="none" fill-rule="evenodd">
        <g id="Header-A" transform="translate(-267.000000, -2763.000000)" fill-rule="nonzero">
            <g id="décli-cas" transform="translate(-1.000000, 1996.000000)">
                <g id="2" transform="translate(1.000000, 680.000000)">
                    <g id="logo_parcoursup_long" transform="translate(267.000000, 87.000000)">
                        <g id="d2eoa-link" transform="translate(18.400000, 0.000000)" fill="#3D566E">
                            <path d="M5.6,2.93333333 C3.68,2.93333333 3.4,4.49777778 3.4,6.57066667 C3.4,8.64355556 3.64,10.208 5.6,10.208 C7.56,10.208 7.8,8.64355556 7.8,6.57066667 C7.8,4.49777778 7.56,2.93333333 5.6,2.93333333 Z M9.72,11.8897778 C9,12.5937778 7.84,13.024 6.56,13.024 C5.24,13.024 4.28,12.672 3.44,11.7724444 L3.44,17.5217778 L0.2,17.5217778 L0.2,0.234666667 L3.32,0.234666667 L3.32,1.408 C4.2,0.430222222 5.2,0.0782222222 6.56,0.0782222222 C7.84,0.0782222222 9,0.508444444 9.72,1.21244444 C11,2.464 11.04,4.65422222 11.04,6.53155556 C11.04,8.448 11,10.6382222 9.72,11.8897778 Z" id="d2eoa"></path>
                        </g>
                        <g id="d2eob-link" transform="translate(32.000000, 0.000000)" fill="#3D566E">
                            <path d="M7.16444444,7.72 L4.69925926,7.72 C3.58222222,7.72 2.96592593,8.28 2.96592593,9.2 C2.96592593,10.08 3.5437037,10.68 4.7762963,10.68 C5.6237037,10.68 6.20148148,10.6 6.74074074,10.04 C7.08740741,9.72 7.20296296,9.2 7.20296296,8.4 L7.20296296,7.72 L7.16444444,7.72 Z M7.24148148,13.16 L7.24148148,12.04 C6.39407407,12.92 5.6237037,13.28 4.19851852,13.28 C2.77333333,13.28 1.77185185,12.92 1.00148148,12.12 C0.346666667,11.44 5.6221694e-13,10.4 5.6221694e-13,9.24 C5.6221694e-13,7.16 1.34814815,5.48 4.27555556,5.48 L7.20296296,5.48 L7.20296296,4.84 C7.20296296,3.44 6.54814815,2.8 4.89185185,2.8 C3.69777778,2.8 3.15851852,3.08 2.5037037,3.88 L0.500740741,1.88 C1.73333333,0.48 2.92740741,0.08 5.00740741,0.08 C8.51259259,0.08 10.322963,1.6 10.322963,4.64 L10.322963,13.16 L7.24148148,13.16 L7.24148148,13.16 Z" id="d2eob"></path>
                        </g>
                        <g id="d2eoc-link" transform="translate(45.600000, 0.800000)" fill="#3D566E">
                            <path d="M7.2,3.64606061 C6.72,3.18060606 6.28,2.90909091 5.48,2.90909091 C4.48,2.90909091 3.4,3.64606061 3.4,5.23636364 L3.4,12.8 L0.16,12.8 L0.16,0.232727273 L3.32,0.232727273 L3.32,1.43515152 C3.96,0.698181818 5.2,0.0775757576 6.56,0.0775757576 C7.84,0.0775757576 8.72,0.387878788 9.6,1.24121212 L7.2,3.64606061 Z" id="d2eoc"></path>
                        </g>
                        <g id="d2eod-link" transform="translate(55.200000, 0.000000)" fill="#3D566E">
                            <path d="M5.84,13.32 C3.24,13.32 0.04,11.92 0.04,6.68 C0.04,1.44 3.24,0.08 5.84,0.08 C7.64,0.08 8.96,0.64 10.12,1.8 L7.92,4 C7.24,3.28 6.68,3 5.84,3 C5.08,3 4.48,3.28 4,3.84 C3.52,4.48 3.28,5.32 3.28,6.68 C3.28,8.04 3.52,8.96 4,9.56 C4.48,10.12 5.08,10.4 5.84,10.4 C6.68,10.4 7.24,10.12 7.92,9.4 L10.12,11.56 C8.96,12.76 7.64,13.32 5.84,13.32 Z" id="d2eod"></path>
                        </g>
                        <g id="d2eoe-link" transform="translate(67.200000, 0.000000)" fill="#3D566E">
                            <path d="M7,3.56 C6.64,3.2 6.12,3 5.48,3 C4.84,3 4.36,3.2 4,3.56 C3.32,4.24 3.24,5.36 3.24,6.68 C3.24,8.04 3.32,9.16 4,9.84 C4.36,10.2 4.84,10.4 5.48,10.4 C6.12,10.4 6.64,10.2 7,9.84 C7.68,9.16 7.76,8.04 7.76,6.68 C7.76,5.36 7.68,4.24 7,3.56 Z M9.52,11.72 C8.72,12.56 7.4,13.32 5.48,13.32 C3.56,13.32 2.28,12.56 1.48,11.72 C0.32,10.52 5.32907052e-15,9.04 5.32907052e-15,6.68 C5.32907052e-15,4.36 0.28,2.88 1.48,1.68 C2.28,0.84 3.56,0.08 5.48,0.08 C7.4,0.08 8.72,0.84 9.52,1.68 C10.68,2.88 11,4.36 11,6.68 C10.96,9.04 10.68,10.52 9.52,11.72 Z" id="d2eoe"></path>
                        </g>
                        <g id="d2eof-link" transform="translate(80.800000, 0.000000)" fill="#3D566E">
                            <path d="M7.88,13.16 L7.88,11.96 C7.04,12.84 5.84,13.32 4.64,13.32 C3.36,13.32 2.32,12.88 1.6,12.16 C0.56,11.12 0.28,9.92 0.28,8.48 L0.28,0.24 L3.52,0.24 L3.52,8.08 C3.52,9.84 4.64,10.44 5.64,10.44 C6.64,10.44 7.8,9.84 7.8,8.08 L7.8,0.24 L11.04,0.24 L11.04,13.16 L7.88,13.16 Z" id="d2eof"></path>
                        </g>
                        <g id="d2eog-link" transform="translate(95.200000, 0.800000)" fill="#3D566E">
                            <path d="M7.0272,3.64606061 C6.5664,3.18060606 6.144,2.90909091 5.376,2.90909091 C4.416,2.90909091 3.3792,3.64606061 3.3792,5.23636364 L3.3792,12.8 L0.2688,12.8 L0.2688,0.232727273 L3.3024,0.232727273 L3.3024,1.43515152 C3.9168,0.698181818 5.1072,0.0775757576 6.4128,0.0775757576 C7.6416,0.0775757576 8.4864,0.387878788 9.3312,1.24121212 L7.0272,3.64606061 Z" id="d2eog"></path>
                        </g>
                        <g id="d2eoh-link" transform="translate(119.200000, 0.000000)" fill="#FF3333">
                            <path d="M7.31851852,13.16 L7.31851852,11.96 C6.50962963,12.84 5.35407407,13.32 4.19851852,13.32 C2.96592593,13.32 1.96444444,12.88 1.27111111,12.16 C0.26962963,11.12 6.50146603e-13,9.92 6.50146603e-13,8.48 L6.50146603e-13,0.24 L3.12,0.24 L3.12,8.08 C3.12,9.84 4.19851852,10.44 5.16148148,10.44 C6.12444444,10.44 7.24148148,9.84 7.24148148,8.08 L7.24148148,0.24 L10.3614815,0.24 L10.3614815,13.16 L7.31851852,13.16 Z" id="d2eoh"></path>
                        </g>
                        <g id="d2eoi-link" transform="translate(132.800000, 0.000000)" fill="#FF3333">
                            <path d="M5.4,2.93333333 C3.48,2.93333333 3.2,4.49777778 3.2,6.57066667 C3.2,8.64355556 3.44,10.208 5.4,10.208 C7.36,10.208 7.6,8.64355556 7.6,6.57066667 C7.6,4.49777778 7.36,2.93333333 5.4,2.93333333 Z M9.52,11.8897778 C8.8,12.5937778 7.64,13.024 6.36,13.024 C5.04,13.024 4.08,12.672 3.24,11.7724444 L3.24,17.5217778 L7.28306304e-14,17.5217778 L7.28306304e-14,0.234666667 L3.12,0.234666667 L3.12,1.408 C4,0.430222222 5,0.0782222222 6.36,0.0782222222 C7.64,0.0782222222 8.8,0.508444444 9.52,1.21244444 C10.8,2.464 10.84,4.65422222 10.84,6.53155556 C10.84,8.448 10.8,10.6382222 9.52,11.8897778 Z" id="d2eoi"></path>
                        </g>
                        <g id="Group" transform="translate(29.600000, 16.800000)" fill="#3D566E">
                            <g id="d2eoj-link" transform="translate(0.000000, 0.426667)">
                                <polygon id="d2eoj" points="6.26609875e-13 4.52266667 6.26609875e-13 0.256 2.54389937 0.256 2.54389937 0.853333333 0.596226415 0.853333333 0.596226415 2.09066667 2.22591195 2.09066667 2.22591195 2.64533333 0.596226415 2.64533333 0.596226415 3.92533333 2.54389937 3.92533333 2.54389937 4.52266667 6.26609875e-13 4.52266667"></polygon>
                            </g>
                            <g id="d2eok-link" transform="translate(3.179874, 1.706667)">
                                <path d="M1.90792453,3.24266667 L1.90792453,1.408 C1.90792453,0.938666667 1.66943396,0.725333333 1.35144654,0.725333333 C1.03345912,0.725333333 0.755220126,0.938666667 0.755220126,1.408 L0.755220126,3.24266667 L0.198742138,3.24266667 L0.198742138,0.213333333 L0.755220126,0.213333333 L0.755220126,0.512 C0.953962264,0.298666667 1.23220126,0.170666667 1.51044025,0.170666667 C1.78867925,0.170666667 2.02716981,0.256 2.22591195,0.426666667 C2.42465409,0.64 2.50415094,0.938666667 2.50415094,1.28 L2.50415094,3.2 L1.90792453,3.2 L1.90792453,3.24266667 Z" id="d2eok"></path>
                            </g>
                            <g id="d2eol-link" transform="translate(5.962264, 0.853333)">
                                <path d="M1.4309434,4.096 C0.914213836,4.096 0.67572327,3.66933333 0.67572327,3.24266667 L0.67572327,1.57866667 L0.357735849,1.57866667 L0.357735849,1.10933333 L0.67572327,1.10933333 L0.67572327,0.170666667 L1.23220126,0.170666667 L1.23220126,1.10933333 L1.78867925,1.10933333 L1.78867925,1.57866667 L1.23220126,1.57866667 L1.23220126,3.2 C1.23220126,3.41333333 1.35144654,3.54133333 1.55018868,3.54133333 L1.78867925,3.54133333 L1.78867925,4.05333333 L1.4309434,4.05333333 L1.4309434,4.096 Z" id="d2eol"></path>
                            </g>
                            <g id="d2eom-link" transform="translate(8.347170, 1.706667)">
                                <path d="M1.74893082,0.938666667 C1.62968553,0.810666667 1.51044025,0.725333333 1.31169811,0.725333333 C0.993710692,0.725333333 0.755220126,0.981333333 0.755220126,1.408 L0.755220126,3.24266667 L0.198742138,3.24266667 L0.198742138,0.213333333 L0.755220126,0.213333333 L0.755220126,0.554666667 C0.914213836,0.341333333 1.19245283,0.170666667 1.51044025,0.170666667 C1.78867925,0.170666667 1.98742138,0.256 2.18616352,0.469333333 L1.74893082,0.938666667 Z" id="d2eom"></path>
                            </g>
                            <g id="d2eon-link" transform="translate(10.334591, 1.706667)">
                                <path d="M2.10666667,1.06666667 C2.02716981,0.853333333 1.82842767,0.682666667 1.55018868,0.682666667 C1.27194969,0.682666667 1.07320755,0.853333333 0.993710692,1.06666667 C0.953962264,1.19466667 0.914213836,1.28 0.914213836,1.49333333 L2.18616352,1.49333333 C2.18616352,1.28 2.18616352,1.19466667 2.10666667,1.06666667 L2.10666667,1.06666667 Z M0.914213836,1.92 C0.914213836,2.432 1.1527044,2.77333333 1.62968553,2.77333333 C1.94767296,2.77333333 2.10666667,2.688 2.30540881,2.47466667 L2.66314465,2.85866667 C2.38490566,3.15733333 2.10666667,3.328 1.58993711,3.328 C0.874465409,3.328 0.317987421,2.944 0.317987421,1.792 C0.317987421,0.810666667 0.794968553,0.256 1.51044025,0.256 C2.26566038,0.256 2.70289308,0.853333333 2.70289308,1.70666667 L2.70289308,1.96266667 L0.914213836,1.96266667 L0.914213836,1.92 Z" id="d2eon"></path>
                            </g>
                            <g id="d2eoo-link" transform="translate(13.514465, 1.706667)">
                                <polygon id="d2eoo" points="0.158993711 3.24266667 0.158993711 2.77333333 1.55018868 0.768 0.238490566 0.768 0.238490566 0.213333333 2.26566038 0.213333333 2.26566038 0.682666667 0.834716981 2.688 2.26566038 2.688 2.26566038 3.24266667"></polygon>
                            </g>
                            <g id="d2eop-link" transform="translate(17.489308, 0.426667)">
                                <path d="M1.51044025,2.00533333 C0.993710692,2.00533333 0.914213836,2.47466667 0.914213836,3.02933333 C0.914213836,3.584 0.993710692,4.05333333 1.51044025,4.05333333 C2.02716981,4.05333333 2.10666667,3.584 2.10666667,3.02933333 C2.10666667,2.47466667 1.98742138,2.00533333 1.51044025,2.00533333 Z M2.10666667,4.52266667 L2.10666667,4.18133333 C1.90792453,4.43733333 1.66943396,4.52266667 1.35144654,4.52266667 C1.07320755,4.52266667 0.834716981,4.43733333 0.67572327,4.26666667 C0.397484277,3.968 0.357735849,3.456 0.357735849,2.98666667 C0.357735849,2.51733333 0.397484277,2.00533333 0.67572327,1.70666667 C0.834716981,1.536 1.07320755,1.45066667 1.35144654,1.45066667 C1.66943396,1.45066667 1.8681761,1.536 2.10666667,1.792 L2.10666667,0.256 L2.66314465,0.256 L2.66314465,4.52266667 L2.10666667,4.52266667 L2.10666667,4.52266667 Z" id="d2eop"></path>
                            </g>
                            <g id="d2eoq-link" transform="translate(20.669182, 1.706667)">
                                <path d="M1.94767296,1.92 L1.27194969,1.92 C0.953962264,1.92 0.755220126,2.09066667 0.755220126,2.34666667 C0.755220126,2.60266667 0.914213836,2.77333333 1.27194969,2.77333333 C1.47069182,2.77333333 1.66943396,2.77333333 1.78867925,2.60266667 C1.8681761,2.51733333 1.90792453,2.38933333 1.90792453,2.13333333 L1.90792453,1.92 L1.94767296,1.92 Z M1.94767296,3.24266667 L1.94767296,2.98666667 C1.74893082,3.2 1.55018868,3.28533333 1.19245283,3.28533333 C0.834716981,3.28533333 0.596226415,3.2 0.437232704,3.02933333 C0.278238994,2.85866667 0.198742138,2.64533333 0.198742138,2.38933333 C0.198742138,1.87733333 0.51672956,1.536 1.19245283,1.536 L1.94767296,1.536 L1.94767296,1.28 C1.94767296,0.896 1.78867925,0.725333333 1.31169811,0.725333333 C0.993710692,0.725333333 0.834716981,0.810666667 0.67572327,1.024 L0.317987421,0.64 C0.596226415,0.298666667 0.874465409,0.213333333 1.31169811,0.213333333 C2.06691824,0.213333333 2.46440252,0.554666667 2.46440252,1.23733333 L2.46440252,3.24266667 L1.94767296,3.24266667 L1.94767296,3.24266667 Z" id="d2eoq"></path>
                            </g>
                            <g id="d2eor-link" transform="translate(23.849057, 1.706667)">
                                <path d="M1.94767296,3.24266667 L1.94767296,1.408 C1.94767296,0.938666667 1.70918239,0.725333333 1.39119497,0.725333333 C1.07320755,0.725333333 0.794968553,0.938666667 0.794968553,1.408 L0.794968553,3.24266667 L0.238490566,3.24266667 L0.238490566,0.213333333 L0.794968553,0.213333333 L0.794968553,0.512 C0.993710692,0.298666667 1.27194969,0.170666667 1.55018868,0.170666667 C1.82842767,0.170666667 2.06691824,0.256 2.26566038,0.426666667 C2.46440252,0.64 2.54389937,0.938666667 2.54389937,1.28 L2.54389937,3.2 L1.94767296,3.2 L1.94767296,3.24266667 Z" id="d2eor"></path>
                            </g>
                            <g id="d2eos-link" transform="translate(27.028931, 1.706667)">
                                <path d="M1.19245283,3.28533333 C0.715471698,3.28533333 0.357735849,3.2 -1.87738713e-12,2.85866667 L0.357735849,2.47466667 C0.596226415,2.73066667 0.874465409,2.77333333 1.1527044,2.77333333 C1.51044025,2.77333333 1.78867925,2.64533333 1.78867925,2.34666667 C1.78867925,2.13333333 1.66943396,2.00533333 1.39119497,2.00533333 L0.953962264,1.96266667 C0.437232704,1.92 0.119245283,1.664 0.119245283,1.10933333 C0.119245283,0.512 0.596226415,0.170666667 1.19245283,0.170666667 C1.62968553,0.170666667 1.98742138,0.256 2.22591195,0.512 L1.8681761,0.896 C1.70918239,0.725333333 1.4309434,0.682666667 1.1527044,0.682666667 C0.794968553,0.682666667 0.635974843,0.853333333 0.635974843,1.06666667 C0.635974843,1.23733333 0.715471698,1.36533333 1.03345912,1.408 L1.47069182,1.45066667 C1.98742138,1.49333333 2.30540881,1.74933333 2.30540881,2.304 C2.38490566,2.944 1.8681761,3.28533333 1.19245283,3.28533333 L1.19245283,3.28533333 Z" id="d2eos"></path>
                            </g>
                            <g id="d2eot-link" transform="translate(31.401258, 0.426667)">
                                <path d="M0.874465409,4.52266667 C0.317987421,4.52266667 0.119245283,4.13866667 0.119245283,3.66933333 L0.119245283,0.256 L0.67572327,0.256 L0.67572327,3.62666667 C0.67572327,3.84 0.755220126,3.968 0.993710692,3.968 L1.23220126,3.968 L1.23220126,4.48 L0.874465409,4.48 L0.874465409,4.52266667 Z" id="d2eot"></path>
                            </g>
                            <g id="d2eou-link" transform="translate(32.593711, 0.426667)">
                                <polygon id="d2eou" points="0.357735849 1.45066667 0.357735849 0.298666667 0.993710692 0.298666667 0.993710692 0.938666667"></polygon>
                            </g>
                            <g id="d2eov-link" transform="translate(34.183648, 1.706667)">
                                <path d="M1.94767296,1.06666667 C1.8681761,0.853333333 1.66943396,0.682666667 1.39119497,0.682666667 C1.11295597,0.682666667 0.914213836,0.853333333 0.834716981,1.06666667 C0.794968553,1.19466667 0.755220126,1.28 0.755220126,1.49333333 L2.02716981,1.49333333 C2.02716981,1.28 2.02716981,1.19466667 1.94767296,1.06666667 Z M0.755220126,1.92 C0.755220126,2.432 0.993710692,2.77333333 1.47069182,2.77333333 C1.78867925,2.77333333 1.94767296,2.688 2.14641509,2.47466667 L2.50415094,2.85866667 C2.22591195,3.15733333 1.94767296,3.328 1.4309434,3.328 C0.715471698,3.328 0.158993711,2.944 0.158993711,1.792 C0.158993711,0.810666667 0.635974843,0.256 1.35144654,0.256 C2.10666667,0.256 2.54389937,0.853333333 2.54389937,1.70666667 L2.54389937,1.96266667 L0.755220126,1.96266667 L0.755220126,1.92 Z" id="d2eov"></path>
                            </g>
                            <g id="d2eow-link" transform="translate(37.363522, 1.706667)">
                                <path d="M1.94767296,3.24266667 L1.94767296,1.408 C1.94767296,0.938666667 1.70918239,0.725333333 1.39119497,0.725333333 C1.07320755,0.725333333 0.794968553,0.938666667 0.794968553,1.408 L0.794968553,3.24266667 L0.238490566,3.24266667 L0.238490566,0.213333333 L0.794968553,0.213333333 L0.794968553,0.512 C0.993710692,0.298666667 1.27194969,0.170666667 1.55018868,0.170666667 C1.82842767,0.170666667 2.06691824,0.256 2.26566038,0.426666667 C2.46440252,0.64 2.54389937,0.938666667 2.54389937,1.28 L2.54389937,3.2 L1.94767296,3.2 L1.94767296,3.24266667 Z" id="d2eow"></path>
                            </g>
                            <g id="d2eox-link" transform="translate(40.543396, 1.706667)">
                                <path d="M1.19245283,3.28533333 C0.715471698,3.28533333 0.357735849,3.2 -9.06830167e-13,2.85866667 L0.357735849,2.47466667 C0.596226415,2.73066667 0.874465409,2.77333333 1.1527044,2.77333333 C1.51044025,2.77333333 1.78867925,2.64533333 1.78867925,2.34666667 C1.78867925,2.13333333 1.66943396,2.00533333 1.39119497,2.00533333 L0.953962264,1.96266667 C0.437232704,1.92 0.119245283,1.664 0.119245283,1.10933333 C0.119245283,0.512 0.596226415,0.170666667 1.19245283,0.170666667 C1.62968553,0.170666667 1.98742138,0.256 2.22591195,0.512 L1.8681761,0.896 C1.70918239,0.725333333 1.4309434,0.682666667 1.1527044,0.682666667 C0.794968553,0.682666667 0.635974843,0.853333333 0.635974843,1.06666667 C0.635974843,1.23733333 0.715471698,1.36533333 1.03345912,1.408 L1.47069182,1.45066667 C1.98742138,1.49333333 2.30540881,1.74933333 2.30540881,2.304 C2.34515723,2.944 1.8681761,3.28533333 1.19245283,3.28533333 L1.19245283,3.28533333 Z" id="d2eox"></path>
                            </g>
                            <g id="d2eoy-link" transform="translate(43.325786, 1.706667)">
                                <path d="M1.90792453,1.06666667 C1.82842767,0.853333333 1.62968553,0.682666667 1.35144654,0.682666667 C1.07320755,0.682666667 0.874465409,0.853333333 0.794968553,1.06666667 C0.755220126,1.19466667 0.715471698,1.28 0.715471698,1.49333333 L1.98742138,1.49333333 C1.98742138,1.28 1.98742138,1.19466667 1.90792453,1.06666667 Z M0.715471698,1.92 C0.715471698,2.432 0.953962264,2.77333333 1.4309434,2.77333333 C1.74893082,2.77333333 1.90792453,2.688 2.10666667,2.47466667 L2.46440252,2.85866667 C2.18616352,3.15733333 1.90792453,3.328 1.39119497,3.328 C0.67572327,3.328 0.119245283,2.944 0.119245283,1.792 C0.119245283,0.810666667 0.596226415,0.256 1.31169811,0.256 C2.06691824,0.256 2.50415094,0.853333333 2.50415094,1.70666667 L2.50415094,1.96266667 L0.715471698,1.96266667 L0.715471698,1.92 Z" id="d2eoy"></path>
                            </g>
                            <g id="d2eoz-link" transform="translate(46.505660, 0.426667)">
                                <path d="M0.228558928,4.52266667 L0.228558928,1.49333333 L1.20247197,1.49333333 L1.20247197,4.52266667 L0.228558928,4.52266667 Z M0.158993711,0.896 L0.158993711,0.256 L1.20247197,0.256 L1.20247197,0.896 L0.158993711,0.896 Z" id="d2eoz"></path>
                            </g>
                            <g id="d2eoA-link" transform="translate(48.095597, 1.706667)">
                                <path d="M1.1527044,0.725333333 C0.635974843,0.725333333 0.556477987,1.19466667 0.556477987,1.664 C0.556477987,2.13333333 0.635974843,2.60266667 1.1527044,2.60266667 C1.66943396,2.60266667 1.70918239,2.13333333 1.70918239,1.664 C1.70918239,1.19466667 1.62968553,0.725333333 1.1527044,0.725333333 Z M1.07320755,4.48 C0.635974843,4.48 0.357735849,4.352 0.0794968553,4.096 L0.437232704,3.712 C0.596226415,3.88266667 0.755220126,3.968 1.03345912,3.968 C1.51044025,3.968 1.70918239,3.584 1.70918239,3.2 L1.70918239,2.816 C1.51044025,3.072 1.27194969,3.15733333 0.993710692,3.15733333 C0.715471698,3.15733333 0.476981132,3.072 0.317987421,2.90133333 C0.0397484277,2.60266667 -5.69100322e-13,2.176 -5.69100322e-13,1.664 C-5.69100322e-13,1.152 0.0397484277,0.725333333 0.317987421,0.426666667 C0.476981132,0.256 0.715471698,0.170666667 0.993710692,0.170666667 C1.31169811,0.170666667 1.51044025,0.256 1.74893082,0.512 L1.74893082,0.170666667 L2.30540881,0.170666667 L2.30540881,3.2 C2.26566038,3.968 1.82842767,4.48 1.07320755,4.48 L1.07320755,4.48 Z" id="d2eoA"></path>
                            </g>
                            <g id="d2eoB-link" transform="translate(51.275472, 1.706667)">
                                <path d="M1.78867925,3.24266667 L1.78867925,1.408 C1.78867925,0.938666667 1.55018868,0.725333333 1.23220126,0.725333333 C0.914213836,0.725333333 0.635974843,0.938666667 0.635974843,1.408 L0.635974843,3.24266667 L0.0794968553,3.24266667 L0.0794968553,0.213333333 L0.635974843,0.213333333 L0.635974843,0.512 C0.834716981,0.298666667 1.11295597,0.170666667 1.39119497,0.170666667 C1.66943396,0.170666667 1.90792453,0.256 2.10666667,0.426666667 C2.30540881,0.64 2.38490566,0.938666667 2.38490566,1.28 L2.38490566,3.2 L1.78867925,3.2 L1.78867925,3.24266667 Z" id="d2eoB"></path>
                            </g>
                            <g id="d2eoC-link" transform="translate(54.057862, 1.706667)">
                                <path d="M2.10666667,1.06666667 C2.02716981,0.853333333 1.82842767,0.682666667 1.55018868,0.682666667 C1.27194969,0.682666667 1.07320755,0.853333333 0.993710692,1.06666667 C0.953962264,1.19466667 0.914213836,1.28 0.914213836,1.49333333 L2.18616352,1.49333333 C2.18616352,1.28 2.14641509,1.19466667 2.10666667,1.06666667 Z M0.914213836,1.92 C0.914213836,2.432 1.1527044,2.77333333 1.62968553,2.77333333 C1.94767296,2.77333333 2.10666667,2.688 2.30540881,2.47466667 L2.66314465,2.85866667 C2.38490566,3.15733333 2.10666667,3.328 1.58993711,3.328 C0.874465409,3.328 0.317987421,2.944 0.317987421,1.792 C0.317987421,0.810666667 0.794968553,0.256 1.51044025,0.256 C2.26566038,0.256 2.70289308,0.853333333 2.70289308,1.70666667 L2.70289308,1.96266667 L0.914213836,1.96266667 L0.914213836,1.92 Z" id="d2eoC"></path>
                            </g>
                            <g id="d2eoD-link" transform="translate(57.635220, 1.706667)">
                                <path d="M3.41836478,3.24266667 L3.41836478,1.408 C3.41836478,0.938666667 3.17987421,0.725333333 2.86188679,0.725333333 C2.54389937,0.725333333 2.26566038,0.938666667 2.26566038,1.36533333 L2.26566038,3.24266667 L1.70918239,3.24266667 L1.70918239,1.408 C1.70918239,0.938666667 1.47069182,0.725333333 1.1527044,0.725333333 C0.834716981,0.725333333 0.556477987,0.938666667 0.556477987,1.408 L0.556477987,3.24266667 L-1.40154555e-12,3.24266667 L-1.40154555e-12,0.213333333 L0.556477987,0.213333333 L0.556477987,0.512 C0.755220126,0.298666667 1.03345912,0.170666667 1.31169811,0.170666667 C1.66943396,0.170666667 1.94767296,0.298666667 2.10666667,0.597333333 C2.34515723,0.298666667 2.62339623,0.170666667 2.98113208,0.170666667 C3.25937107,0.170666667 3.53761006,0.256 3.69660377,0.426666667 C3.89534591,0.64 4.01459119,0.938666667 4.01459119,1.28 L4.01459119,3.2 L3.41836478,3.2 L3.41836478,3.24266667 Z" id="d2eoD"></path>
                            </g>
                            <g id="d2eoE-link" transform="translate(62.007547, 1.706667)">
                                <path d="M2.14641509,1.06666667 C2.06691824,0.853333333 1.8681761,0.682666667 1.58993711,0.682666667 C1.31169811,0.682666667 1.11295597,0.853333333 1.03345912,1.06666667 C0.993710692,1.19466667 0.953962264,1.28 0.953962264,1.49333333 L2.22591195,1.49333333 C2.22591195,1.28 2.18616352,1.19466667 2.14641509,1.06666667 Z M0.953962264,1.92 C0.953962264,2.432 1.19245283,2.77333333 1.66943396,2.77333333 C1.98742138,2.77333333 2.14641509,2.688 2.34515723,2.47466667 L2.70289308,2.85866667 C2.42465409,3.15733333 2.14641509,3.328 1.62968553,3.328 C0.914213836,3.328 0.357735849,2.944 0.357735849,1.792 C0.357735849,0.810666667 0.834716981,0.256 1.55018868,0.256 C2.30540881,0.256 2.74264151,0.853333333 2.74264151,1.70666667 L2.74264151,1.96266667 L0.953962264,1.96266667 L0.953962264,1.92 Z" id="d2eoE"></path>
                            </g>
                            <g id="d2eoF-link" transform="translate(65.584906, 1.706667)">
                                <path d="M1.70918239,3.24266667 L1.70918239,1.408 C1.70918239,0.938666667 1.47069182,0.725333333 1.1527044,0.725333333 C0.834716981,0.725333333 0.556477987,0.938666667 0.556477987,1.408 L0.556477987,3.24266667 L-5.70210545e-13,3.24266667 L-5.70210545e-13,0.213333333 L0.556477987,0.213333333 L0.556477987,0.512 C0.755220126,0.298666667 1.03345912,0.170666667 1.31169811,0.170666667 C1.58993711,0.170666667 1.82842767,0.256 2.02716981,0.426666667 C2.22591195,0.64 2.30540881,0.938666667 2.30540881,1.28 L2.30540881,3.2 L1.70918239,3.2 L1.70918239,3.24266667 Z" id="d2eoF"></path>
                            </g>
                            <g id="d2eoG-link" transform="translate(68.367296, 0.853333)">
                                <path d="M1.27194969,4.096 C0.755220126,4.096 0.51672956,3.66933333 0.51672956,3.24266667 L0.51672956,1.57866667 L0.198742138,1.57866667 L0.198742138,1.10933333 L0.51672956,1.10933333 L0.51672956,0.170666667 L1.07320755,0.170666667 L1.07320755,1.10933333 L1.62968553,1.10933333 L1.62968553,1.57866667 L1.07320755,1.57866667 L1.07320755,3.2 C1.07320755,3.41333333 1.19245283,3.54133333 1.39119497,3.54133333 L1.62968553,3.54133333 L1.62968553,4.05333333 L1.27194969,4.05333333 L1.27194969,4.096 Z" id="d2eoG"></path>
                            </g>
                            <g id="d2eoH-link" transform="translate(71.547170, 1.706667)">
                                <path d="M1.51044025,3.28533333 C1.03345912,3.28533333 0.67572327,3.2 0.317987421,2.85866667 L0.67572327,2.47466667 C0.914213836,2.73066667 1.19245283,2.77333333 1.47069182,2.77333333 C1.82842767,2.77333333 2.10666667,2.64533333 2.10666667,2.34666667 C2.10666667,2.13333333 1.98742138,2.00533333 1.70918239,2.00533333 L1.27194969,1.96266667 C0.755220126,1.92 0.437232704,1.664 0.437232704,1.10933333 C0.437232704,0.512 0.914213836,0.170666667 1.51044025,0.170666667 C1.94767296,0.170666667 2.30540881,0.256 2.54389937,0.512 L2.18616352,0.896 C2.02716981,0.725333333 1.74893082,0.682666667 1.47069182,0.682666667 C1.11295597,0.682666667 0.953962264,0.853333333 0.953962264,1.06666667 C0.953962264,1.23733333 1.03345912,1.36533333 1.35144654,1.408 L1.78867925,1.45066667 C2.30540881,1.49333333 2.62339623,1.74933333 2.62339623,2.304 C2.70289308,2.944 2.18616352,3.28533333 1.51044025,3.28533333 L1.51044025,3.28533333 Z" id="d2eoH"></path>
                            </g>
                            <g id="d2eoI-link" transform="translate(74.727044, 1.706667)">
                                <path d="M1.94767296,3.24266667 L1.94767296,2.944 C1.74893082,3.15733333 1.47069182,3.28533333 1.19245283,3.28533333 C0.914213836,3.28533333 0.67572327,3.2 0.476981132,3.02933333 C0.278238994,2.816 0.198742138,2.51733333 0.198742138,2.176 L0.198742138,0.256 L0.755220126,0.256 L0.755220126,2.09066667 C0.755220126,2.56 0.993710692,2.77333333 1.31169811,2.77333333 C1.62968553,2.77333333 1.90792453,2.56 1.90792453,2.09066667 L1.90792453,0.256 L2.46440252,0.256 L2.46440252,3.28533333 L1.94767296,3.28533333 L1.94767296,3.24266667 Z" id="d2eoI"></path>
                            </g>
                            <g id="d2eoJ-link" transform="translate(77.906918, 1.706667)">
                                <path d="M1.47069182,0.725333333 C0.953962264,0.725333333 0.874465409,1.19466667 0.874465409,1.74933333 C0.874465409,2.304 0.953962264,2.77333333 1.47069182,2.77333333 C1.98742138,2.77333333 2.06691824,2.304 2.06691824,1.74933333 C2.06691824,1.19466667 1.98742138,0.725333333 1.47069182,0.725333333 Z M2.30540881,2.98666667 C2.14641509,3.15733333 1.90792453,3.24266667 1.62968553,3.24266667 C1.31169811,3.24266667 1.11295597,3.15733333 0.874465409,2.90133333 L0.874465409,4.43733333 L0.317987421,4.43733333 L0.317987421,0.170666667 L0.874465409,0.170666667 L0.874465409,0.512 C1.07320755,0.256 1.31169811,0.170666667 1.62968553,0.170666667 C1.90792453,0.170666667 2.14641509,0.256 2.30540881,0.426666667 C2.5836478,0.725333333 2.62339623,1.23733333 2.62339623,1.70666667 C2.62339623,2.176 2.5836478,2.688 2.30540881,2.98666667 L2.30540881,2.98666667 Z" id="d2eoJ"></path>
                            </g>
                            <g id="d2eoK-link" transform="translate(81.086792, 0.000000)">
                                <path d="M2.10666667,0.384 L1.47069182,0.384 L1.03345912,1.36533333 L1.47069182,1.36533333 L2.10666667,0.384 Z M1.94767296,3.2 L0.67572327,3.2 C0.67572327,2.98666667 0.715471698,2.90133333 0.755220126,2.77333333 C0.834716981,2.56 1.03345912,2.38933333 1.31169811,2.38933333 C1.58993711,2.38933333 1.78867925,2.56 1.8681761,2.77333333 C1.90792453,2.90133333 1.94767296,2.98666667 1.94767296,3.2 L1.94767296,3.2 Z M0.676120755,3.66933333 L2.46440252,3.66933333 L2.46440252,3.41333333 C2.46440252,2.56 2.02716981,1.96266667 1.27194969,1.96266667 C0.556477987,1.96266667 0.0794968553,2.51733333 0.0794968553,3.49866667 C0.0794968553,4.65066667 0.635974843,5.03466667 1.35144654,5.03466667 C1.8681761,5.03466667 2.14641509,4.864 2.42465409,4.56533333 L2.06691824,4.18133333 C1.8681761,4.39466667 1.70918239,4.48 1.39119497,4.48 C0.927728302,4.48 0.689237736,4.15744 0.676120755,3.66933333 L0.676120755,3.66933333 Z" id="d2eoK"></path>
                            </g>
                            <g id="d2eoL-link" transform="translate(84.266667, 1.706667)">
                                <path d="M1.66943396,0.938666667 C1.55018868,0.810666667 1.4309434,0.725333333 1.23220126,0.725333333 C0.914213836,0.725333333 0.67572327,0.981333333 0.67572327,1.408 L0.67572327,3.24266667 L0.119245283,3.24266667 L0.119245283,0.213333333 L0.67572327,0.213333333 L0.67572327,0.554666667 C0.834716981,0.341333333 1.11295597,0.170666667 1.4309434,0.170666667 C1.70918239,0.170666667 1.90792453,0.256 2.10666667,0.469333333 L1.66943396,0.938666667 Z" id="d2eoL"></path>
                            </g>
                            <g id="d2eoM-link" transform="translate(86.651572, 0.426667)">
                                <path d="M0.238490566,4.52266667 L0.238490566,1.49333333 L1.21240361,1.49333333 L1.21240361,4.52266667 L0.238490566,4.52266667 Z M0.238490566,0.896 L0.238490566,0.256 L1.28196883,0.256 L1.28196883,0.896 L0.238490566,0.896 Z" id="d2eoM"></path>
                            </g>
                            <g id="d2eoN-link" transform="translate(88.241509, 1.706667)">
                                <path d="M1.78867925,1.06666667 C1.70918239,0.853333333 1.51044025,0.682666667 1.23220126,0.682666667 C0.953962264,0.682666667 0.755220126,0.853333333 0.67572327,1.06666667 C0.635974843,1.19466667 0.596226415,1.28 0.596226415,1.49333333 L1.8681761,1.49333333 C1.8681761,1.28 1.82842767,1.19466667 1.78867925,1.06666667 L1.78867925,1.06666667 Z M0.596226415,1.92 C0.596226415,2.432 0.834716981,2.77333333 1.31169811,2.77333333 C1.62968553,2.77333333 1.78867925,2.688 1.98742138,2.47466667 L2.34515723,2.85866667 C2.06691824,3.15733333 1.78867925,3.328 1.27194969,3.328 C0.556477987,3.328 -2.58393307e-12,2.944 -2.58393307e-12,1.792 C-2.58393307e-12,0.810666667 0.476981132,0.256 1.19245283,0.256 C1.94767296,0.256 2.38490566,0.853333333 2.38490566,1.70666667 L2.38490566,1.96266667 L0.596226415,1.96266667 L0.596226415,1.92 Z" id="d2eoN"></path>
                            </g>
                            <g id="d2eoO-link" transform="translate(91.421384, 1.706667)">
                                <path d="M1.74893082,3.24266667 L1.74893082,2.944 C1.55018868,3.15733333 1.27194969,3.28533333 0.993710692,3.28533333 C0.715471698,3.28533333 0.476981132,3.2 0.278238994,3.02933333 C0.0794968553,2.816 -4.47197834e-13,2.51733333 -4.47197834e-13,2.176 L-4.47197834e-13,0.256 L0.556477987,0.256 L0.556477987,2.09066667 C0.556477987,2.56 0.794968553,2.77333333 1.11295597,2.77333333 C1.4309434,2.77333333 1.70918239,2.56 1.70918239,2.09066667 L1.70918239,0.256 L2.26566038,0.256 L2.26566038,3.28533333 L1.74893082,3.28533333 L1.74893082,3.24266667 Z" id="d2eoO"></path>
                            </g>
                            <g id="d2eoP-link" transform="translate(94.601258, 1.706667)">
                                <path d="M1.62968553,0.938666667 C1.51044025,0.810666667 1.39119497,0.725333333 1.19245283,0.725333333 C0.874465409,0.725333333 0.635974843,0.981333333 0.635974843,1.408 L0.635974843,3.24266667 L0.0794968553,3.24266667 L0.0794968553,0.213333333 L0.635974843,0.213333333 L0.635974843,0.554666667 C0.794968553,0.341333333 1.07320755,0.170666667 1.39119497,0.170666667 C1.66943396,0.170666667 1.8681761,0.256 2.06691824,0.469333333 L1.62968553,0.938666667 Z" id="d2eoP"></path>
                            </g>
                        </g>
                        <g id="Group" transform="translate(104.800000, 0.000000)">
                            <g transform="translate(5.278195, 0.000000)" fill="#3D566E">
                                <g id="d2eoQ-link">
                                    <path d="M0.487218045,2.76 C1.62406015,2.76 2.80150376,2.96 3.53233083,3.64 L5.56240602,1.64 C4.3037594,0.48 2.59849624,0.12 0.527819549,0.12 L0.32481203,0.12 L0.32481203,2.76 L0.487218045,2.76 L0.487218045,2.76 Z" id="d2eoQ"></path>
                                </g>
                                <g id="d2eoR-link" transform="translate(0.000000, 4.800000)">
                                    <path d="M2.03007519,0.52 L0.32481203,0.36 L0.32481203,3.16 L1.33984962,3.24 C2.35488722,3.32 2.72030075,3.8 2.72030075,4.44 C2.72030075,5.4 1.54285714,5.8 0.406015038,5.8 L0.32481203,5.8 L0.32481203,8.56 L0.365413534,8.56 C3.45112782,8.56 5.92781955,7.2 5.92781955,4.32 C5.96842105,2.12 4.62857143,0.76 2.03007519,0.52 Z" id="d2eoR"></path>
                                </g>
                            </g>
                            <g fill="#FF3333">
                                <g id="d2eoS-link" transform="translate(0.406015, 0.000000)">
                                    <path d="M0.32481203,4.2 C0.32481203,6.6 1.78646617,7.6 4.14135338,7.84 L5.19699248,7.96 L5.19699248,5.16 L4.83157895,5.12 C3.65413534,5.04 3.45112782,4.48 3.45112782,4 C3.45112782,3.36 3.97894737,2.8 5.19699248,2.76 L5.19699248,0.12 C2.63909774,0.16 0.32481203,1.6 0.32481203,4.2 L0.32481203,4.2 Z" id="d2eoS"></path>
                                </g>
                                <g id="d2eoT-link" transform="translate(0.000000, 9.200000)">
                                    <path d="M2.1924812,0.16 L0.0406015038,2.28 C1.70526316,3.92 3.53233083,4.12 5.60300752,4.16 L5.60300752,1.4 C4.62857143,1.36 3.2481203,1.2 2.1924812,0.16 Z" id="d2eoT"></path>
                                </g>
                            </g>
                        </g>
                        <g id="Group">
                            <g id="d2eoU-link" transform="translate(0.000000, 12.843243)" fill="#FF3333">
                                <path d="M7.16108108,0.35027027 L1.82918919,0.35027027 C0.972972973,0.35027027 0.233513514,1.05081081 0.233513514,1.94594595 C0.233513514,2.80216216 0.934054054,3.54162162 1.82918919,3.54162162 L5.60432432,3.54162162 L5.60432432,7.31675676 C5.60432432,8.17297297 6.30486486,8.91243243 7.2,8.91243243 C7.62810811,8.91243243 8.0172973,8.71783784 8.32864865,8.44540541 C8.60108108,8.17297297 8.79567568,7.74486486 8.79567568,7.31675676 L8.79567568,1.98486486 C8.79567568,1.55675676 8.60108108,1.16756757 8.32864865,0.856216216 C7.97837838,0.505945946 7.58918919,0.35027027 7.16108108,0.35027027" id="d2eoU"></path>
                            </g>
                            <g id="d2eoV-link" transform="translate(6.616216, 6.616216)" fill="#3D566E">
                                <path d="M7.00540541,-2.30038211e-13 L1.67351351,-2.30038211e-13 C0.817297297,-2.30038211e-13 0.0778378378,0.700540541 0.0778378378,1.59567568 C0.0778378378,2.45189189 0.778378378,3.19135135 1.67351351,3.19135135 L5.44864865,3.19135135 L5.44864865,6.96648649 C5.44864865,7.8227027 6.14918919,8.56216216 7.04432432,8.56216216 C7.47243243,8.56216216 7.86162162,8.36756757 8.17297297,8.09513514 C8.44540541,7.8227027 8.64,7.39459459 8.64,6.96648649 L8.64,1.63459459 C8.64,1.20648649 8.44540541,0.817297297 8.17297297,0.505945946 C7.8227027,0.194594595 7.43351351,-2.30038211e-13 7.00540541,-2.30038211e-13" id="d2eoV"></path>
                            </g>
                            <g id="d2eoW-link" transform="translate(12.843243, 0.000000)" fill="#FF3333">
                                <path d="M7.2,0.0389189189 L1.86810811,0.0389189189 C1.01189189,0.0389189189 0.272432432,0.739459459 0.272432432,1.63459459 C0.272432432,2.49081081 0.972972973,3.23027027 1.86810811,3.23027027 L5.64324324,3.23027027 L5.64324324,7.00540541 C5.64324324,7.86162162 6.34378378,8.60108108 7.23891892,8.60108108 C7.66702703,8.60108108 8.05621622,8.40648649 8.36756757,8.13405405 C8.64,7.86162162 8.83459459,7.43351351 8.83459459,7.00540541 L8.83459459,1.67351351 C8.83459459,1.24540541 8.64,0.856216216 8.36756757,0.544864865 C8.09513514,0.233513514 7.66702703,0.0389189189 7.2,0.0389189189" id="d2eoW"></path>
                            </g>
                        </g>
                    </g>
                </g>
            </g>
        </g>
    </g>
</svg>