<svg xmlns="http://www.w3.org/2000/svg" xml:space="preserve" width="160" height="200" viewBox="0 0 160 200">
    <style>
        .fr-artwork-background {
            fill: #f5f5fe;
        }
        .fr-artwork-motif {
            fill: #e3e3fd;
        }
    </style>
    <g class="fr-artwork-background" id="artwork-background">
        <path d="M20.8 187.2c.7 0 1.2.6 1.2 1.2 0 .7-.6 1.2-1.2 1.2-.7 0-1.2-.5-1.2-1.2s.5-1.2 1.2-1.2zm9 0c.7 0 1.2.6 1.2 1.2 0 .7-.6 1.2-1.2 1.2-.7 0-1.2-.5-1.2-1.2-.1-.7.5-1.2 1.2-1.2zm9 0c.7 0 1.2.6 1.2 1.2 0 .7-.6 1.2-1.2 1.2-.7 0-1.2-.5-1.2-1.2-.1-.7.5-1.2 1.2-1.2zm8.9 0c.7 0 1.2.6 1.2 1.2 0 .7-.6 1.2-1.2 1.2-.7 0-1.2-.5-1.2-1.2s.6-1.2 1.2-1.2zm9 0c.7 0 1.2.6 1.2 1.2 0 .7-.6 1.2-1.2 1.2-.7 0-1.2-.5-1.2-1.2s.5-1.2 1.2-1.2zm9 0c.7 0 1.2.6 1.2 1.2 0 .7-.6 1.2-1.2 1.2-.7 0-1.2-.5-1.2-1.2s.5-1.2 1.2-1.2zm9 0c.7 0 1.2.6 1.2 1.2 0 .7-.6 1.2-1.2 1.2-.7 0-1.2-.5-1.2-1.2s.5-1.2 1.2-1.2zm9 0c.7 0 1.2.6 1.2 1.2 0 .7-.6 1.2-1.2 1.2-.7 0-1.2-.5-1.2-1.2s.5-1.2 1.2-1.2zm9 0c.7 0 1.2.6 1.2 1.2 0 .7-.6 1.2-1.2 1.2-.7 0-1.2-.5-1.2-1.2-.1-.7.5-1.2 1.2-1.2zm8.9-.1c.7 0 1.2.6 1.2 1.2 0 .7-.6 1.2-1.2 1.2-.7 0-1.2-.5-1.2-1.2 0-.6.6-1.2 1.2-1.2zm9 0c.7 0 1.2.6 1.2 1.2 0 .7-.6 1.2-1.2 1.2-.7 0-1.2-.5-1.2-1.2 0-.6.6-1.2 1.2-1.2zm9 0c.7 0 1.2.6 1.2 1.2 0 .7-.6 1.2-1.2 1.2-.7 0-1.2-.5-1.2-1.2 0-.6.5-1.2 1.2-1.2zm9 0c.7 0 1.2.6 1.2 1.2 0 .7-.6 1.2-1.2 1.2-.7 0-1.2-.5-1.2-1.2 0-.6.5-1.2 1.2-1.2zm9 0c.7 0 1.2.6 1.2 1.2 0 .7-.6 1.2-1.2 1.2-.7 0-1.2-.5-1.2-1.2 0-.6.5-1.2 1.2-1.2zm9 0c.7 0 1.2.6 1.2 1.2 0 .7-.6 1.2-1.2 1.2-.7 0-1.2-.5-1.2-1.2-.1-.6.5-1.2 1.2-1.2zm9 0c.7 0 1.2.6 1.2 1.2 0 .7-.6 1.2-1.2 1.2-.7 0-1.2-.5-1.2-1.2-.1-.6.5-1.2 1.2-1.2zm-62.9-8.9c.7 0 1.2.6 1.2 1.2 0 .7-.6 1.2-1.2 1.2-.7 0-1.2-.5-1.2-1.2-.1-.7.5-1.2 1.2-1.2zm8.9-.1c.7 0 1.2.6 1.2 1.2 0 .7-.6 1.2-1.2 1.2-.7 0-1.2-.5-1.2-1.2 0-.6.6-1.1 1.2-1.2zm9 0c.7 0 1.2.6 1.2 1.2 0 .7-.6 1.2-1.2 1.2-.7 0-1.2-.5-1.2-1.2 0-.6.6-1.1 1.2-1.2zm9 0c.7 0 1.2.6 1.2 1.2 0 .7-.6 1.2-1.2 1.2-.7 0-1.2-.5-1.2-1.2 0-.6.5-1.1 1.2-1.2zm-98.8.1c.7 0 1.2.6 1.2 1.2 0 .7-.6 1.2-1.2 1.2-.7 0-1.2-.5-1.2-1.2s.5-1.2 1.2-1.2zm18 0c.7 0 1.2.6 1.2 1.2 0 .7-.6 1.2-1.2 1.2-.7 0-1.2-.5-1.2-1.2-.1-.7.5-1.2 1.2-1.2zm17.9 0c.7 0 1.2.6 1.2 1.2 0 .7-.6 1.2-1.2 1.2-.7 0-1.2-.5-1.2-1.2s.5-1.2 1.2-1.2zm18 0c.7 0 1.2.6 1.2 1.2 0 .7-.6 1.2-1.2 1.2-.7 0-1.2-.5-1.2-1.2s.5-1.2 1.2-1.2zm9 0c.7 0 1.2.6 1.2 1.2 0 .7-.6 1.2-1.2 1.2-.7 0-1.2-.5-1.2-1.2s.5-1.2 1.2-1.2zm53.9-.1c.7 0 1.2.6 1.2 1.2 0 .7-.6 1.2-1.2 1.2-.7 0-1.2-.5-1.2-1.2 0-.6.5-1.1 1.2-1.2zm-107.8.1c.7 0 1.2.6 1.2 1.2 0 .7-.6 1.2-1.2 1.2-.7 0-1.2-.5-1.2-1.2-.1-.7.5-1.2 1.2-1.2zm116.8-.1c.7 0 1.2.6 1.2 1.2 0 .7-.6 1.2-1.2 1.2-.7 0-1.2-.5-1.2-1.2-.1-.6.5-1.1 1.2-1.2zm-98.9.1c.7 0 1.2.6 1.2 1.2 0 .7-.6 1.2-1.2 1.2-.7 0-1.2-.5-1.2-1.2s.6-1.2 1.2-1.2zm107.9-.1c.7 0 1.2.6 1.2 1.2 0 .7-.6 1.2-1.2 1.2-.7 0-1.2-.5-1.2-1.2-.1-.6.5-1.1 1.2-1.2zm-89.9.1c.7 0 1.2.6 1.2 1.2 0 .7-.6 1.2-1.2 1.2-.7 0-1.2-.5-1.2-1.2s.5-1.2 1.2-1.2zm62.9-.1c.7 0 1.2.6 1.2 1.2 0 .7-.6 1.2-1.2 1.2-.7 0-1.2-.5-1.2-1.2 0-.6.5-1.2 1.2-1.2 0 .1 0 .1 0 0zm-89.8-8.9c.7 0 1.2.6 1.2 1.2 0 .7-.6 1.2-1.2 1.2-.7 0-1.2-.5-1.2-1.2-.1-.6.5-1.2 1.2-1.2zm17.9 0c.7 0 1.2.6 1.2 1.2 0 .7-.6 1.2-1.2 1.2-.7 0-1.2-.5-1.2-1.2 0-.6.5-1.2 1.2-1.2zm9 0c.7 0 1.2.6 1.2 1.2 0 .7-.6 1.2-1.2 1.2-.7 0-1.2-.5-1.2-1.2 0-.6.5-1.2 1.2-1.2zm9 0c.7 0 1.2.6 1.2 1.2 0 .7-.6 1.2-1.2 1.2-.7 0-1.2-.5-1.2-1.2 0-.6.5-1.2 1.2-1.2zm9 0c.7 0 1.2.6 1.2 1.2 0 .7-.6 1.2-1.2 1.2-.7 0-1.2-.5-1.2-1.2-.1-.6.5-1.2 1.2-1.2zm-62.9 0c.7 0 1.2.6 1.2 1.2 0 .7-.6 1.2-1.2 1.2-.7 0-1.2-.5-1.2-1.2 0-.6.5-1.2 1.2-1.2zm9 0c.7 0 1.2.6 1.2 1.2 0 .7-.6 1.2-1.2 1.2-.7 0-1.2-.5-1.2-1.2-.1-.6.5-1.2 1.2-1.2zm17.9 0c.7 0 1.2.6 1.2 1.2 0 .7-.6 1.2-1.2 1.2-.7 0-1.2-.5-1.2-1.2 0-.6.6-1.2 1.2-1.2zm45 0c.7 0 1.2.6 1.2 1.2 0 .7-.6 1.2-1.2 1.2-.7 0-1.2-.5-1.2-1.2-.1-.6.5-1.2 1.2-1.2zm8.9 0c.7 0 1.2.6 1.2 1.2 0 .7-.6 1.2-1.2 1.2-.7 0-1.2-.5-1.2-1.2s.6-1.2 1.2-1.2zm9 0c.7 0 1.2.6 1.2 1.2 0 .7-.6 1.2-1.2 1.2-.7 0-1.2-.5-1.2-1.2s.6-1.2 1.2-1.2zm9 0c.7 0 1.2.6 1.2 1.2 0 .7-.6 1.2-1.2 1.2-.7 0-1.2-.5-1.2-1.2s.5-1.2 1.2-1.2zm9 0c.7 0 1.2.6 1.2 1.2 0 .7-.6 1.2-1.2 1.2-.7 0-1.2-.5-1.2-1.2s.5-1.2 1.2-1.2zm9 0c.7 0 1.2.6 1.2 1.2 0 .7-.6 1.2-1.2 1.2-.7 0-1.2-.5-1.2-1.2s.5-1.2 1.2-1.2zm9 0c.7 0 1.2.6 1.2 1.2 0 .7-.6 1.2-1.2 1.2-.7 0-1.2-.5-1.2-1.2-.1-.7.5-1.2 1.2-1.2zm9 0c.7 0 1.2.6 1.2 1.2 0 .7-.6 1.2-1.2 1.2-.7 0-1.2-.5-1.2-1.2-.1-.7.5-1.2 1.2-1.2zm-134.8-8.9c.7 0 1.2.6 1.2 1.2 0 .7-.6 1.2-1.2 1.2-.7 0-1.2-.5-1.2-1.2s.5-1.2 1.2-1.2zm9 0c.7 0 1.2.6 1.2 1.2 0 .7-.6 1.2-1.2 1.2-.7 0-1.2-.5-1.2-1.2-.1-.7.5-1.2 1.2-1.2zm9 0c.7 0 1.2.6 1.2 1.2 0 .7-.6 1.2-1.2 1.2-.7 0-1.2-.5-1.2-1.2-.1-.7.5-1.2 1.2-1.2zm8.9 0c.7 0 1.2.6 1.2 1.2 0 .7-.6 1.2-1.2 1.2-.7 0-1.2-.5-1.2-1.2s.6-1.2 1.2-1.2zm9 0c.7 0 1.2.6 1.2 1.2 0 .7-.6 1.2-1.2 1.2-.7 0-1.2-.5-1.2-1.2s.5-1.2 1.2-1.2zm9 0c.7 0 1.2.6 1.2 1.2 0 .7-.6 1.2-1.2 1.2-.7 0-1.2-.5-1.2-1.2s.5-1.2 1.2-1.2zm9 0c.7 0 1.2.6 1.2 1.2 0 .7-.6 1.2-1.2 1.2-.7 0-1.2-.5-1.2-1.2s.5-1.2 1.2-1.2zm9 0c.7 0 1.2.6 1.2 1.2 0 .7-.6 1.2-1.2 1.2-.7 0-1.2-.5-1.2-1.2s.5-1.2 1.2-1.2zm9 0c.7 0 1.2.6 1.2 1.2 0 .7-.6 1.2-1.2 1.2-.7 0-1.2-.5-1.2-1.2-.1-.7.5-1.2 1.2-1.2zm8.9-.1c.7 0 1.2.6 1.2 1.2 0 .7-.6 1.2-1.2 1.2-.7 0-1.2-.5-1.2-1.2 0-.6.6-1.2 1.2-1.2zm9 0c.7 0 1.2.6 1.2 1.2 0 .7-.6 1.2-1.2 1.2-.7 0-1.2-.5-1.2-1.2 0-.6.6-1.2 1.2-1.2zm9 0c.7 0 1.2.6 1.2 1.2 0 .7-.6 1.2-1.2 1.2-.7 0-1.2-.5-1.2-1.2 0-.6.5-1.2 1.2-1.2zm9 0c.7 0 1.2.6 1.2 1.2 0 .7-.6 1.2-1.2 1.2-.7 0-1.2-.5-1.2-1.2 0-.6.5-1.2 1.2-1.2zm9 0c.7 0 1.2.6 1.2 1.2 0 .7-.6 1.2-1.2 1.2-.7 0-1.2-.5-1.2-1.2 0-.6.5-1.2 1.2-1.2zm9 0c.7 0 1.2.6 1.2 1.2 0 .7-.6 1.2-1.2 1.2-.7 0-1.2-.5-1.2-1.2-.1-.6.5-1.2 1.2-1.2zm9 0c.7 0 1.2.6 1.2 1.2 0 .7-.6 1.2-1.2 1.2-.7 0-1.2-.5-1.2-1.2-.1-.6.5-1.2 1.2-1.2zm-134.8-8.9c.7 0 1.2.6 1.2 1.2 0 .7-.6 1.2-1.2 1.2-.7 0-1.2-.5-1.2-1.2 0-.6.5-1.2 1.2-1.2zm9 0c.7 0 1.2.6 1.2 1.2 0 .7-.6 1.2-1.2 1.2-.7 0-1.2-.5-1.2-1.2-.1-.6.5-1.2 1.2-1.2zm9 0c.7 0 1.2.6 1.2 1.2 0 .7-.6 1.2-1.2 1.2-.7 0-1.2-.5-1.2-1.2-.1-.6.5-1.2 1.2-1.2zm8.9 0c.7 0 1.2.6 1.2 1.2 0 .7-.6 1.2-1.2 1.2-.7 0-1.2-.5-1.2-1.2 0-.6.6-1.2 1.2-1.2zm9 0c.7 0 1.2.6 1.2 1.2 0 .7-.6 1.2-1.2 1.2-.7 0-1.2-.5-1.2-1.2 0-.6.5-1.2 1.2-1.2zm9 0c.7 0 1.2.6 1.2 1.2 0 .7-.6 1.2-1.2 1.2-.7 0-1.2-.5-1.2-1.2 0-.6.5-1.2 1.2-1.2zm9 0c.7 0 1.2.6 1.2 1.2 0 .7-.6 1.2-1.2 1.2-.7 0-1.2-.5-1.2-1.2 0-.6.5-1.2 1.2-1.2zm9 0c.7 0 1.2.6 1.2 1.2 0 .7-.6 1.2-1.2 1.2-.7 0-1.2-.5-1.2-1.2-.1-.6.5-1.2 1.2-1.2zm9 0c.7 0 1.2.6 1.2 1.2 0 .7-.6 1.2-1.2 1.2-.7 0-1.2-.5-1.2-1.2-.1-.6.5-1.2 1.2-1.2zM44.5 13.6c0 .7-.5 1.2-1.2 1.2s-1.2-.5-1.2-1.2.5-1.2 1.2-1.2c.6 0 1.2.5 1.2 1.2zm0 9c0 .7-.5 1.2-1.2 1.2s-1.2-.5-1.2-1.2.5-1.2 1.2-1.2c.6 0 1.2.5 1.2 1.2zm0 8.9c0 .7-.5 1.2-1.2 1.2s-1.3-.5-1.3-1.2.5-1.2 1.2-1.2 1.3.6 1.3 1.2zm0 9c0 .7-.5 1.2-1.2 1.2s-1.3-.5-1.3-1.2.5-1.2 1.2-1.2 1.3.5 1.3 1.2zm0 9c0 .7-.5 1.2-1.2 1.2s-1.3-.6-1.3-1.2c0-.7.5-1.2 1.2-1.2.7-.1 1.3.5 1.3 1.2zm0 8.9c0 .7-.6 1.2-1.2 1.2s-1.3-.5-1.3-1.2.5-1.2 1.2-1.2 1.3.5 1.3 1.2zm0 9c0 .7-.5 1.2-1.2 1.2s-1.3-.5-1.3-1.2.5-1.2 1.2-1.2 1.3.5 1.3 1.2zm0 9c0 .7-.5 1.2-1.2 1.2S42 77 42 76.4c0-.7.5-1.2 1.2-1.2.7-.1 1.3.5 1.3 1.2zm0 8.9c0 .7-.5 1.2-1.2 1.2S42 86 42 85.3s.5-1.2 1.2-1.2 1.3.5 1.3 1.2zm0 9c0 .7-.5 1.2-1.2 1.2S42 95 42 94.3s.5-1.2 1.2-1.2 1.3.5 1.3 1.2zm0 8.9c0 .7-.5 1.2-1.2 1.2s-1.2-.5-1.2-1.2.5-1.2 1.2-1.2c.6 0 1.2.6 1.2 1.2zm0 9c0 .7-.5 1.2-1.2 1.2s-1.2-.5-1.2-1.2.5-1.2 1.2-1.2c.6 0 1.2.5 1.2 1.2zm0 9c0 .7-.5 1.2-1.2 1.2s-1.2-.5-1.2-1.2.5-1.2 1.2-1.2c.6-.1 1.2.5 1.2 1.2zm0 8.9c0 .7-.5 1.2-1.2 1.2s-1.2-.5-1.2-1.2.5-1.2 1.2-1.2c.6 0 1.2.6 1.2 1.2zm9-62.7c0 .7-.5 1.2-1.2 1.2s-1.2-.5-1.2-1.2.5-1.2 1.2-1.2c.6 0 1.2.5 1.2 1.2zm0 9c0 .7-.5 1.2-1.2 1.2s-1.2-.5-1.2-1.2.5-1.2 1.2-1.2c.6-.1 1.2.5 1.2 1.2zm0 8.9c0 .7-.5 1.2-1.2 1.2s-1.2-.5-1.2-1.2.5-1.2 1.2-1.2c.6 0 1.2.5 1.2 1.2zm0 9c0 .7-.5 1.2-1.2 1.2s-1.2-.5-1.2-1.2.5-1.2 1.2-1.2c.6 0 1.2.5 1.2 1.2zm0-80.7c0 .7-.5 1.2-1.2 1.2s-1.2-.5-1.2-1.2.5-1.2 1.2-1.2c.6 0 1.2.5 1.2 1.2zm0 17.9c0 .7-.5 1.2-1.2 1.2s-1.2-.5-1.2-1.2.5-1.2 1.2-1.2c.6 0 1.2.6 1.2 1.2zm0 18c0 .7-.5 1.2-1.2 1.2s-1.2-.5-1.2-1.2.5-1.2 1.2-1.2c.6-.1 1.2.5 1.2 1.2zm0 8.9c0 .7-.5 1.2-1.2 1.2s-1.2-.5-1.2-1.2.5-1.2 1.2-1.2c.6 0 1.2.6 1.2 1.2zm0 53.8c0 .7-.5 1.2-1.2 1.2s-1.2-.5-1.2-1.2.5-1.2 1.2-1.2c.6 0 1.2.5 1.2 1.2zm0 9c0 .7-.5 1.2-1.2 1.2s-1.2-.5-1.2-1.2.5-1.2 1.2-1.2c.6-.1 1.2.5 1.2 1.2zm0-98.6c0 .7-.5 1.2-1.2 1.2s-1.2-.5-1.2-1.2.5-1.2 1.2-1.2c.6 0 1.2.5 1.2 1.2zm0 107.5c0 .7-.5 1.2-1.2 1.2s-1.2-.5-1.2-1.2.5-1.2 1.2-1.2c.6 0 1.2.6 1.2 1.2zm0-89.6c0 .7-.6 1.2-1.2 1.2-.7 0-1.2-.6-1.2-1.2 0-.7.5-1.2 1.2-1.2.6 0 1.2.5 1.2 1.2zm0 62.7c0 .7-.5 1.2-1.2 1.2s-1.2-.5-1.2-1.2.5-1.2 1.2-1.2c.6 0 1.2.6 1.2 1.2zm8.9-89.6c0 .7-.5 1.2-1.2 1.2s-1.2-.5-1.2-1.2.5-1.2 1.2-1.2 1.2.5 1.2 1.2zm0 17.9c0 .7-.5 1.2-1.2 1.2s-1.2-.5-1.2-1.2.5-1.2 1.2-1.2 1.2.6 1.2 1.2zm0 9c0 .7-.5 1.2-1.2 1.2s-1.2-.5-1.2-1.2.5-1.2 1.2-1.2 1.2.5 1.2 1.2zm0 9c0 .7-.5 1.2-1.2 1.2s-1.2-.6-1.2-1.2c0-.7.5-1.2 1.2-1.2.7-.1 1.2.5 1.2 1.2zm0 8.9c0 .7-.6 1.2-1.2 1.2s-1.2-.5-1.2-1.2.5-1.2 1.2-1.2 1.2.5 1.2 1.2zm0-35.8c0 .7-.5 1.2-1.2 1.2s-1.2-.5-1.2-1.2.5-1.2 1.2-1.2 1.2.5 1.2 1.2zm0 44.8c0 .7-.5 1.2-1.2 1.2s-1.2-.5-1.2-1.2.5-1.2 1.2-1.2 1.2.5 1.2 1.2zm0 9c0 .7-.5 1.2-1.2 1.2S60 77 60 76.4c0-.7.5-1.2 1.2-1.2.7-.1 1.2.5 1.2 1.2zm0 8.9c0 .7-.5 1.2-1.2 1.2S60 86 60 85.3s.5-1.2 1.2-1.2 1.2.5 1.2 1.2zm0 9c0 .7-.5 1.2-1.2 1.2S60 95 60 94.3s.5-1.2 1.2-1.2 1.2.5 1.2 1.2zm0 8.9c0 .7-.5 1.2-1.2 1.2s-1.2-.5-1.2-1.2.5-1.2 1.2-1.2 1.2.6 1.2 1.2zm0 9c0 .7-.5 1.2-1.2 1.2s-1.2-.5-1.2-1.2.5-1.2 1.2-1.2 1.2.5 1.2 1.2zm0 9c0 .7-.5 1.2-1.2 1.2s-1.2-.5-1.2-1.2.5-1.2 1.2-1.2c.7-.1 1.2.5 1.2 1.2zm0 8.9c0 .7-.5 1.2-1.2 1.2s-1.2-.5-1.2-1.2.5-1.2 1.2-1.2 1.2.6 1.2 1.2zm9-116.5c0 .7-.5 1.2-1.2 1.2s-1.2-.5-1.2-1.2.5-1.2 1.2-1.2 1.2.5 1.2 1.2zm0 9c0 .7-.5 1.2-1.2 1.2s-1.2-.5-1.2-1.2.5-1.2 1.2-1.2 1.2.5 1.2 1.2zm0 8.9c0 .7-.5 1.2-1.2 1.2s-1.2-.5-1.2-1.2.5-1.2 1.2-1.2 1.2.6 1.2 1.2zm0 9c0 .7-.5 1.2-1.2 1.2s-1.2-.5-1.2-1.2.5-1.2 1.2-1.2 1.2.5 1.2 1.2zm0 9c0 .7-.5 1.2-1.2 1.2s-1.2-.5-1.2-1.2.5-1.2 1.2-1.2c.7-.1 1.2.5 1.2 1.2zm0 8.9c0 .7-.5 1.2-1.2 1.2s-1.2-.5-1.2-1.2.5-1.2 1.2-1.2 1.2.6 1.2 1.2zm0 9c0 .7-.5 1.2-1.2 1.2s-1.2-.5-1.2-1.2.5-1.2 1.2-1.2 1.2.5 1.2 1.2zm0 9c0 .7-.5 1.2-1.2 1.2s-1.2-.5-1.2-1.2.5-1.2 1.2-1.2c.7-.1 1.2.5 1.2 1.2zm0 8.9c0 .7-.5 1.2-1.2 1.2S69 86 69 85.3s.5-1.2 1.2-1.2 1.2.5 1.2 1.2zm0 9c0 .7-.5 1.2-1.2 1.2S69 95 69 94.3s.5-1.2 1.2-1.2 1.2.5 1.2 1.2zm0 8.9c0 .7-.5 1.2-1.2 1.2s-1.2-.5-1.2-1.2.5-1.2 1.2-1.2 1.2.6 1.2 1.2zm0 9c0 .7-.5 1.2-1.2 1.2s-1.2-.5-1.2-1.2.5-1.2 1.2-1.2 1.2.5 1.2 1.2zm0 9c0 .7-.5 1.2-1.2 1.2s-1.2-.5-1.2-1.2.5-1.2 1.2-1.2c.7-.1 1.2.5 1.2 1.2zm0 8.9c0 .7-.5 1.2-1.2 1.2s-1.2-.5-1.2-1.2.5-1.2 1.2-1.2 1.2.6 1.2 1.2zm9-116.5c0 .7-.5 1.2-1.2 1.2s-1.2-.5-1.2-1.2.5-1.2 1.2-1.2 1.2.5 1.2 1.2zm0 9c0 .7-.5 1.2-1.2 1.2s-1.2-.5-1.2-1.2.5-1.2 1.2-1.2 1.2.5 1.2 1.2zm0 8.9c0 .7-.5 1.2-1.2 1.2s-1.2-.5-1.2-1.2.5-1.2 1.2-1.2 1.2.6 1.2 1.2zm0 9c0 .7-.5 1.2-1.2 1.2s-1.2-.5-1.2-1.2.5-1.2 1.2-1.2 1.2.5 1.2 1.2zm0 9c0 .7-.5 1.2-1.2 1.2s-1.2-.5-1.2-1.2.5-1.2 1.2-1.2c.7-.1 1.2.5 1.2 1.2zm0 8.9c0 .7-.6 1.2-1.2 1.2-.7 0-1.2-.6-1.2-1.2 0-.7.5-1.2 1.2-1.2s1.2.5 1.2 1.2zm0 9c0 .7-.5 1.2-1.2 1.2s-1.2-.5-1.2-1.2.5-1.2 1.2-1.2 1.2.5 1.2 1.2zm0 9c0 .7-.5 1.2-1.2 1.2s-1.2-.5-1.2-1.2.5-1.2 1.2-1.2c.7-.1 1.2.5 1.2 1.2zm0 8.9c0 .7-.5 1.2-1.2 1.2S78 86 78 85.3s.5-1.2 1.2-1.2 1.2.5 1.2 1.2zm0 9c0 .7-.5 1.2-1.2 1.2S78 95 78 94.3s.5-1.2 1.2-1.2 1.2.5 1.2 1.2zm0 8.9c0 .7-.5 1.2-1.2 1.2s-1.2-.5-1.2-1.2.5-1.2 1.2-1.2 1.2.6 1.2 1.2zm0 9c0 .7-.5 1.2-1.2 1.2s-1.2-.5-1.2-1.2.5-1.2 1.2-1.2 1.2.5 1.2 1.2zm0 9c0 .7-.5 1.2-1.2 1.2s-1.2-.5-1.2-1.2.5-1.2 1.2-1.2c.7-.1 1.2.5 1.2 1.2zm0 8.9c0 .7-.5 1.2-1.2 1.2s-1.2-.5-1.2-1.2.5-1.2 1.2-1.2 1.2.6 1.2 1.2zm9-116.5c0 .7-.5 1.2-1.2 1.2s-1.2-.5-1.2-1.2.5-1.2 1.2-1.2c.6 0 1.2.5 1.2 1.2zm0 9c0 .7-.5 1.2-1.2 1.2s-1.2-.5-1.2-1.2.5-1.2 1.2-1.2c.6 0 1.2.5 1.2 1.2zm0 8.9c0 .7-.5 1.2-1.2 1.2s-1.2-.5-1.2-1.2.5-1.2 1.2-1.2c.6 0 1.2.6 1.2 1.2zm0 9c0 .7-.5 1.2-1.2 1.2s-1.2-.5-1.2-1.2.5-1.2 1.2-1.2c.6 0 1.2.5 1.2 1.2zm0 9c0 .7-.5 1.2-1.2 1.2s-1.2-.5-1.2-1.2.5-1.2 1.2-1.2c.6-.1 1.2.5 1.2 1.2zm0 8.9c0 .7-.6 1.2-1.2 1.2-.7 0-1.2-.6-1.2-1.2 0-.7.5-1.2 1.2-1.2.6 0 1.2.5 1.2 1.2zm0 9c0 .7-.5 1.2-1.2 1.2s-1.2-.5-1.2-1.2.5-1.2 1.2-1.2c.6 0 1.2.5 1.2 1.2zm0 9c0 .7-.5 1.2-1.2 1.2s-1.2-.5-1.2-1.2.5-1.2 1.2-1.2c.6-.1 1.2.5 1.2 1.2zm0 8.9c0 .7-.5 1.2-1.2 1.2S87 86 87 85.3s.5-1.2 1.2-1.2c.6 0 1.2.5 1.2 1.2zm0 9c0 .7-.5 1.2-1.2 1.2S87 95 87 94.3s.5-1.2 1.2-1.2c.6 0 1.2.5 1.2 1.2zm0 8.9c0 .7-.5 1.2-1.2 1.2s-1.2-.5-1.2-1.2.5-1.2 1.2-1.2c.6 0 1.2.6 1.2 1.2zm0 9c0 .7-.5 1.2-1.2 1.2s-1.2-.5-1.2-1.2.5-1.2 1.2-1.2c.6 0 1.2.5 1.2 1.2zm0 9c0 .7-.5 1.2-1.2 1.2s-1.2-.5-1.2-1.2.5-1.2 1.2-1.2c.6-.1 1.2.5 1.2 1.2zm0 8.9c0 .7-.5 1.2-1.2 1.2s-1.2-.5-1.2-1.2.5-1.2 1.2-1.2c.6 0 1.2.6 1.2 1.2zm9-116.5c0 .7-.5 1.2-1.2 1.2s-1.2-.5-1.2-1.2.5-1.2 1.2-1.2c.6 0 1.2.5 1.2 1.2zm0 9c0 .7-.5 1.2-1.2 1.2s-1.2-.5-1.2-1.2.5-1.2 1.2-1.2c.6 0 1.2.5 1.2 1.2zm0 8.9c0 .7-.5 1.2-1.2 1.2s-1.2-.5-1.2-1.2.5-1.2 1.2-1.2c.6 0 1.2.6 1.2 1.2zm0 9c0 .7-.5 1.2-1.2 1.2s-1.2-.5-1.2-1.2.5-1.2 1.2-1.2c.6 0 1.2.5 1.2 1.2zm0 9c0 .7-.5 1.2-1.2 1.2s-1.2-.5-1.2-1.2.5-1.2 1.2-1.2c.6-.1 1.2.5 1.2 1.2zm0 8.9c0 .7-.6 1.2-1.2 1.2-.7 0-1.2-.6-1.2-1.2 0-.7.5-1.2 1.2-1.2.6 0 1.2.5 1.2 1.2zm0 9c0 .7-.5 1.2-1.2 1.2s-1.2-.5-1.2-1.2.5-1.2 1.2-1.2c.6 0 1.2.5 1.2 1.2zm0 9c0 .7-.5 1.2-1.2 1.2s-1.2-.5-1.2-1.2.5-1.2 1.2-1.2c.6-.1 1.2.5 1.2 1.2zm0 8.9c0 .7-.5 1.2-1.2 1.2S96 86 96 85.3s.5-1.2 1.2-1.2c.6 0 1.2.5 1.2 1.2zm0 9c0 .7-.5 1.2-1.2 1.2S96 95 96 94.3s.5-1.2 1.2-1.2c.6 0 1.2.5 1.2 1.2zm0 8.9c0 .7-.5 1.2-1.2 1.2s-1.2-.5-1.2-1.2.5-1.2 1.2-1.2c.6 0 1.2.6 1.2 1.2zm0 9c0 .7-.5 1.2-1.2 1.2s-1.2-.5-1.2-1.2.5-1.2 1.2-1.2c.6 0 1.2.5 1.2 1.2zm0 9c0 .7-.5 1.2-1.2 1.2s-1.2-.5-1.2-1.2.5-1.2 1.2-1.2c.6-.1 1.2.5 1.2 1.2zm0 8.9c0 .7-.5 1.2-1.2 1.2s-1.2-.5-1.2-1.2.5-1.2 1.2-1.2c.6 0 1.2.6 1.2 1.2zm9-116.5c0 .7-.5 1.2-1.2 1.2s-1.2-.5-1.2-1.2.5-1.2 1.2-1.2c.6 0 1.2.5 1.2 1.2zm0 9c0 .7-.5 1.2-1.2 1.2s-1.2-.5-1.2-1.2.5-1.2 1.2-1.2c.6 0 1.2.5 1.2 1.2zm0 8.9c0 .7-.5 1.2-1.2 1.2s-1.2-.5-1.2-1.2.5-1.2 1.2-1.2c.6 0 1.2.6 1.2 1.2zm0 9c0 .7-.5 1.2-1.2 1.2s-1.2-.5-1.2-1.2.5-1.2 1.2-1.2c.6 0 1.2.5 1.2 1.2zm0 9c0 .7-.5 1.2-1.2 1.2s-1.2-.5-1.2-1.2.5-1.2 1.2-1.2c.6-.1 1.2.5 1.2 1.2zm0 8.9c0 .7-.5 1.2-1.2 1.2s-1.2-.5-1.2-1.2.5-1.2 1.2-1.2c.6 0 1.2.6 1.2 1.2zm0 9c0 .7-.5 1.2-1.2 1.2s-1.2-.5-1.2-1.2.5-1.2 1.2-1.2c.6 0 1.2.5 1.2 1.2zm0 9c0 .7-.5 1.2-1.2 1.2s-1.2-.5-1.2-1.2.5-1.2 1.2-1.2c.6-.1 1.2.5 1.2 1.2zm0 8.9c0 .7-.5 1.2-1.2 1.2s-1.2-.5-1.2-1.2.5-1.2 1.2-1.2c.6 0 1.2.5 1.2 1.2zm0 9c0 .7-.5 1.2-1.2 1.2s-1.2-.5-1.2-1.2.5-1.2 1.2-1.2c.6 0 1.2.5 1.2 1.2zm0 8.9c0 .7-.5 1.2-1.2 1.2s-1.2-.5-1.2-1.2.5-1.2 1.2-1.2c.6 0 1.2.6 1.2 1.2zm0 9c0 .7-.5 1.2-1.2 1.2s-1.2-.5-1.2-1.2.5-1.2 1.2-1.2c.6 0 1.2.5 1.2 1.2zm0 9c0 .7-.5 1.2-1.2 1.2s-1.2-.5-1.2-1.2.5-1.2 1.2-1.2c.6-.1 1.2.5 1.2 1.2zm0 8.9c0 .7-.5 1.2-1.2 1.2s-1.2-.5-1.2-1.2.5-1.2 1.2-1.2c.6 0 1.2.6 1.2 1.2zm19.9-84.8C143 51.9 154 67.6 156.7 84s-3.1 33.5-14.6 45.6-28.7 19.4-46.4 24.3c-17.8 5-36 7.5-50 2.3S22.1 138.1 13.8 125C5.4 112-1.6 98.8 1.4 87.6c3.1-11.3 16.3-20.5 29.5-27.4s26.4-11.6 43.2-15.1c16.8-3.7 37.4-6.4 53.2.2z"/>
    </g>
    <g class="fr-artwork-motif" id="artwork-motif">
        <path d="M3.1 155.7c-1.4 0-2.4-1.1-2.4-2.5 0-.6.3-1.3.7-1.7.5-.5 1.1-.7 1.7-.7 1.4.1 2.4 1.2 2.4 2.5-.1 1.3-1.1 2.4-2.4 2.4zm0-4.1c-.5 0-.9.2-1.2.5-.7.7-.7 1.8 0 2.4.3.3.8.5 1.2.5.5 0 .9-.2 1.2-.5.3-.3.5-.8.5-1.2 0-1-.7-1.7-1.7-1.7zM126 127.1c-.2 0-.4-.2-.4-.4 0-.1 0-.2.1-.3l1.7-1.7-1.7-1.7c-.2-.2-.2-.5 0-.6.1-.1.2-.1.3-.1h.1l1.9 1.8 1.7-1.7c.2-.2.5-.2.6 0 .1.1.2.3.1.5l-1.8 1.8 1.7 1.7c.2.2.2.5 0 .6-.2.1-.4.1-.6 0l-1.7-1.7-1.7 1.7c-.1.1-.2.1-.3.1zm-98-4.9c-.1 0-.2 0-.3-.1-.2-.2-.2-.5 0-.6l1.7-1.7-1.7-1.7c-.2-.2-.2-.5 0-.6.1-.1.2-.1.3-.1h.1l1.9 1.8 1.7-1.7c.2-.2.5-.2.6 0 .2.2.2.4 0 .6l-1.7 1.7 1.7 1.7c.1.1.1.2.1.3 0 .2-.2.4-.5.4-.1 0-.2 0-.3-.1l-1.7-1.7-1.7 1.7c.1.1 0 .1-.2.1zm100-41.7c-1.4 0-2.5-1.1-2.4-2.5 0-.6.3-1.3.7-1.7.5-.5 1.1-.7 1.7-.7 1.4 0 2.4 1.1 2.4 2.5 0 .6-.3 1.3-.7 1.7-.5.5-1.1.7-1.7.7zm0-4.1c-.5 0-.9.2-1.2.5-.7.7-.7 1.8 0 2.4.7.7 1.8.7 2.4 0 .7-.7.7-1.8 0-2.4-.4-.4-.8-.5-1.2-.5zm24.9-30.2c-.2 0-.4-.2-.4-.4 0-.1 0-.2.1-.3l1.7-1.7-1.7-1.7c-.2-.2-.2-.5 0-.6.1-.1.2-.1.3-.1h.1l1.9 1.8 1.7-1.7c.1-.1.2-.1.3-.1.2 0 .4.2.4.4 0 .1 0 .2-.1.3l-1.7 1.7 1.7 1.7c.2.2.2.5 0 .6-.2.2-.4.2-.6 0l-1.7-1.7-1.7 1.7c-.1 0-.2.1-.3.1zm.1-4.5zM30.2 46.2c-.6 0-1.3-.2-1.8-.6-1-.9-1.1-2.4-.2-3.5.9-1 2.4-1.1 3.5-.2.5.4.8 1 .8 1.7.1 1.3-.9 2.5-2.3 2.6zm-.2-4.4v.2c-.9 0-1.7.8-1.7 1.7 0 .9.8 1.7 1.7 1.7.9 0 1.7-.8 1.7-1.7v-.1c0-.9-.8-1.6-1.7-1.6v-.2z"/>
    </g>

    <g transform="translate(40,60)">
        <style>
		.fr-artwork-decorative {
			fill: #ECECFF;
		}
		.fr-artwork-minor {
			fill: #E1000F;
			fill: #6a6af4;
		}
		.fr-artwork-major {
			fill: #000091;
		}
	</style>
        <g class="fr-artwork-decorative" id="artwork-decorative">
    <path d="M68,13c-0.5514,0-1-0.4486-1-1s0.4486-1,1-1s1,0.4486,1,1S68.5514,13,68,13z M41,76c-0.5514,0-1-0.4486-1-1
	s0.4486-1,1-1s1,0.4486,1,1S41.5514,76,41,76z M15,10c-0.5514,0-1-0.4486-1-1c0-0.55145,0.4486-1,1-1s1,0.44855,1,1
	C16,9.5514,15.5514,10,15,10z"/>
  </g>
        <g class="fr-artwork-minor" id="artwork-minor">
    <path d="M67.11511,65.99359L67,66h-4c-0.55231,0-1-0.44769-1-1c0-0.51282,0.38599-0.93549,0.88342-0.99329L63,64
	h2.38098L55,43.23602L44.61798,64H59c0.51282,0,0.93549,0.38599,0.99329,0.88342L60,65c0,0.51282-0.38599,0.93549-0.88342,0.99329
	L59,66H43c-0.70422,0-1.17529-0.70209-0.94019-1.34143l0.04578-0.10577l12-24c0.34912-0.6983,1.31152-0.73499,1.72522-0.11029
	l0.0636,0.11029l12,24C68.20941,65.18268,67.79199,65.91797,67.11511,65.99359z M56,51c0-0.55231-0.44769-1-1-1s-1,0.44769-1,1v6
	c0,0.55231,0.44769,1,1,1s1-0.44769,1-1V51z M55,60c-0.55231,0-1,0.44769-1,1s0.44769,1,1,1s1-0.44769,1-1S55.55231,60,55,60z"/>
  </g>
        <g class="fr-artwork-major" id="artwork-major">
    <path d="M68,19v34c0,0.55231-0.44769,1-1,1c-0.51282,0-0.93549-0.38599-0.99329-0.88342L66,53V28h-9
	c-0.55231,0-1-0.44769-1-1c0-0.51282,0.38599-0.93549,0.88342-0.99329L57,26h9v-6H14v6h37c0.55231,0,1,0.44769,1,1
	c0,0.51282-0.38599,0.93549-0.88342,0.99329L51,28H14v36h23c0.51282,0,0.93549,0.38599,0.99329,0.88342L38,65
	c0,0.51282-0.38599,0.93549-0.88342,0.99329L37,66H13c-0.51282,0-0.93549-0.38599-0.99329-0.88342L12,65V19
	c0-0.51282,0.38599-0.93549,0.88342-0.99329L13,18h54c0.51282,0,0.93549,0.38599,0.99329,0.88342L68,19z M16,23
	c0,0.55139,0.44861,1,1,1s1-0.44861,1-1s-0.44861-1-1-1S16,22.44861,16,23z M20,23c0,0.55139,0.44861,1,1,1s1-0.44861,1-1
	s-0.44861-1-1-1S20,22.44861,20,23z M24,23c0,0.55139,0.44861,1,1,1s1-0.44861,1-1s-0.44861-1-1-1S24,22.44861,24,23z
	 M63.11658,23.99329C63.61401,23.93549,64,23.51282,64,23c0-0.55231-0.44769-1-1-1H33l-0.11658,0.00671
	C32.38599,22.06451,32,22.48718,32,23c0,0.55231,0.44769,1,1,1h30L63.11658,23.99329z M45,34H21l-0.11658,0.00671
	C20.38599,34.06451,20,34.48718,20,35c0,0.55231,0.44769,1,1,1h24l0.11658-0.00671C45.61401,35.93549,46,35.51282,46,35
	C46,34.44769,45.55231,34,45,34z M41,40H21l-0.11658,0.00671C20.38599,40.06451,20,40.48718,20,41c0,0.55231,0.44769,1,1,1h20
	l0.11658-0.00671C41.61401,41.93549,42,41.51282,42,41C42,40.44769,41.55231,40,41,40z M21,46l-0.11658,0.00671
	C20.38599,46.06451,20,46.48718,20,47c0,0.55231,0.44769,1,1,1h14l0.11658-0.00671C35.61401,47.93549,36,47.51282,36,47
	c0-0.55231-0.44769-1-1-1H21z"/>
  </g>
    </g>
</svg>
