<svg xmlns="http://www.w3.org/2000/svg" xmlns:xlink="http://www.w3.org/1999/xlink"><symbol viewBox="0 0 24 24" aria-labelledby="aaaccount-fill-title" id="account-fill" xmlns="http://www.w3.org/2000/svg"><title id="aaaccount-fill-title">Compte</title><path fill="currentColor" d="M12 2c5.52 0 10 4.48 10 10s-4.48 10-10 10S2 17.52 2 12 6.48 2 12 2zM6.02 15.42C7.5 17.62 9.7 19 12.16 19c2.46 0 4.67-1.4 6.14-3.58-1.67-1.56-3.86-2.42-6.14-2.42s-4.47.86-6.14 2.42zM12 11c1.66 0 3-1.34 3-3s-1.34-3-3-3-3 1.34-3 3 1.34 3 3 3z"/></symbol><symbol viewBox="0 0 24 24" aria-labelledby="abaccount-line-title" id="account-line" xmlns="http://www.w3.org/2000/svg"><title id="abaccount-line-title">Compte</title><path fill="currentColor" fill-rule="evenodd" d="M12 22a10 10 0 110-20 10 10 0 010 20zm-4.99-3.74a7.97 7.97 0 0010.16-.15A6.98 6.98 0 007 18.26zm-1.4-1.44a8.98 8.98 0 0112.91-.19 8 8 0 10-12.9.2v-.01zM12 13a4 4 0 110-8 4 4 0 010 8zm0-2a2 2 0 100-4 2 2 0 000 4z"/></symbol><symbol viewBox="0 0 24 24" aria-labelledby="acadd-circle-line-title" id="add-circle-line" xmlns="http://www.w3.org/2000/svg"><title id="acadd-circle-line-title">Ajouter</title><path fill="#383838" d="M11 11V7h2v4h4v2h-4v4h-2v-4H7v-2h4zm1 11C6.48 22 2 17.52 2 12S6.48 2 12 2s10 4.48 10 10-4.48 10-10 10zm0-2c4.42 0 8-3.58 8-8s-3.58-8-8-8-8 3.58-8 8 3.58 8 8 8z"/></symbol><symbol viewBox="0 0 24 24" aria-labelledby="adalert-fill-title" id="alert-fill" xmlns="http://www.w3.org/2000/svg"><title id="adalert-fill-title">Alerte</title><path fill="currentColor" d="M12.87 3l9.52 16.5c.17.3.17.7 0 1-.2.3-.52.5-.87.5H2.47c-.35 0-.68-.2-.86-.5-.17-.3-.17-.7 0-1L11.14 3c.18-.3.5-.5.87-.5.36 0 .7.2.87.5zM11 16v2h2v-2h-2zm0-7v5h2V9h-2z"/></symbol><symbol viewBox="0 0 24 24" aria-labelledby="aealert-line-title" id="alert-line" xmlns="http://www.w3.org/2000/svg"><title id="aealert-line-title">Alerte</title><path fill="currentColor" d="M12.87 3l9.52 16.5c.17.3.17.7 0 1-.2.3-.52.5-.87.5H2.47c-.35 0-.68-.2-.86-.5-.17-.3-.17-.7 0-1L11.14 3c.18-.3.5-.5.87-.5.36 0 .7.2.87.5zM4.2 19h15.6L12 5.5 4.2 19zm6.8-3h2v2h-2v-2zm0-7h2v5h-2V9z"/></symbol><symbol viewBox="0 0 24 24" aria-labelledby="afarrow-down-line-title" id="arrow-down-line" xmlns="http://www.w3.org/2000/svg"><title id="afarrow-down-line-title">Flèche vers le bas</title><path fill="currentColor" d="M13 16.17l5.36-5.36 1.42 1.42L12 20l-7.78-7.78 1.42-1.4L11 16.16V4h2z"/></symbol><symbol viewBox="0 0 24 24" aria-labelledby="agarrow-down-s-line-title" id="arrow-down-s-line" xmlns="http://www.w3.org/2000/svg"><title id="agarrow-down-s-line-title">Flèche vers le bas</title><path fill="currentColor" d="M12 13.17l4.95-4.95 1.4 1.42L12 16 5.64 9.64l1.4-1.42z"/></symbol><symbol viewBox="0 0 24 24" aria-labelledby="aharrow-left-line-title" id="arrow-left-line" xmlns="http://www.w3.org/2000/svg"><title id="aharrow-left-line-title">Flèche vers la gauche</title><path fill="currentColor" d="M7.83 11H20v2H7.83l5.36 5.36-1.42 1.42L4 12l7.78-7.78 1.4 1.42z"/></symbol><symbol viewBox="0 0 24 24" aria-labelledby="aiarrow-left-s-first-line-title" id="arrow-left-s-first-line" xmlns="http://www.w3.org/2000/svg"><title id="aiarrow-left-s-first-line-title">Première</title><path d="M8 6v12.73H6V6h2zm8.364 0l1.414 1.414-4.95 4.95 4.95 4.95-1.414 1.414L10 12.364 16.364 6z" fill="#383838" fill-rule="evenodd"/></symbol><symbol viewBox="0 0 24 24" aria-labelledby="ajarrow-left-s-line-title" id="arrow-left-s-line" xmlns="http://www.w3.org/2000/svg"><title id="ajarrow-left-s-line-title">Flèche vers la gauche</title><path fill="currentColor" d="M10.83 12l4.95 4.95-1.42 1.4L8 12l6.36-6.36 1.42 1.4z"/></symbol><symbol viewBox="0 0 24 24" aria-labelledby="akarrow-left-s-line-double-title" id="arrow-left-s-line-double" xmlns="http://www.w3.org/2000/svg"><title id="akarrow-left-s-line-double-title">Double flèche vers la gauche</title><path fill="currentColor" d="M13.9 12l5 5-1.4 1.4-6.4-6.4 6.4-6.4L18.9 7l-5 5zm-1-5l-1.4-1.4L5.1 12l6.4 6.4 1.4-1.4-5-5 5-5z"/></symbol><symbol viewBox="0 0 24 24" aria-labelledby="alarrow-right-line-title" id="arrow-right-line" xmlns="http://www.w3.org/2000/svg"><title id="alarrow-right-line-title">Flèche vers la droite</title><path fill="currentColor" fill-rule="evenodd" d="M16.17 11l-5.36-5.36 1.41-1.42L20 12l-7.78 7.78-1.41-1.42L16.17 13H4v-2z"/></symbol><symbol viewBox="0 0 24 24" aria-labelledby="amarrow-right-s-last-line-title" id="arrow-right-s-last-line" xmlns="http://www.w3.org/2000/svg"><title id="amarrow-right-s-last-line-title">Dernière</title><g fill="#383838" fill-rule="evenodd"><path fill="none" d="M2 0h16v8H2z"/><path d="M15.998 6v12.73h2V6h-2zM7.634 6L6.22 7.414l4.95 4.95-4.95 4.95 1.414 1.414 6.364-6.364L7.634 6z"/></g></symbol><symbol viewBox="0 0 24 24" aria-labelledby="anarrow-right-s-line-title" id="arrow-right-s-line" xmlns="http://www.w3.org/2000/svg"><title id="anarrow-right-s-line-title">Flèche vers la droite</title><path fill="currentColor" fill-rule="evenodd" d="M13.17 12L8.22 7.05l1.42-1.41L16 12l-6.36 6.36-1.42-1.41z"/></symbol><symbol viewBox="0 0 24 24" aria-labelledby="aoarrow-right-s-line-double-title" id="arrow-right-s-line-double" xmlns="http://www.w3.org/2000/svg"><title id="aoarrow-right-s-line-double-title">Double flèche vers la droite</title><path fill="currentColor" d="M10.1 12l-5-4.9 1.4-1.4 6.4 6.4-6.4 6.4L5.1 17l5-5zm6 0l-5-4.9 1.4-1.4 6.4 6.4-6.4 6.4-1.4-1.5 5-5z"/></symbol><symbol viewBox="0 0 24 24" id="arrow-right-up-line" xmlns="http://www.w3.org/2000/svg"><path fill="currentColor" fill-rule="evenodd" d="M16 9.41l-8.6 8.61-1.42-1.41L14.58 8H7V6h11v11h-2V9.41z"/></symbol><symbol viewBox="0 0 24 24" aria-labelledby="aqarrow-up-line-title" id="arrow-up-line" xmlns="http://www.w3.org/2000/svg"><title id="aqarrow-up-line-title">Flèche vers le haut</title><path fill="currentColor" d="M13 7.83V20h-2V7.83L5.64 13.2l-1.42-1.42L12 4l7.78 7.78-1.42 1.4z"/></symbol><symbol viewBox="0 0 24 24" aria-labelledby="ararrow-up-s-line-title" id="arrow-up-s-line" xmlns="http://www.w3.org/2000/svg"><title id="ararrow-up-s-line-title">Flèche vers le haut</title><path fill="currentColor" d="M12 10.83l-4.95 4.95-1.4-1.42L12 8l6.36 6.36-1.4 1.42z"/></symbol><symbol viewBox="0 0 24 24" aria-labelledby="ascalendar-fill-title" id="calendar-fill" xmlns="http://www.w3.org/2000/svg"><title id="ascalendar-fill-title">Calendrier</title><path fill="currentColor" fill-rule="evenodd" d="M2 11h20v9a1 1 0 01-1 1H3a1 1 0 01-1-1v-9zm15-8h4a1 1 0 011 1v5H2V4a1 1 0 011-1h4V1h2v2h6V1h2v2z"/></symbol><symbol viewBox="0 0 24 24" aria-labelledby="atcalendar-line-title" id="calendar-line" xmlns="http://www.w3.org/2000/svg"><title id="atcalendar-line-title">Calendrier</title><path fill="currentColor" d="M17 3h4c.55 0 1 .45 1 1v16c0 .55-.45 1-1 1H3c-.55 0-1-.45-1-1V4c0-.55.45-1 1-1h4V1h2v2h6V1h2v2zm-2 2H9v2H7V5H4v4h16V5h-3v2h-2V5zm5 6H4v8h16v-8z"/></symbol><symbol viewBox="0 0 24 24" aria-labelledby="aucheck-line-title" id="check-line" xmlns="http://www.w3.org/2000/svg"><title id="aucheck-line-title">Coché</title><path fill="currentColor" d="M10 15.17l9.2-9.2 1.4 1.42L10 18l-6.36-6.36 1.4-1.42z"/></symbol><symbol viewBox="0 0 24 24" aria-labelledby="avcheckbox-line-title" id="checkbox-line" xmlns="http://www.w3.org/2000/svg"><title id="avcheckbox-line-title">Coché</title><path fill="currentColor" d="M12 22C6.48 22 2 17.52 2 12S6.48 2 12 2s10 4.48 10 10-4.48 10-10 10zm0-2c4.42 0 8-3.58 8-8s-3.58-8-8-8-8 3.58-8 8 3.58 8 8 8zm-1-4l-4.24-4.24 1.4-1.42L11 13.17l5.66-5.66 1.4 1.43L11 16z"/></symbol><symbol viewBox="0 0 24 24" aria-labelledby="awclose-circle-line-title" id="close-circle-line" xmlns="http://www.w3.org/2000/svg"><title id="awclose-circle-line-title">Fermer</title><path fill="currentColor" d="M12 22C6.48 22 2 17.52 2 12S6.48 2 12 2s10 4.48 10 10-4.48 10-10 10zm0-2c4.42 0 8-3.58 8-8s-3.58-8-8-8-8 3.58-8 8 3.58 8 8 8zm0-9.4l2.83-2.84 1.4 1.4L13.42 12l2.84 2.83-1.4 1.4L12 13.42l-2.83 2.84-1.4-1.4L10.58 12 7.75 9.17l1.4-1.4L12 10.58z"/></symbol><symbol viewBox="0 0 24 24" aria-labelledby="axclose-line-title" id="close-line" xmlns="http://www.w3.org/2000/svg"><title id="axclose-line-title">Fermer</title><path fill="currentColor" d="M12 10.6l4.95-4.96 1.4 1.4L13.42 12l4.96 4.95-1.4 1.4L12 13.42l-4.95 4.96-1.4-1.4L10.58 12 5.63 7.05l1.4-1.4z"/></symbol><symbol viewBox="0 0 24 24" aria-labelledby="aydelete-fill-title" id="delete-fill" xmlns="http://www.w3.org/2000/svg"><title id="aydelete-fill-title">Supprimer</title><path fill="currentColor" fill-rule="evenodd" d="M17 4h5v2h-2v15a1 1 0 01-1 1H5a1 1 0 01-1-1V6H2V4h5V2h10v2zM9 9v8h2V9H9zm4 0v8h2V9h-2z"/></symbol><symbol viewBox="0 0 24 24" aria-labelledby="azdelete-line-title" id="delete-line" xmlns="http://www.w3.org/2000/svg"><title id="azdelete-line-title">Supprimer</title><path fill="currentColor" fill-rule="evenodd" d="M7 4V2h10v2h5v2h-2v15a1 1 0 01-1 1H5a1 1 0 01-1-1V6H2V4h5zM6 6v14h12V6H6zm3 3h2v8H9V9zm4 0h2v8h-2V9z"/></symbol><symbol viewBox="0 0 24 24" aria-labelledby="badownload-line-title" id="download-line" xmlns="http://www.w3.org/2000/svg"><title id="badownload-line-title">Télécharger</title><path fill="currentColor" d="M3 19h18v2H3v-2zm10-5.83l6.07-6.07 1.4 1.4L12 17 3.5 8.5l1.43-1.4L11 13.17V2h2v11.17z"/></symbol><symbol viewBox="0 0 24 24" aria-labelledby="bbedit-fill-title" id="edit-fill" xmlns="http://www.w3.org/2000/svg"><title id="bbedit-fill-title">Editer</title><path fill="currentColor" d="M7.24 18H3v-4.24L14.44 2.32c.4-.4 1.02-.4 1.4 0l2.84 2.83c.4.4.4 1.02 0 1.4L7.24 18zM3 20h18v2H3v-2z"/></symbol><symbol viewBox="0 0 24 24" aria-labelledby="bcedit-line-title" id="edit-line" xmlns="http://www.w3.org/2000/svg"><title id="bcedit-line-title">Editer</title><path fill="currentColor" fill-rule="evenodd" d="M6.41 16L16.56 5.86l-1.42-1.42L5 14.6V16h1.41zm.83 2H3v-4.24L14.44 2.32a1 1 0 011.4 0l2.84 2.83a1 1 0 010 1.41L7.24 18zM3 20h18v2H3v-2z"/></symbol><symbol viewBox="0 0 24 24" aria-labelledby="bdexternal-link-line-title" id="external-link-line" xmlns="http://www.w3.org/2000/svg"><title id="bdexternal-link-line-title">Lien externe</title><path fill="currentColor" d="M10 6v2H5v11h11v-5h2v6c0 .55-.45 1-1 1H4c-.55 0-1-.45-1-1V7c0-.55.45-1 1-1h6zm11-3v8h-2V6.4l-7.8 7.8-1.4-1.4L17.6 5H13V3h8z"/></symbol><symbol viewBox="0 0 24 24" aria-labelledby="beeye-line-title" id="eye-line" xmlns="http://www.w3.org/2000/svg"><title id="beeye-line-title">Oeil</title><path fill="currentColor" d="M12 3c5.4 0 9.88 3.88 10.82 9-.94 5.12-5.43 9-10.82 9-5.4 0-9.88-3.88-10.82-9C2.12 6.88 6.6 3 12 3zm0 16c4.2 0 7.84-2.9 8.78-7a9.006 9.006 0 00-17.56 0c.94 4.1 4.58 7 8.78 7zm0-2.5c-2.5 0-4.5-2-4.5-4.5s2-4.5 4.5-4.5 4.5 2 4.5 4.5-2 4.5-4.5 4.5zm0-2a2.5 2.5 0 000-5 2.5 2.5 0 000 5z"/></symbol><symbol viewBox="0 0 24 24" aria-labelledby="bfeye-off-line-title" id="eye-off-line" xmlns="http://www.w3.org/2000/svg"><title id="bfeye-off-line-title">Oeil</title><path fill="currentColor" fill-rule="evenodd" d="M17.88 19.3A11 11 0 011.18 12c.43-2.33 1.6-4.46 3.34-6.07L1.4 2.81l1.42-1.42 19.8 19.8-1.42 1.42-3.3-3.31zM5.93 7.35A8.97 8.97 0 003.23 12a9 9 0 0013.2 5.84L14.4 15.8a4.5 4.5 0 01-6.21-6.2L5.93 7.34zm6.98 6.98l-3.24-3.24a2.5 2.5 0 003.24 3.24zm7.9 2.26l-1.43-1.43a8.93 8.93 0 001.4-3.16A9 9 0 009.55 5.34L7.97 3.76A10.99 10.99 0 0122.82 12c-.3 1.67-1 3.24-2.01 4.6zm-9.09-9.08a4.5 4.5 0 014.77 4.77L11.72 7.5z"/></symbol><symbol viewBox="0 0 24 24" aria-labelledby="bgfile-download-fill-title" id="file-download-fill" xmlns="http://www.w3.org/2000/svg"><title id="bgfile-download-fill-title">Télécharger le fichier</title><path fill="currentColor" fill-rule="evenodd" d="M16 2l5 5v14a1 1 0 01-1 1H4a1 1 0 01-1-1V3a1 1 0 011-1h12zm-3 10V8h-2v4H8l4 4 4-4h-3z"/></symbol><symbol viewBox="0 0 24 24" aria-labelledby="bhfile-download-line-title" id="file-download-line" xmlns="http://www.w3.org/2000/svg"><title id="bhfile-download-line-title">Téléchargement fichier</title><path fill="currentColor" d="M13 12h3l-4 4-4-4h3V8h2v4zm2-8H5v16h14V8h-4V4zM3 3c0-.56.45-1 1-1h12l5 5v14c0 .26-.1.5-.3.7-.17.2-.43.3-.7.3H4c-.55 0-1-.45-1-1V3z"/></symbol><symbol viewBox="0 0 24 24" aria-labelledby="bifile-fill-title" id="file-fill" xmlns="http://www.w3.org/2000/svg"><title id="bifile-fill-title">Fichier</title><path fill="currentColor" d="M3 9h6c.55 0 1-.45 1-1V2h10c.55 0 1 .45 1 1v18c0 .56-.44 1-1 1H4c-.27 0-.53-.1-.7-.3A.97.97 0 013 21V9zm0-2l5-5v5H3z"/></symbol><symbol viewBox="0 0 24 24" aria-labelledby="bjfile-line-title" id="file-line" xmlns="http://www.w3.org/2000/svg"><title id="bjfile-line-title">Fichier</title><path fill="currentColor" fill-rule="evenodd" d="M3 8l6-6h11a1 1 0 011 1v18a1 1 0 01-1 1H4a1 1 0 01-1-1V8zm7-4v5H5v11h14V4h-9z"/></symbol><symbol viewBox="0 0 24 24" aria-labelledby="bkfile-pdf-fill-title" id="file-pdf-fill" xmlns="http://www.w3.org/2000/svg"><title id="bkfile-pdf-fill-title">Fichier PDF</title><path fill="none" d="M0 0h24v24H0z"/><path d="M16 2l5 5v14.008a.993.993 0 01-.993.992H3.993A1 1 0 013 21.008V2.992C3 2.444 3.445 2 3.993 2H16zm-4 14a4 4 0 100-8H8v8h4zm-2-6h2a2 2 0 110 4h-2v-4z" fill="currentColor"/></symbol><symbol viewBox="0 0 24 24" aria-labelledby="blfile-pdf-line-title" id="file-pdf-line" xmlns="http://www.w3.org/2000/svg"><title id="blfile-pdf-line-title">Fichier PDF</title><path fill="none" d="M0 0h24v24H0z"/><path d="M12 16H8V8h4a4 4 0 110 8zm-2-6v4h2a2 2 0 100-4h-2zm5-6H5v16h14V8h-4V4zM3 2.992C3 2.444 3.447 2 3.999 2H16l5 5v13.993A1 1 0 0120.007 22H3.993A1 1 0 013 21.008V2.992z" fill="currentColor"/></symbol><symbol viewBox="0 0 24 24" aria-labelledby="bminformation-fill-title" id="information-fill" xmlns="http://www.w3.org/2000/svg"><title id="bminformation-fill-title">Information</title><path fill="currentColor" d="M12 22C6.48 22 2 17.52 2 12S6.48 2 12 2s10 4.48 10 10-4.48 10-10 10zm-1-11v6h2v-6h-2zm0-4v2h2V7h-2z"/></symbol><symbol viewBox="0 0 24 24" aria-labelledby="bninformation-line-title" id="information-line" xmlns="http://www.w3.org/2000/svg"><title id="bninformation-line-title">Information</title><path fill="currentColor" d="M12 22C6.48 22 2 17.52 2 12S6.48 2 12 2s10 4.48 10 10-4.48 10-10 10zm0-2c4.42 0 8-3.58 8-8s-3.58-8-8-8-8 3.58-8 8 3.58 8 8 8zM11 7h2v2h-2V7zm0 4h2v6h-2v-6z"/></symbol><symbol viewBox="0 0 24 24" aria-labelledby="bolock-fill-title" id="lock-fill" xmlns="http://www.w3.org/2000/svg"><title id="bolock-fill-title">Cadenas</title><path fill="currentColor" fill-rule="evenodd" d="M19 10h1a1 1 0 011 1v10a1 1 0 01-1 1H4a1 1 0 01-1-1V11a1 1 0 011-1h1V9a7 7 0 0114 0v1zm-2 0V9A5 5 0 107 9v1h10zm-6 4v4h2v-4h-2z"/></symbol><symbol viewBox="0 0 24 24" aria-labelledby="bplock-line-title" id="lock-line" xmlns="http://www.w3.org/2000/svg"><title id="bplock-line-title">Cadenas</title><path fill="currentColor" fill-rule="evenodd" d="M19 10h1a1 1 0 011 1v10a1 1 0 01-1 1H4a1 1 0 01-1-1V11a1 1 0 011-1h1V9a7 7 0 0114 0v1zM5 12v8h14v-8H5zm6 2h2v4h-2v-4zm6-4V9A5 5 0 107 9v1h10z"/></symbol><symbol viewBox="0 0 24 24" aria-labelledby="bqmail-fill-title" id="mail-fill" xmlns="http://www.w3.org/2000/svg"><title id="bqmail-fill-title">Courriel</title><path fill="currentColor" d="M3 3h18c.55 0 1 .45 1 1v16c0 .55-.45 1-1 1H3c-.55 0-1-.45-1-1V4c0-.55.45-1 1-1zm9.06 8.68l-6.4-5.44-1.3 1.52 7.7 6.56 7.6-6.56-1.3-1.52-6.3 5.44z"/></symbol><symbol viewBox="0 0 24 24" aria-labelledby="brmail-line-title" id="mail-line" xmlns="http://www.w3.org/2000/svg"><title id="brmail-line-title">Courriel</title><path fill="currentColor" fill-rule="evenodd" d="M3 3h18a1 1 0 011 1v16a1 1 0 01-1 1H3a1 1 0 01-1-1V4a1 1 0 011-1zm17 4.24l-7.93 7.1L4 7.22V19h16V7.24zM4.51 5l7.55 6.66L19.5 5H4.51z"/></symbol><symbol viewBox="0 0 24 24" aria-labelledby="bsmenu-2-fill-title" id="menu-2-fill" xmlns="http://www.w3.org/2000/svg"><title id="bsmenu-2-fill-title">Menu</title><path fill="currentColor" d="M3 4h18v2H3V4zm0 7h12v2H3v-2zm0 7h18v2H3v-2z"/></symbol><symbol viewBox="0 0 24 24" aria-labelledby="btmenu-fill-title" id="menu-fill" xmlns="http://www.w3.org/2000/svg"><title id="btmenu-fill-title">Menu</title><path fill="currentColor" d="M3 4h18v2H3V4zm0 7h18v2H3v-2zm0 7h18v2H3v-2z"/></symbol><symbol viewBox="0 0 24 24" aria-labelledby="bupause-circle-fill-title" id="pause-circle-fill" xmlns="http://www.w3.org/2000/svg"><title id="bupause-circle-fill-title">Mettre en pause</title><path fill="none" d="M0 0h24v24H0z"/><path d="M12 22C6.477 22 2 17.523 2 12S6.477 2 12 2s10 4.477 10 10-4.477 10-10 10zM9 9v6h2V9H9zm4 0v6h2V9h-2z" fill="currentColor"/></symbol><symbol viewBox="0 0 24 24" aria-labelledby="bvpause-circle-line-title" id="pause-circle-line" xmlns="http://www.w3.org/2000/svg"><title id="bvpause-circle-line-title">Mettre en pause</title><path fill="none" d="M0 0h24v24H0z"/><path d="M12 22C6.477 22 2 17.523 2 12S6.477 2 12 2s10 4.477 10 10-4.477 10-10 10zm0-2a8 8 0 100-16 8 8 0 000 16zM9 9h2v6H9V9zm4 0h2v6h-2V9z" fill="currentColor"/></symbol><symbol viewBox="0 0 24 24" aria-labelledby="bwplay-fill-title" id="play-fill" xmlns="http://www.w3.org/2000/svg"><title id="bwplay-fill-title">Lire</title><path fill="currentColor" d="M12 22C6.48 22 2 17.52 2 12S6.48 2 12 2s10 4.48 10 10-4.48 10-10 10zM10.62 8.4a.407.407 0 00-.4 0c-.14.06-.22.2-.22.35v6.5c0 .15.08.3.2.36.14.07.3.07.42 0l4.88-3.27c.1-.07.18-.2.18-.33s-.07-.26-.18-.33L10.62 8.4z"/></symbol><symbol viewBox="0 0 24 24" aria-labelledby="bxplay-line-title" id="play-line" xmlns="http://www.w3.org/2000/svg"><title id="bxplay-line-title">Lire</title><path fill="currentColor" d="M12 22C6.48 22 2 17.52 2 12S6.48 2 12 2s10 4.48 10 10-4.48 10-10 10zm0-2c4.42 0 8-3.58 8-8s-3.58-8-8-8-8 3.58-8 8 3.58 8 8 8zM10.62 8.4l4.88 3.27c.1.07.18.2.18.33s-.07.26-.18.33l-4.88 3.26c-.12.07-.28.07-.4 0a.373.373 0 01-.22-.35v-6.5c0-.15.08-.3.2-.36.14-.07.3-.07.42 0z"/></symbol><symbol viewBox="0 0 24 24" aria-labelledby="byprinter-fill-title" id="printer-fill" xmlns="http://www.w3.org/2000/svg"><title id="byprinter-fill-title">Imprimer</title><path fill="currentColor" d="M7 17h10v5H7v-5zm12 3v-5H5v5H3c-.55 0-1-.45-1-1V9c0-.55.45-1 1-1h18c.55 0 1 .45 1 1v10c0 .55-.45 1-1 1h-2zM5 10v2h3v-2H5zm2-8h10c.55 0 1 .45 1 1v3H6V3c0-.55.45-1 1-1z"/></symbol><symbol viewBox="0 0 24 24" aria-labelledby="bzprinter-line-title" id="printer-line" xmlns="http://www.w3.org/2000/svg"><title id="bzprinter-line-title">Imprimer</title><path fill="currentColor" d="M6 19H3c-.55 0-1-.45-1-1V8c0-.55.45-1 1-1h3V3c0-.55.45-1 1-1h10c.55 0 1 .45 1 1v4h3c.55 0 1 .45 1 1v10c0 .55-.45 1-1 1h-3v2c0 .55-.45 1-1 1H7c-.55 0-1-.45-1-1v-2zm0-2v-1c0-.55.45-1 1-1h10c.55 0 1 .45 1 1v1h2V9H4v8h2zM8 4v3h8V4H8zm0 13v3h8v-3H8zm-3-7h3v2H5v-2z"/></symbol><symbol viewBox="0 0 24 24" aria-labelledby="caquestion-fill-title" id="question-fill" xmlns="http://www.w3.org/2000/svg"><title id="caquestion-fill-title">Question</title><path fill="currentColor" fill-rule="evenodd" d="M12 22a10 10 0 110-20 10 10 0 010 20zm-1-7v2h2v-2h-2zm2-1.64A3.5 3.5 0 108.57 9.3l1.96.4A1.5 1.5 0 1112 11.5a1 1 0 00-1 1V14h2v-.64z"/></symbol><symbol viewBox="0 0 24 24" aria-labelledby="cbquestion-line-title" id="question-line" xmlns="http://www.w3.org/2000/svg"><title id="cbquestion-line-title">Question</title><path fill="currentColor" fill-rule="evenodd" d="M12 22a10 10 0 110-20 10 10 0 010 20zm0-2a8 8 0 100-16 8 8 0 000 16zm-1-5h2v2h-2v-2zm2-1.64V14h-2v-1.5a1 1 0 011-1 1.5 1.5 0 10-1.47-1.8l-1.96-.39A3.5 3.5 0 1113 13.35z"/></symbol><symbol viewBox="0 0 24 24" aria-labelledby="ccrefresh-fill-title" id="refresh-fill" xmlns="http://www.w3.org/2000/svg"><title id="ccrefresh-fill-title">Actualiser</title><path fill="currentColor" fill-rule="evenodd" d="M12 22a10 10 0 110-20 10 10 0 010 20zm4.82-4.92A7 7 0 009.03 5.66l.98 1.75A5 5 0 0117 12h-3l2.82 5.08zm-1.85 1.26l-.98-1.75A5 5 0 017 12h3L7.18 6.92a7 7 0 007.79 11.42z"/></symbol><symbol viewBox="0 0 24 24" aria-labelledby="cdrefresh-line-title" id="refresh-line" xmlns="http://www.w3.org/2000/svg"><title id="cdrefresh-line-title">Actualiser</title><path fill="currentColor" fill-rule="evenodd" d="M5.46 4.43a10 10 0 0114.73 13.3L17 12.01h3A8 8 0 006.46 6.23l-1-1.8zm13.08 15.14A10 10 0 013.8 6.27L7 11.99H4a8 8 0 0013.54 5.77l1 1.8z"/></symbol><symbol viewBox="0 0 24 24" aria-labelledby="cesave-fill-title" id="save-fill" xmlns="http://www.w3.org/2000/svg"><title id="cesave-fill-title">Sauvegarder</title><path fill="currentColor" d="M18 21v-8H6v8H4c-.55 0-1-.45-1-1V4c0-.55.45-1 1-1h13l4 4v13c0 .55-.45 1-1 1h-2zm-2 0H8v-6h8v6z"/></symbol><symbol viewBox="0 0 24 24" aria-labelledby="cfsave-line-title" id="save-line" xmlns="http://www.w3.org/2000/svg"><title id="cfsave-line-title">Sauvegarder</title><path fill="currentColor" d="M7 19v-6h10v6h2V7.83L16.17 5H5v14h2zM4 3h13l4 4v13c0 .55-.45 1-1 1H4c-.55 0-1-.45-1-1V4c0-.55.45-1 1-1zm5 12v4h6v-4H9z"/></symbol><symbol viewBox="0 0 24 24" aria-labelledby="cgsearch-fill-title" id="search-fill" xmlns="http://www.w3.org/2000/svg"><title id="cgsearch-fill-title">Rechercher</title><path fill="currentColor" d="M18.03 16.62l4.28 4.28-1.4 1.4-4.28-4.27A9.097 9.097 0 0111 20a9 9 0 119-9c0 2.04-.7 4.02-1.97 5.62z"/></symbol><symbol viewBox="0 0 24 24" aria-labelledby="chsearch-line-title" id="search-line" xmlns="http://www.w3.org/2000/svg"><title id="chsearch-line-title">Rechercher</title><path d="M18.031 16.617l4.283 4.282-1.415 1.415-4.282-4.283A8.96 8.96 0 0111 20c-4.968 0-9-4.032-9-9s4.032-9 9-9 9 4.032 9 9a8.96 8.96 0 01-1.969 5.617zm-2.006-.742A6.977 6.977 0 0018 11c0-3.868-3.133-7-7-7-3.868 0-7 3.132-7 7 0 3.867 3.132 7 7 7a6.977 6.977 0 004.875-1.975l.15-.15z" fill="currentColor" fill-rule="evenodd"/></symbol><symbol viewBox="0 0 24 24" aria-labelledby="ciuser-fill-title" id="user-fill" xmlns="http://www.w3.org/2000/svg"><title id="ciuser-fill-title">Utilisateur</title><path fill="none" d="M0 0h24v24H0z"/><path d="M4 22a8 8 0 1116 0H4zm8-9c-3.315 0-6-2.685-6-6s2.685-6 6-6 6 2.685 6 6-2.685 6-6 6z" fill="currentColor"/></symbol><symbol viewBox="0 0 24 24" aria-labelledby="cjuser-line-title" id="user-line" xmlns="http://www.w3.org/2000/svg"><title id="cjuser-line-title">Utilisateur</title><path fill="none" d="M0 0h24v24H0z"/><path d="M4 22a8 8 0 1116 0h-2a6 6 0 10-12 0H4zm8-9c-3.315 0-6-2.685-6-6s2.685-6 6-6 6 2.685 6 6-2.685 6-6 6zm0-2c2.21 0 4-1.79 4-4s-1.79-4-4-4-4 1.79-4 4 1.79 4 4 4z" fill="currentColor"/></symbol><symbol viewBox="0 0 24 24" aria-labelledby="ckvolume-down-fill-title" id="volume-down-fill" xmlns="http://www.w3.org/2000/svg"><title id="ckvolume-down-fill-title">Baisser le son</title><path fill="none" d="M0 0h24v24H0z"/><path d="M8.889 16H5a1 1 0 01-1-1V9a1 1 0 011-1h3.889l5.294-4.332a.5.5 0 01.817.387v15.89a.5.5 0 01-.817.387L8.89 16zm9.974.591l-1.422-1.422A3.993 3.993 0 0019 12c0-1.43-.75-2.685-1.88-3.392l1.439-1.439A5.991 5.991 0 0121 12c0 1.842-.83 3.49-2.137 4.591z" fill="currentColor"/></symbol><symbol viewBox="0 0 24 24" aria-labelledby="clvolume-down-line-title" id="volume-down-line" xmlns="http://www.w3.org/2000/svg"><title id="clvolume-down-line-title">Baisser le son</title><path fill="none" d="M0 0h24v24H0z"/><path d="M13 7.22L9.603 10H6v4h3.603L13 16.78V7.22zM8.889 16H5a1 1 0 01-1-1V9a1 1 0 011-1h3.889l5.294-4.332a.5.5 0 01.817.387v15.89a.5.5 0 01-.817.387L8.89 16zm9.974.591l-1.422-1.422A3.993 3.993 0 0019 12c0-1.43-.75-2.685-1.88-3.392l1.439-1.439A5.991 5.991 0 0121 12c0 1.842-.83 3.49-2.137 4.591z" fill="currentColor"/></symbol><symbol viewBox="0 0 24 24" aria-labelledby="cmvolume-mute-fill-title" id="volume-mute-fill" xmlns="http://www.w3.org/2000/svg"><title id="cmvolume-mute-fill-title">Couper le son</title><path fill="none" d="M0 0h24v24H0z"/><path d="M5.889 16H2a1 1 0 01-1-1V9a1 1 0 011-1h3.889l5.294-4.332a.5.5 0 01.817.387v15.89a.5.5 0 01-.817.387L5.89 16zm14.525-4l3.536 3.536-1.414 1.414L19 13.414l-3.536 3.536-1.414-1.414L17.586 12 14.05 8.464l1.414-1.414L19 10.586l3.536-3.536 1.414 1.414L20.414 12z" fill="currentColor"/></symbol><symbol viewBox="0 0 24 24" aria-labelledby="cnvolume-mute-line-title" id="volume-mute-line" xmlns="http://www.w3.org/2000/svg"><title id="cnvolume-mute-line-title">Couper le son</title><path fill="none" d="M0 0h24v24H0z"/><path d="M10 7.22L6.603 10H3v4h3.603L10 16.78V7.22zM5.889 16H2a1 1 0 01-1-1V9a1 1 0 011-1h3.889l5.294-4.332a.5.5 0 01.817.387v15.89a.5.5 0 01-.817.387L5.89 16zm14.525-4l3.536 3.536-1.414 1.414L19 13.414l-3.536 3.536-1.414-1.414L17.586 12 14.05 8.464l1.414-1.414L19 10.586l3.536-3.536 1.414 1.414L20.414 12z" fill="currentColor"/></symbol><symbol viewBox="0 0 24 24" aria-labelledby="covolume-up-fill-title" id="volume-up-fill" xmlns="http://www.w3.org/2000/svg"><title id="covolume-up-fill-title">Monter le son</title><path fill="none" d="M0 0h24v24H0z"/><path d="M5.889 16H2a1 1 0 01-1-1V9a1 1 0 011-1h3.889l5.294-4.332a.5.5 0 01.817.387v15.89a.5.5 0 01-.817.387L5.89 16zm13.517 4.134l-1.416-1.416A8.978 8.978 0 0021 12a8.982 8.982 0 00-3.304-6.968l1.42-1.42A10.976 10.976 0 0123 12c0 3.223-1.386 6.122-3.594 8.134zm-3.543-3.543l-1.422-1.422A3.993 3.993 0 0016 12c0-1.43-.75-2.685-1.88-3.392l1.439-1.439A5.991 5.991 0 0118 12c0 1.842-.83 3.49-2.137 4.591z" fill="currentColor"/></symbol><symbol viewBox="0 0 24 24" aria-labelledby="cpvolume-up-line-title" id="volume-up-line" xmlns="http://www.w3.org/2000/svg"><title id="cpvolume-up-line-title">Monter le son</title><path fill="none" d="M0 0h24v24H0z"/><path d="M10 7.22L6.603 10H3v4h3.603L10 16.78V7.22zM5.889 16H2a1 1 0 01-1-1V9a1 1 0 011-1h3.889l5.294-4.332a.5.5 0 01.817.387v15.89a.5.5 0 01-.817.387L5.89 16zm13.517 4.134l-1.416-1.416A8.978 8.978 0 0021 12a8.982 8.982 0 00-3.304-6.968l1.42-1.42A10.976 10.976 0 0123 12c0 3.223-1.386 6.122-3.594 8.134zm-3.543-3.543l-1.422-1.422A3.993 3.993 0 0016 12c0-1.43-.75-2.685-1.88-3.392l1.439-1.439A5.991 5.991 0 0118 12c0 1.842-.83 3.49-2.137 4.591z"/></symbol></svg>