<svg viewBox="0 0 451 361" xmlns="http://www.w3.org/2000/svg">
    <g fill="none" fill-rule="evenodd">
        <g style="fill:var(--g100-g800)" fill="#F9F6F2">
            <path d="M314.928 82.392c39.001 16.126 66.446 54.544 73.09 94.622 6.645 40.079-7.8 81.817-36.4 111.46-28.6 29.644-71.357 47.43-115.27 59.288-44.2 12.095-89.557 18.26-124.225 5.691-34.667-12.568-58.646-44.11-79.446-76.124-20.8-31.779-38.423-64.03-30.912-91.54 7.8-27.51 40.445-50.039 73.38-66.876 32.934-16.838 65.579-28.221 107.469-36.996 41.89-9.011 93.024-15.414 132.314.475z"/>
            <path d="M119.241 349.616a3.646 3.646 0 1 1 0 7.291 3.646 3.646 0 0 1 0-7.29zm21.875 0a3.646 3.646 0 1 1 0 7.291 3.646 3.646 0 0 1 0-7.29zm21.874 0a3.646 3.646 0 1 1 0 7.291 3.646 3.646 0 0 1 0-7.29zm21.874 0a3.646 3.646 0 1 1 0 7.291 3.646 3.646 0 0 1 0-7.29zm21.874 0a3.646 3.646 0 1 1 0 7.291 3.646 3.646 0 0 1 0-7.29zm21.874 0a3.646 3.646 0 1 1 0 7.291 3.646 3.646 0 0 1 0-7.29zm21.875 0a3.646 3.646 0 1 1 0 7.291 3.646 3.646 0 0 1 0-7.29zm21.874 0a3.646 3.646 0 1 1 0 7.291 3.646 3.646 0 0 1 0-7.29zm21.874 0a3.646 3.646 0 1 1 0 7.291 3.646 3.646 0 0 1 0-7.29zm21.874 0a3.646 3.646 0 1 1 0 7.291 3.646 3.646 0 0 1 0-7.29zm21.874 0a3.646 3.646 0 1 1 0 7.291 3.646 3.646 0 0 1 0-7.29zm21.875 0a3.646 3.646 0 1 1 0 7.291 3.646 3.646 0 0 1 0-7.29zm21.874 0a3.646 3.646 0 1 1 0 7.291 3.646 3.646 0 0 1 0-7.29zm21.874 0a3.646 3.646 0 1 1 0 7.291 3.646 3.646 0 0 1 0-7.29zm21.874 0a3.646 3.646 0 1 1 0 7.291 3.646 3.646 0 0 1 0-7.29zm21.874 0a3.646 3.646 0 1 1 0 7.291 3.646 3.646 0 0 1 0-7.29zm-153.119-21.874a3.646 3.646 0 1 1 0 7.291 3.646 3.646 0 0 1 0-7.291zm21.874 0a3.646 3.646 0 1 1 0 7.291 3.646 3.646 0 0 1 0-7.291zm21.874 0a3.646 3.646 0 1 1 0 7.291 3.646 3.646 0 0 1 0-7.291zm21.875 0a3.646 3.646 0 1 1 0 7.291 3.646 3.646 0 0 1 0-7.291zm-240.617 0a3.646 3.646 0 1 1 0 7.291 3.646 3.646 0 0 1 0-7.291zm43.749 0a3.646 3.646 0 1 1 0 7.291 3.646 3.646 0 0 1 0-7.291zm43.748 0a3.646 3.646 0 1 1 0 7.291 3.646 3.646 0 0 1 0-7.291zm43.749 0a3.646 3.646 0 1 1 0 7.291 3.646 3.646 0 0 1 0-7.291zm21.874 0a3.646 3.646 0 1 1 0 7.291 3.646 3.646 0 0 1 0-7.291zm131.245 0a3.646 3.646 0 1 1 0 7.291 3.646 3.646 0 0 1 0-7.291zm-262.49 0a3.646 3.646 0 1 1 0 7.291 3.646 3.646 0 0 1 0-7.291zm284.364 0a3.646 3.646 0 1 1 0 7.291 3.646 3.646 0 0 1 0-7.291zm-240.616 0a3.646 3.646 0 1 1 0 7.291 3.646 3.646 0 0 1 0-7.291zm262.49 0a3.646 3.646 0 1 1 0 7.291 3.646 3.646 0 0 1 0-7.291zm-218.742 0a3.646 3.646 0 1 1 0 7.291 3.646 3.646 0 0 1 0-7.291zm153.12 0a3.646 3.646 0 1 1 0 7.291 3.646 3.646 0 0 1 0-7.291zM162.99 305.868a3.646 3.646 0 1 1 0 7.291 3.646 3.646 0 0 1 0-7.291zm43.748 0a3.646 3.646 0 1 1 0 7.291 3.646 3.646 0 0 1 0-7.291zm21.874 0a3.646 3.646 0 1 1 0 7.291 3.646 3.646 0 0 1 0-7.291zm21.875 0a3.646 3.646 0 1 1 0 7.291 3.646 3.646 0 0 1 0-7.291zm21.874 0a3.646 3.646 0 1 1 0 7.291 3.646 3.646 0 0 1 0-7.291zm-153.12 0a3.646 3.646 0 1 1 0 7.291 3.646 3.646 0 0 1 0-7.291zm21.875 0a3.646 3.646 0 1 1 0 7.291 3.646 3.646 0 0 1 0-7.291zm43.748 0a3.646 3.646 0 1 1 0 7.291 3.646 3.646 0 0 1 0-7.291zm109.371 0a3.646 3.646 0 1 1 0 7.291 3.646 3.646 0 0 1 0-7.291zm21.874 0a3.646 3.646 0 1 1 0 7.291 3.646 3.646 0 0 1 0-7.291zm21.874 0a3.646 3.646 0 1 1 0 7.291 3.646 3.646 0 0 1 0-7.291zm21.875 0a3.646 3.646 0 1 1 0 7.291 3.646 3.646 0 0 1 0-7.291zm21.874 0a3.646 3.646 0 1 1 0 7.291 3.646 3.646 0 0 1 0-7.291zm21.874 0a3.646 3.646 0 1 1 0 7.291 3.646 3.646 0 0 1 0-7.291zm21.874 0a3.646 3.646 0 1 1 0 7.291 3.646 3.646 0 0 1 0-7.291zm21.874 0a3.646 3.646 0 1 1 0 7.291 3.646 3.646 0 0 1 0-7.291zm-328.113-21.874a3.646 3.646 0 1 1 0 7.29 3.646 3.646 0 0 1 0-7.29zm21.875 0a3.646 3.646 0 1 1 0 7.29 3.646 3.646 0 0 1 0-7.29zm21.874 0a3.646 3.646 0 1 1 0 7.29 3.646 3.646 0 0 1 0-7.29zm21.874 0a3.646 3.646 0 1 1 0 7.29 3.646 3.646 0 0 1 0-7.29zm21.874 0a3.646 3.646 0 1 1 0 7.29 3.646 3.646 0 0 1 0-7.29zm21.874 0a3.646 3.646 0 1 1 0 7.29 3.646 3.646 0 0 1 0-7.29zm21.875 0a3.646 3.646 0 1 1 0 7.29 3.646 3.646 0 0 1 0-7.29zm21.874 0a3.646 3.646 0 1 1 0 7.29 3.646 3.646 0 0 1 0-7.29zm21.874 0a3.646 3.646 0 1 1 0 7.29 3.646 3.646 0 0 1 0-7.29zm21.874 0a3.646 3.646 0 1 1 0 7.29 3.646 3.646 0 0 1 0-7.29zm21.874 0a3.646 3.646 0 1 1 0 7.29 3.646 3.646 0 0 1 0-7.29zm21.875 0a3.646 3.646 0 1 1 0 7.29 3.646 3.646 0 0 1 0-7.29zm21.874 0a3.646 3.646 0 1 1 0 7.29 3.646 3.646 0 0 1 0-7.29zm21.874 0a3.646 3.646 0 1 1 0 7.29 3.646 3.646 0 0 1 0-7.29zm21.874 0a3.646 3.646 0 1 1 0 7.29 3.646 3.646 0 0 1 0-7.29zm21.874 0a3.646 3.646 0 1 1 0 7.29 3.646 3.646 0 0 1 0-7.29zm-328.113-21.875a3.646 3.646 0 1 1 0 7.292 3.646 3.646 0 0 1 0-7.292zm21.875 0a3.646 3.646 0 1 1 0 7.292 3.646 3.646 0 0 1 0-7.292zm21.874 0a3.646 3.646 0 1 1 0 7.292 3.646 3.646 0 0 1 0-7.292zm21.874 0a3.646 3.646 0 1 1 0 7.292 3.646 3.646 0 0 1 0-7.292zm21.874 0a3.646 3.646 0 1 1 0 7.292 3.646 3.646 0 0 1 0-7.292zm21.874 0a3.646 3.646 0 1 1 0 7.292 3.646 3.646 0 0 1 0-7.292zm21.875 0a3.646 3.646 0 1 1 0 7.292 3.646 3.646 0 0 1 0-7.292zm21.874 0a3.646 3.646 0 1 1 0 7.292 3.646 3.646 0 0 1 0-7.292zm21.874 0a3.646 3.646 0 1 1 0 7.292 3.646 3.646 0 0 1 0-7.292z"/>
            <path d="M122.384 3.646a3.646 3.646 0 1 1-7.291 0 3.646 3.646 0 0 1 7.29 0zm0 21.874a3.646 3.646 0 1 1-7.291 0 3.646 3.646 0 0 1 7.29 0zm0 21.874a3.646 3.646 0 1 1-7.291 0 3.646 3.646 0 0 1 7.29 0zm0 21.874a3.646 3.646 0 1 1-7.291 0 3.646 3.646 0 0 1 7.29 0zm0 21.874a3.646 3.646 0 1 1-7.291 0 3.646 3.646 0 0 1 7.29 0zm0 21.875a3.646 3.646 0 1 1-7.291 0 3.646 3.646 0 0 1 7.29 0zm0 21.874a3.646 3.646 0 1 1-7.291 0 3.646 3.646 0 0 1 7.29 0zm0 21.874a3.646 3.646 0 1 1-7.291 0 3.646 3.646 0 0 1 7.29 0zm0 21.874a3.646 3.646 0 1 1-7.291 0 3.646 3.646 0 0 1 7.29 0zm0 21.874a3.646 3.646 0 1 1-7.291 0 3.646 3.646 0 0 1 7.29 0zm0 21.875a3.646 3.646 0 1 1-7.291 0 3.646 3.646 0 0 1 7.29 0zm0 21.874a3.646 3.646 0 1 1-7.291 0 3.646 3.646 0 0 1 7.29 0zm0 21.874a3.646 3.646 0 1 1-7.291 0 3.646 3.646 0 0 1 7.29 0zm0 21.874a3.646 3.646 0 1 1-7.291 0 3.646 3.646 0 0 1 7.29 0zm0 21.874a3.646 3.646 0 1 1-7.291 0 3.646 3.646 0 0 1 7.29 0zm0 21.875a3.646 3.646 0 1 1-7.291 0 3.646 3.646 0 0 1 7.29 0zm21.874-153.12a3.646 3.646 0 1 1-7.291 0 3.646 3.646 0 0 1 7.291 0zm0 21.874a3.646 3.646 0 1 1-7.291 0 3.646 3.646 0 0 1 7.291 0zm0 21.875a3.646 3.646 0 1 1-7.291 0 3.646 3.646 0 0 1 7.291 0zm0 21.874a3.646 3.646 0 1 1-7.291 0 3.646 3.646 0 0 1 7.291 0zm0-240.616a3.646 3.646 0 1 1-7.291 0 3.646 3.646 0 0 1 7.291 0zm0 43.748a3.646 3.646 0 1 1-7.291 0 3.646 3.646 0 0 1 7.291 0zm0 43.748a3.646 3.646 0 1 1-7.291 0 3.646 3.646 0 0 1 7.291 0zm0 43.749a3.646 3.646 0 1 1-7.291 0 3.646 3.646 0 0 1 7.291 0zm0 21.874a3.646 3.646 0 1 1-7.291 0 3.646 3.646 0 0 1 7.291 0zm0 131.245a3.646 3.646 0 1 1-7.291 0 3.646 3.646 0 0 1 7.291 0zm0-262.49a3.646 3.646 0 1 1-7.291 0 3.646 3.646 0 0 1 7.291 0zm0 284.364a3.646 3.646 0 1 1-7.291 0 3.646 3.646 0 0 1 7.291 0zm0-240.616a3.646 3.646 0 1 1-7.291 0 3.646 3.646 0 0 1 7.291 0zm0 262.49a3.646 3.646 0 1 1-7.291 0 3.646 3.646 0 0 1 7.291 0zm0-218.741a3.646 3.646 0 1 1-7.291 0 3.646 3.646 0 0 1 7.291 0zm0 153.119a3.646 3.646 0 1 1-7.291 0 3.646 3.646 0 0 1 7.291 0zm21.874-218.742a3.646 3.646 0 1 1-7.291 0 3.646 3.646 0 0 1 7.291 0zm0 43.748a3.646 3.646 0 1 1-7.291 0 3.646 3.646 0 0 1 7.291 0zm0 21.875a3.646 3.646 0 1 1-7.291 0 3.646 3.646 0 0 1 7.291 0zm0 21.874a3.646 3.646 0 1 1-7.291 0 3.646 3.646 0 0 1 7.291 0zm0 21.874a3.646 3.646 0 1 1-7.291 0 3.646 3.646 0 0 1 7.291 0zm0-153.12a3.646 3.646 0 1 1-7.291 0 3.646 3.646 0 0 1 7.291 0zm0 21.875a3.646 3.646 0 1 1-7.291 0 3.646 3.646 0 0 1 7.291 0zm0 43.748a3.646 3.646 0 1 1-7.291 0 3.646 3.646 0 0 1 7.291 0zm0 109.371a3.646 3.646 0 1 1-7.291 0 3.646 3.646 0 0 1 7.291 0zm0 21.874a3.646 3.646 0 1 1-7.291 0 3.646 3.646 0 0 1 7.291 0zm0 21.875a3.646 3.646 0 1 1-7.291 0 3.646 3.646 0 0 1 7.291 0zm0 21.874a3.646 3.646 0 1 1-7.291 0 3.646 3.646 0 0 1 7.291 0zm0 21.874a3.646 3.646 0 1 1-7.291 0 3.646 3.646 0 0 1 7.291 0zm0 21.874a3.646 3.646 0 1 1-7.291 0 3.646 3.646 0 0 1 7.291 0zm0 21.874a3.646 3.646 0 1 1-7.291 0 3.646 3.646 0 0 1 7.291 0zm0 21.875a3.646 3.646 0 1 1-7.291 0 3.646 3.646 0 0 1 7.291 0zM188.006 3.646a3.646 3.646 0 1 1-7.29 0 3.646 3.646 0 0 1 7.29 0zm0 21.874a3.646 3.646 0 1 1-7.29 0 3.646 3.646 0 0 1 7.29 0zm0 21.874a3.646 3.646 0 1 1-7.29 0 3.646 3.646 0 0 1 7.29 0zm0 21.874a3.646 3.646 0 1 1-7.29 0 3.646 3.646 0 0 1 7.29 0zm0 21.874a3.646 3.646 0 1 1-7.29 0 3.646 3.646 0 0 1 7.29 0zm0 21.875a3.646 3.646 0 1 1-7.29 0 3.646 3.646 0 0 1 7.29 0zm0 21.874a3.646 3.646 0 1 1-7.29 0 3.646 3.646 0 0 1 7.29 0zm0 21.874a3.646 3.646 0 1 1-7.29 0 3.646 3.646 0 0 1 7.29 0zm0 21.874a3.646 3.646 0 1 1-7.29 0 3.646 3.646 0 0 1 7.29 0zm0 21.874a3.646 3.646 0 1 1-7.29 0 3.646 3.646 0 0 1 7.29 0zm0 21.875a3.646 3.646 0 1 1-7.29 0 3.646 3.646 0 0 1 7.29 0zm0 21.874a3.646 3.646 0 1 1-7.29 0 3.646 3.646 0 0 1 7.29 0zm0 21.874a3.646 3.646 0 1 1-7.29 0 3.646 3.646 0 0 1 7.29 0zm0 21.874a3.646 3.646 0 1 1-7.29 0 3.646 3.646 0 0 1 7.29 0zm0 21.874a3.646 3.646 0 1 1-7.29 0 3.646 3.646 0 0 1 7.29 0zm0 21.875a3.646 3.646 0 1 1-7.29 0 3.646 3.646 0 0 1 7.29 0zM209.881 3.646a3.646 3.646 0 1 1-7.292 0 3.646 3.646 0 0 1 7.292 0zm0 21.874a3.646 3.646 0 1 1-7.292 0 3.646 3.646 0 0 1 7.292 0zm0 21.874a3.646 3.646 0 1 1-7.292 0 3.646 3.646 0 0 1 7.292 0zm0 21.874a3.646 3.646 0 1 1-7.292 0 3.646 3.646 0 0 1 7.292 0zm0 21.874a3.646 3.646 0 1 1-7.292 0 3.646 3.646 0 0 1 7.292 0zm0 21.875a3.646 3.646 0 1 1-7.292 0 3.646 3.646 0 0 1 7.292 0zm0 21.874a3.646 3.646 0 1 1-7.292 0 3.646 3.646 0 0 1 7.292 0zm0 21.874a3.646 3.646 0 1 1-7.292 0 3.646 3.646 0 0 1 7.292 0zm0 21.874a3.646 3.646 0 1 1-7.292 0 3.646 3.646 0 0 1 7.292 0zm0 21.874a3.646 3.646 0 1 1-7.292 0 3.646 3.646 0 0 1 7.292 0zm0 21.875a3.646 3.646 0 1 1-7.292 0 3.646 3.646 0 0 1 7.292 0zm0 21.874a3.646 3.646 0 1 1-7.292 0 3.646 3.646 0 0 1 7.292 0zm0 21.874a3.646 3.646 0 1 1-7.292 0 3.646 3.646 0 0 1 7.292 0zm0 21.874a3.646 3.646 0 1 1-7.292 0 3.646 3.646 0 0 1 7.292 0zm0 21.874a3.646 3.646 0 1 1-7.292 0 3.646 3.646 0 0 1 7.292 0zm0 21.875a3.646 3.646 0 1 1-7.292 0 3.646 3.646 0 0 1 7.292 0zM231.755 3.646a3.646 3.646 0 1 1-7.292 0 3.646 3.646 0 0 1 7.292 0zm0 21.874a3.646 3.646 0 1 1-7.292 0 3.646 3.646 0 0 1 7.292 0zm0 21.874a3.646 3.646 0 1 1-7.292 0 3.646 3.646 0 0 1 7.292 0zm0 21.874a3.646 3.646 0 1 1-7.292 0 3.646 3.646 0 0 1 7.292 0zm0 21.874a3.646 3.646 0 1 1-7.292 0 3.646 3.646 0 0 1 7.292 0zm0 21.875a3.646 3.646 0 1 1-7.292 0 3.646 3.646 0 0 1 7.292 0zm0 21.874a3.646 3.646 0 1 1-7.292 0 3.646 3.646 0 0 1 7.292 0zm0 21.874a3.646 3.646 0 1 1-7.292 0 3.646 3.646 0 0 1 7.292 0zm0 21.874a3.646 3.646 0 1 1-7.292 0 3.646 3.646 0 0 1 7.292 0zm0 21.874a3.646 3.646 0 1 1-7.292 0 3.646 3.646 0 0 1 7.292 0zm0 21.875a3.646 3.646 0 1 1-7.292 0 3.646 3.646 0 0 1 7.292 0zm0 21.874a3.646 3.646 0 1 1-7.292 0 3.646 3.646 0 0 1 7.292 0zm0 21.874a3.646 3.646 0 1 1-7.292 0 3.646 3.646 0 0 1 7.292 0zm0 21.874a3.646 3.646 0 1 1-7.292 0 3.646 3.646 0 0 1 7.292 0zm0 21.874a3.646 3.646 0 1 1-7.292 0 3.646 3.646 0 0 1 7.292 0zm0 21.875a3.646 3.646 0 1 1-7.292 0 3.646 3.646 0 0 1 7.292 0zM253.629 3.646a3.646 3.646 0 1 1-7.291 0 3.646 3.646 0 0 1 7.291 0zm0 21.874a3.646 3.646 0 1 1-7.291 0 3.646 3.646 0 0 1 7.291 0zm0 21.874a3.646 3.646 0 1 1-7.291 0 3.646 3.646 0 0 1 7.291 0zm0 21.874a3.646 3.646 0 1 1-7.291 0 3.646 3.646 0 0 1 7.291 0zm0 21.874a3.646 3.646 0 1 1-7.291 0 3.646 3.646 0 0 1 7.291 0zm0 21.875a3.646 3.646 0 1 1-7.291 0 3.646 3.646 0 0 1 7.291 0zm0 21.874a3.646 3.646 0 1 1-7.291 0 3.646 3.646 0 0 1 7.291 0zm0 21.874a3.646 3.646 0 1 1-7.291 0 3.646 3.646 0 0 1 7.291 0zm0 21.874a3.646 3.646 0 1 1-7.291 0 3.646 3.646 0 0 1 7.291 0zm0 21.874a3.646 3.646 0 1 1-7.291 0 3.646 3.646 0 0 1 7.291 0zm0 21.875a3.646 3.646 0 1 1-7.291 0 3.646 3.646 0 0 1 7.291 0zm0 21.874a3.646 3.646 0 1 1-7.291 0 3.646 3.646 0 0 1 7.291 0zm0 21.874a3.646 3.646 0 1 1-7.291 0 3.646 3.646 0 0 1 7.291 0zm0 21.874a3.646 3.646 0 1 1-7.291 0 3.646 3.646 0 0 1 7.291 0zm0 21.874a3.646 3.646 0 1 1-7.291 0 3.646 3.646 0 0 1 7.291 0zm0 21.875a3.646 3.646 0 1 1-7.291 0 3.646 3.646 0 0 1 7.291 0zM275.503 3.646a3.646 3.646 0 1 1-7.291 0 3.646 3.646 0 0 1 7.291 0zm0 21.874a3.646 3.646 0 1 1-7.291 0 3.646 3.646 0 0 1 7.291 0zm0 21.874a3.646 3.646 0 1 1-7.291 0 3.646 3.646 0 0 1 7.291 0zm0 21.874a3.646 3.646 0 1 1-7.291 0 3.646 3.646 0 0 1 7.291 0zm0 21.874a3.646 3.646 0 1 1-7.291 0 3.646 3.646 0 0 1 7.291 0zm0 21.875a3.646 3.646 0 1 1-7.291 0 3.646 3.646 0 0 1 7.291 0zm0 21.874a3.646 3.646 0 1 1-7.291 0 3.646 3.646 0 0 1 7.291 0zm0 21.874a3.646 3.646 0 1 1-7.291 0 3.646 3.646 0 0 1 7.291 0zm0 21.874a3.646 3.646 0 1 1-7.291 0 3.646 3.646 0 0 1 7.291 0zm0 21.874a3.646 3.646 0 1 1-7.291 0 3.646 3.646 0 0 1 7.291 0zm0 21.875a3.646 3.646 0 1 1-7.291 0 3.646 3.646 0 0 1 7.291 0zm0 21.874a3.646 3.646 0 1 1-7.291 0 3.646 3.646 0 0 1 7.291 0zm0 21.874a3.646 3.646 0 1 1-7.291 0 3.646 3.646 0 0 1 7.291 0zm0 21.874a3.646 3.646 0 1 1-7.291 0 3.646 3.646 0 0 1 7.291 0zm0 21.874a3.646 3.646 0 1 1-7.291 0 3.646 3.646 0 0 1 7.291 0zm0 21.875a3.646 3.646 0 1 1-7.291 0 3.646 3.646 0 0 1 7.291 0z"/>
        </g>
        <path d="m61.096 220.98 3.791 3.79 3.791-3.79a.999.999 0 1 1 1.414 1.414l-3.791 3.79 3.79 3.791a.999.999 0 1 1-1.413 1.414l-3.791-3.79-3.79 3.79a.997.997 0 0 1-1.415 0 .999.999 0 0 1 0-1.414l3.79-3.79-3.79-3.791a1 1 0 0 1 1.414-1.414zM424.406 197.028l3.79 3.79 3.792-3.79a.999.999 0 1 1 1.414 1.414l-3.792 3.79 3.792 3.79a.999.999 0 1 1-1.414 1.415l-3.792-3.791-3.79 3.79a.997.997 0 0 1-1.414 0 .999.999 0 0 1 0-1.413l3.79-3.79-3.79-3.791a.999.999 0 1 1 1.414-1.414zM349.915 67.888l3.79 3.79 3.792-3.79a1 1 0 0 1 1.413 1.414l-3.79 3.79 3.79 3.792a.999.999 0 1 1-1.413 1.414l-3.792-3.792-3.79 3.792a.997.997 0 0 1-1.415 0 .999.999 0 0 1 0-1.414l3.791-3.792-3.79-3.79a.999.999 0 1 1 1.414-1.414zM43.029 326.068c-1.293 0-2.58.534-3.5 1.579a4.621 4.621 0 0 0-1.146 3.372 4.622 4.622 0 0 0 1.57 3.195 4.608 4.608 0 0 0 3.372 1.149 4.624 4.624 0 0 0 3.196-1.572 4.66 4.66 0 0 0-.423-6.568 4.64 4.64 0 0 0-3.07-1.155m-.011 11.305a6.598 6.598 0 0 1-4.383-1.657 6.606 6.606 0 0 1-2.248-4.57 6.609 6.609 0 0 1 1.643-4.82 6.66 6.66 0 0 1 9.389-.605 6.66 6.66 0 0 1 .606 9.39 6.608 6.608 0 0 1-5.007 2.262M332.953 136.79a4.658 4.658 0 0 0-4.652 4.654 4.658 4.658 0 0 0 4.652 4.654 4.66 4.66 0 0 0 4.653-4.654 4.658 4.658 0 0 0-4.653-4.653m0 11.307a6.66 6.66 0 0 1-6.652-6.654 6.66 6.66 0 0 1 6.652-6.653 6.66 6.66 0 0 1 6.653 6.653 6.66 6.66 0 0 1-6.653 6.654M51.793 68.87a4.658 4.658 0 0 0-4.653 4.654 4.658 4.658 0 0 0 4.653 4.653 4.658 4.658 0 0 0 4.653-4.653 4.658 4.658 0 0 0-4.653-4.653m0 11.306a6.661 6.661 0 0 1-6.653-6.653 6.66 6.66 0 0 1 6.653-6.653 6.66 6.66 0 0 1 6.653 6.653 6.661 6.661 0 0 1-6.653 6.653" class="svg-color05" fill="#EFE4D8"/>
        <path style="fill:var(--w)" fill="#FFF" d="M209.997 278H124V153h147v62.342l-18.83-12.018h-24.06l-18.23 10.484-11.948 17.667-1.032 19.867 5.1 16.62z"/>
        <path d="M132.424 150.542v119.322h42.373a2.712 2.712 0 0 1 2.693 2.396l.018 4.316c-.018 0-1.046-1.463-2.395-1.306l-.316.018-45.085 2c-1.39 0-4.537-3.047-4.694-4.395l.982-.317 1-121.745c0-1.391 1.047.463 2.396.306l.316-.018 2.712-.577zM245 200c13.93 0 21.583 8.61 29.44 17.742 5.54 6.436 7.56 11.44 7.56 21.258 0 23.748-13.252 43-37 43-23.748 0-43-19.252-43-43s19.252-39 43-39zm0 10c-16.016 0-29 12.984-29 29s12.984 29 29 29 29-12.984 29-29-12.984-29-29-29z" class="svg-color05" fill="#EFE4D8"/>
        <path d="M239 202c23.748 0 43 19.252 43 43s-19.252 43-43 43-43-19.252-43-43 19.252-43 43-43zm0 14c-16.016 0-29 12.984-29 29s12.984 29 29 29 29-12.984 29-29-12.984-29-29-29z" style="fill:var(--w)" fill="#FFF"/>
        <path d="M135.56 160.966a2.715 2.715 0 0 1 2.711 2.712 2.715 2.715 0 0 1-2.712 2.712 2.715 2.715 0 0 1-2.712-2.712 2.715 2.715 0 0 1 2.712-2.712zm10.847 0a2.715 2.715 0 0 1 2.712 2.712 2.715 2.715 0 0 1-2.712 2.712 2.715 2.715 0 0 1-2.712-2.712 2.715 2.715 0 0 1 2.712-2.712zm10.847 0a2.715 2.715 0 0 1 2.712 2.712 2.715 2.715 0 0 1-2.712 2.712 2.715 2.715 0 0 1-2.712-2.712 2.715 2.715 0 0 1 2.712-2.712zm102.712 0c1.685 0 3.05 1.214 3.05 2.712 0 1.39-1.177 2.537-2.694 2.694l-.356.018h-91.525c-1.685 0-3.051-1.214-3.051-2.712 0-1.39 1.178-2.537 2.695-2.694l.356-.018h91.525z" style="fill:var(--rm500)" fill="#E1000F"/>
        <g transform="translate(195.22 201.644)">
            <path d="M43.39-2.712c25.461 0 46.102 20.64 46.102 46.102a45.912 45.912 0 0 1-10.16 28.874 2.712 2.712 0 0 1-4.227-3.4 40.49 40.49 0 0 0 8.963-25.474c0-22.466-18.212-40.678-40.678-40.678-22.466 0-40.678 18.212-40.678 40.678 0 22.466 18.212 40.678 40.678 40.678a2.712 2.712 0 0 1 0 5.424c-25.461 0-46.102-20.64-46.102-46.102 0-25.461 20.64-46.102 46.102-46.102z" style="fill:var(--bf500)" fill="#000091"/>
            <path d="M12.81 54.52c-6.147-16.889 2.56-35.563 19.45-41.71a32.412 32.412 0 0 1 21.606-.231 2.712 2.712 0 0 1-1.75 5.134 26.99 26.99 0 0 0-18.001.194C20.04 23.029 12.785 38.59 17.907 52.665c5.122 14.074 20.684 21.33 34.758 16.208 14.074-5.122 21.33-20.684 16.208-34.758a2.712 2.712 0 1 1 5.097-1.855c6.147 16.888-2.561 35.563-19.45 41.71-16.889 6.147-35.563-2.561-41.71-19.45z" style="fill:var(--bf500)" fill="#000091"/>
            <circle style="fill:var(--bf500)" fill="#000091" cx="70.508" cy="78.644" r="2.712"/>
            <path d="M43.39 35.254a8.136 8.136 0 1 1 0 16.271 8.136 8.136 0 0 1 0-16.27zm0 5.424a2.712 2.712 0 1 0 0 5.424 2.712 2.712 0 0 0 0-5.424z" style="fill:var(--rm500)" fill="#E1000F"/>
            <path d="m45.444 37.5 17.258-17.257a2.712 2.712 0 0 1 3.835 3.835L49.279 41.336l-3.835-3.835zM41.007 37.172l-5.753-5.753a2.712 2.712 0 1 0-3.835 3.835l5.753 5.753 3.835-3.835z" style="fill:var(--rm500)" fill="#E1000F"/>
            <path d="m42.34 79.213.256.225 5.423 5.424a2.712 2.712 0 0 1 0 3.835l-5.423 5.424-.256.226a2.712 2.712 0 0 1-3.58-4.061l3.506-3.507-3.506-3.505a2.712 2.712 0 0 1 3.58-4.061z" style="fill:var(--bf500)" fill="#000091"/>
        </g>
        <path d="M271.153 150.119a2.712 2.712 0 0 1 2.693 2.395l.018.317v43.39a2.712 2.712 0 0 1-5.405.316l-.018-.317v-40.678H127.424v16.272h100.339a2.712 2.712 0 0 1 .316 5.405l-.316.018h-100.34v97.627h62.374a2.712 2.712 0 0 1 2.693 2.396l.018.316a2.712 2.712 0 0 1-2.395 2.694l-.316.018h-65.085a2.712 2.712 0 0 1-2.694-2.395l-.018-.317V152.831a2.712 2.712 0 0 1 2.396-2.694l.316-.018h146.44zm-92.204 75.932a2.712 2.712 0 0 1 .316 5.405l-.316.019h-32.542a2.712 2.712 0 0 1-.316-5.406l.316-.018h32.542zm5.424-16.271a2.712 2.712 0 0 1 .316 5.405l-.316.018h-37.966a2.712 2.712 0 0 1-.316-5.405l.316-.018h37.966zm10.847-16.272a2.712 2.712 0 0 1 .317 5.406l-.317.018h-48.813a2.712 2.712 0 0 1-.316-5.405l.316-.019h48.813z" style="fill:var(--bf500)" fill="#000091"/>
    </g>
</svg>
