<svg xmlns="http://www.w3.org/2000/svg" viewBox="0 0 126 88"><defs><symbol id="a" viewBox="0 0 10.96 15.46"><path d="M10.4 5.25C11.94 1.59 10.06 0 7.94 0 4.24 0 0 6.5 0 11.7c0 2.46 1.16 3.75 2.98 3.75 2.12.05 4.34-2.02 6.17-5.44h-.97c-1.2 1.45-2.55 2.6-3.85 2.6-1.35 0-2.02-.81-2.02-2.6a10.67 10.67 0 01.24-2.16zM6.45 2.17c1.05 0 1.97.81 1.49 2.64l-4.86 1.3c.77-2.26 2.21-3.94 3.37-3.94z"/></symbol><symbol id="b" viewBox="0 0 12.37 21.81"><use width="10.96" height="15.46" y="6.36" href="#a"/><path d="M7.89 4.67L12.37.58V0H9.38L6.74 4.67h1.15z"/></symbol><symbol id="c" viewBox="0 0 11.47 19.02"><path d="M1.7 5.73h2.6L.14 17.09a1.31 1.31 0 001.16 1.93c2.94 0 6.45-2.5 7.8-6.07h-.72a9.4 9.4 0 01-5.1 3.42l3.8-10.64h3.9l.48-1.64h-3.8L9.1 0H7.6L4.9 4.1l-3.22.43v1.2z"/></symbol><symbol id="d" viewBox="0 0 9.85 21.9"><path d="M7.59 8.09c.29-1.06-.39-1.64-.96-1.64-2.27 0-4.96 2.07-6.07 4.91h.72a5.58 5.58 0 013.17-2.4L.13 20.25a1.12 1.12 0 00.96 1.64c2.17 0 4.67-2.07 5.78-4.91h-.73a5.58 5.58 0 01-3.17 2.41zm.48-4.53a1.8 1.8 0 001.78-1.78A1.8 1.8 0 008.07 0a1.78 1.78 0 00-1.78 1.77v.01A1.75 1.75 0 008 3.56h.07"/></symbol><symbol id="e" viewBox="0 0 14.77 15.47"><path d="M3.3 3.14c.67 0 1.06 1.05 0 3.37L.22 13.34c-.58 1.3.05 2.12 1.3 2.12a1.3 1.3 0 001.44-1.01l3.03-7.99c1.4-1.69 4-3.51 5.1-3.51.82 0 .73.67.2 1.68l-4.62 8.9a1.31 1.31 0 001.15 1.93c2.27 0 4.96-2.02 6.07-4.91h-.72a5.58 5.58 0 01-3.18 2.41l4-8.04a6.11 6.11 0 00.77-2.75A1.96 1.96 0 0012.64.01c-1.97 0-3.66 2.21-6.02 4.96V2.84C6.62 1.35 6.14 0 4.8 0 3.21 0 1.77 2.46.67 4.9h.72c.67-1.15 1.35-1.77 1.92-1.77"/></symbol><symbol id="f" viewBox="0 0 12.02 15.46"><path d="M11.77 3.47C12.3 1.64 12.01 0 10.62 0c-1.8 0-2.32 1.2-4.1 4.96V2.84C6.52 1.34 6.04 0 4.7 0 3.1 0 1.66 2.46.55 4.91h.73C2.05 3.8 2.77 3.13 3.3 3.13c.67 0 1.06 1.06 0 3.37L.22 13.34c-.58 1.3.05 2.11 1.3 2.11a1.3 1.3 0 001.44-1l3.03-8a50.28 50.28 0 012.6-2.99h3.18z"/></symbol><symbol id="g" viewBox="0 0 14.65 16.23"><path d="M10.46 13.1c-.58 0-1.02-1.06 0-3.37L14.64.1l-1.2-.1-1.35 1.35h-.25C6.13 1.35.01 8.48.01 14.06a1.96 1.96 0 002.12 2.17c1.69 0 3.32-2.41 5.15-4.96l-.1.91c-.24 2.6.58 4.05 1.93 4.05 1.59 0 3.03-2.46 4.14-4.91h-.73c-.76 1.1-1.49 1.78-2.06 1.78zm-2.6-3.32c-1.3 1.59-3.32 3.51-4.23 3.51-.58 0-.92-.48-.92-1.54 0-3.51 3.9-8.23 6.07-8.23a4.15 4.15 0 011.35.2z"/></symbol><symbol id="h" viewBox="0 0 21.86 19.79"><path d="M11.22 19.79l.29-.87c-3.8-.72-4.29-.72-2.75-4.81l1.4-3.86h3.03c1.88 0 1.88.82 1.64 2.9h1.06l2.5-6.84h-1.06c-.92 1.63-1.69 2.88-3.7 2.88h-3.04l2.07-5.63c.72-2.02 1.06-2.4 3.66-2.4h.67c2.65 0 2.94.72 2.94 3.51H21L21.86 0H7.26l-.28.86c3.03.63 3.32.92 1.93 4.82l-3.13 8.38c-1.45 3.9-2.02 4.19-5.5 4.81L0 19.8z"/></symbol><symbol id="i" viewBox="0 0 10.07 21.85"><path d="M2.9 19.35L10.07.3 9.83 0 4.87.58v.58l.96.72c.87.67.58 1.3-.2 3.42L.16 19.93a1.31 1.31 0 001.16 1.92c2.26 0 4.67-2.07 5.77-4.9h-.72a6.54 6.54 0 01-3.46 2.4"/></symbol><symbol id="j" viewBox="0 0 18.01 22"><path d="M18 .58h-4.33A3.77 3.77 0 0011.55 0 6.58 6.58 0 005.1 6.5a3.33 3.33 0 002.94 3.56c-1.83.87-2.89 1.79-2.89 2.94a1.7 1.7 0 00.82 1.54C1.73 15.79 0 17.34 0 19.21 0 21.18 2.6 22 5.63 22c5.25.05 9.58-2.74 9.58-5.1 0-1.83-1.64-2.46-4.29-3.27-2.26-.68-3.27-.87-3.27-1.64a2.39 2.39 0 011.44-1.83 6.6 6.6 0 006.12-6.5 4.54 4.54 0 00-.24-1.44h2.55zm-8.23 15.6c2.17.72 2.99 1.01 2.99 1.64 0 1.4-1.98 2.45-5.59 2.45-2.7 0-4-.58-4-1.97 0-1.5 1.45-2.46 3.52-3.28a21.54 21.54 0 003.08 1.16zM9.1 9.1c-.96 0-1.3-.82-1.3-1.69 0-2.79 1.35-6.25 3.52-6.25.96 0 1.3.81 1.3 1.68-.05 2.84-1.4 6.26-3.52 6.26z"/></symbol><symbol id="k" viewBox="0 0 22.97 25.13"><path d="M14.3 15.55c1.88 0 1.93.82 1.64 2.89H17l2.5-6.84h-1.06c-.92 1.64-1.69 2.89-3.7 2.89h-4.15l2.02-5.63c.72-2.03 1.06-2.41 3.66-2.41h1.83c2.65 0 2.94.72 2.94 3.51h1.06l.87-4.67H7.27l-.29.87c3.03.63 3.32.91 1.93 4.81L5.78 19.4c-1.45 3.9-2.03 4.19-5.54 4.82l-.24.91h17.43l3.13-4.96h-1.2c-2.03 1.98-4.05 3.8-8 3.8-4.62 0-4.23-.24-2.7-4.52l1.45-3.85h4.19zM16.56 3.8L21.04.58V0h-2.99L15.4 3.85h1.16V3.8z"/></symbol><symbol id="l" viewBox="0 0 13.57 21.81"><path d="M11.36 6.4c-2.02 0-3.9 2.17-5.78 4.77L9.63.34 9.39 0 4.43.58v.57l.96.72c.87.68.58 1.35-.2 3.42L.83 16.75a13.88 13.88 0 00-.82 2.4c0 1.36 1.83 2.66 3.51 2.66 3.76.04 10.06-6.89 10.06-12.23 0-2.31-.57-3.18-2.2-3.18zM4.81 19.54c-.77 0-1.87-.72-1.87-1.34a15.46 15.46 0 01.77-2.17l1.25-3.37c1.35-1.64 3.47-3.37 4.62-3.37.72 0 1.25.43 1.25 1.5.05 3.12-2.89 8.75-6.02 8.75z"/></symbol><symbol id="m" viewBox="0 0 19.16 19.88"><path d="M17.62 0H7.27l-.29.87c3.03.62 3.32.91 1.93 4.81L5.78 14.2c-1.45 3.9-2.03 4.19-5.5 4.82l-.28.86h15.74l3.42-6.06h-1.2c-1.97 2.16-4.19 4.9-7.7 4.9-2.65 0-3.03-.47-1.54-4.52l3.08-8.47c1.44-3.9 2.02-4.19 5.54-4.82z"/></symbol></defs><use width="12.37" height="21.81" x="112.72" y="66.14" href="#b"/><use width="11.47" height="19.02" x="102.16" y="68.98" href="#c"/><use width="9.85" height="21.9" x="93.59" y="66.09" href="#d"/><use width="14.77" height="15.47" x="77.24" y="72.54" href="#e"/><use width="12.02" height="15.46" x="65.66" y="72.49" href="#f"/><use width="10.96" height="15.46" x="54.25" y="72.5" href="#a"/><use width="11.47" height="19.02" x="43.7" y="68.99" href="#c"/><use width="14.65" height="16.23" x="28.93" y="71.78" href="#g"/><use width="12.02" height="15.46" x="19.57" y="72.54" href="#f"/><use width="21.86" height="19.79" y="67.64" href="#h"/><use width="12.37" height="21.81" x="77.3" y="33.07" href="#b"/><use width="11.47" height="19.02" x="66.81" y="35.95" href="#c"/><use width="9.85" height="21.9" x="58.2" y="33.05" href="#d"/><use width="10.07" height="21.85" x="49.43" y="33.07" href="#i"/><use width="14.65" height="16.23" x="34.94" y="38.75" href="#g"/><use width="18.01" height="22" x="18.63" y="39.42" href="#j"/><use width="22.97" height="25.13" y="29.27" href="#k"/><use width="12.37" height="21.81" x="76.79" y=".05" href="#b"/><use width="11.47" height="19.02" x="66.23" y="2.94" href="#c"/><use width="12.02" height="15.46" x="54.81" y="6.45" href="#f"/><use width="10.96" height="15.46" x="43.39" y="6.39" href="#a"/><use width="13.57" height="21.81" x="29.37" y=".05" href="#l"/><use width="9.85" height="21.9" x="20.62" href="#d"/><use width="19.16" height="19.88" y="1.44" href="#m"/></svg>
