<svg xmlns="http://www.w3.org/2000/svg" width="24" height="24" viewBox="0 0 24 24">
<path fill-rule="evenodd" clip-rule="evenodd" d="M14 3H10C7.87827 3 5.84344 3.84285 4.34315 5.34315C2.84285 6.84344 2 8.87827 2 11C2 17.5 9 20.5 14 22.5V19C16.1217 19 18.1566 18.1571 19.6569 16.6569C21.1571 15.1566 22 13.1217 22 11C22 8.87827 21.1571 6.84344 19.6569 5.34315C18.1566 3.84285 16.1217 3 14 3ZM9.55227 11L11.7 14.5H9.38182L7.2 11L9.38182 7.5H11.7L9.55227 11ZM14.0523 11L16.2 14.5H13.8818L11.7 11L13.8818 7.5H16.2L14.0523 11Z" fill="#000091"/>
</svg>
