<svg xmlns="http://www.w3.org/2000/svg" width="24" height="24" viewBox="0 0 24 24">
<path d="M10 3H14C16.1217 3 18.1566 3.84285 19.6569 5.34315C21.1571 6.84344 22 8.87827 22 11C22 13.1217 21.1571 15.1566 19.6569 16.6569C18.1566 18.1571 16.1217 19 14 19V22.5C9 20.5 2 17.5 2 11C2 8.87827 2.84285 6.84344 4.34315 5.34315C5.84344 3.84285 7.87827 3 10 3ZM12 17H14C14.7879 17 15.5681 16.8448 16.2961 16.5433C17.0241 16.2417 17.6855 15.7998 18.2426 15.2426C18.7998 14.6855 19.2417 14.0241 19.5433 13.2961C19.8448 12.5681 20 11.7879 20 11C20 10.2121 19.8448 9.43185 19.5433 8.7039C19.2417 7.97595 18.7998 7.31451 18.2426 6.75736C17.6855 6.20021 17.0241 5.75825 16.2961 5.45672C15.5681 5.15519 14.7879 5 14 5H10C8.4087 5 6.88258 5.63214 5.75736 6.75736C4.63214 7.88258 4 9.4087 4 11C4 14.61 6.462 16.966 12 19.48V17Z" fill="#000091"/>
<path d="M11.1426 14.3999C11.299 14.3999 11.3949 14.2286 11.3131 14.0953L9.60903 11.3183C9.4515 11.0616 9.4515 10.7382 9.60903 10.4815L11.3131 7.70451C11.3949 7.57124 11.299 7.3999 11.1426 7.3999H9.62583C9.34966 7.3999 9.09303 7.54234 8.94693 7.7767L7.26382 10.4767C7.10234 10.7357 7.10234 11.0641 7.26382 11.3231L8.94693 14.0231C9.09303 14.2575 9.34966 14.3999 9.62583 14.3999H11.1426ZM15.6426 14.3999C15.799 14.3999 15.8949 14.2286 15.8131 14.0953L14.109 11.3183C13.9515 11.0616 13.9515 10.7382 14.109 10.4815L15.8131 7.70451C15.8949 7.57124 15.799 7.3999 15.6426 7.3999H14.1258C13.8497 7.3999 13.593 7.54234 13.4469 7.7767L11.7638 10.4767C11.6023 10.7357 11.6023 11.0641 11.7638 11.3231L13.4469 14.0231C13.593 14.2575 13.8497 14.3999 14.1258 14.3999H15.6426Z" fill="#000091"/>
</svg>
