<svg xmlns="http://www.w3.org/2000/svg" width="24px" height="24px" viewBox="0 0 24 24"><path fill="currentColor" d="M12.5,4 C14.3007327,4 15.9280348,5.07364299 16.6366952,6.72907002 C17.3453555,8.38449704 16.9989057,10.3029944 15.756,11.606 C17.1453342,12.4105127 18.0005385,13.8945437 18,15.5 C18,16.6934742 17.5258942,17.8380668 16.6819805,18.6819805 C15.8380668,19.5258942 14.6934742,20 13.5,20 L6,20 L6,4 L12.5,4 Z M13.125,13.5 L9,13.5 L9,17.5 L13.125,17.5 C14.1605339,17.5 15,16.6045695 15,15.5 C15,14.3954305 14.1605339,13.5 13.125,13.5 Z M12.2142857,6.5 L9,6.5 L9,10.5 L12.2142857,10.5 C13.2005085,10.5 14,9.6045695 14,8.5 C14,7.3954305 13.2005085,6.5 12.2142857,6.5 Z" /></svg>